<svg id="Layer_2" data-name="Layer 2" xmlns="http://www.w3.org/2000/svg" viewBox="0 0 797.17 132.91"><defs><style>.cls-1{fill:#1b3133;}.cls-2,.cls-7{fill:#b3b3b3;}.cls-3{fill:#e6e6e6;}.cls-4{fill:#ccc;}.cls-5,.cls-7{font-size:12.18px;font-family:ArialRoundedMTBold, Arial Rounded MT Bold;}.cls-5{fill:#1a1a1a;}.cls-6{fill:#fff;}.cls-8{fill:#59c15d;}.cls-9{fill:#4eaa45;}.cls-10{fill:#3d8936;}.cls-11{fill:#f8f2a9;}</style></defs><path class="cls-1" d="M495.2,403.25l-20-81.88v88.72q0,7.37-3.2,11.05a11.5,11.5,0,0,1-16.83,0q-3.24-3.65-3.24-11.09V308.39q0-8.42,4.26-11.35t11.51-2.94h7.84c4.71,0,8.14.44,10.27,1.32a8.7,8.7,0,0,1,4.73,4.73A74.48,74.48,0,0,1,494,311.29l18.16,70.39,18.15-70.39a74.48,74.48,0,0,1,3.49-11.14,8.73,8.73,0,0,1,4.73-4.73q3.19-1.32,10.27-1.32h7.84q7.25,0,11.51,2.94t4.26,11.35v101.7q0,7.37-3.2,11.05a10.77,10.77,0,0,1-8.56,3.68,10.53,10.53,0,0,1-8.27-3.68q-3.24-3.69-3.24-11.05V321.37l-20,81.88q-2,8-3.2,11.71a16.24,16.24,0,0,1-4.56,6.79q-3.33,3.06-9.2,3.07a13.52,13.52,0,0,1-7.5-2,14,14,0,0,1-4.78-5A29.31,29.31,0,0,1,497.2,411C496.54,408.53,495.88,405.94,495.2,403.25Z" transform="translate(-286 -291.91)"/><path class="cls-1" d="M606,307.69v45.06l49.19-53.3a45.88,45.88,0,0,1,6-5.7,10.87,10.87,0,0,1,6.62-1.84,11.94,11.94,0,0,1,8.74,3.29,10.83,10.83,0,0,1,3.33,8q0,5.7-5.66,11.31l-30.45,30,35.1,52.25a65.73,65.73,0,0,1,5.56,9.52,19,19,0,0,1,1.86,7.93,10,10,0,0,1-3.25,7.45q-3.24,3.16-8.82,3.16a14.47,14.47,0,0,1-8.52-2.33,19.39,19.39,0,0,1-5.56-6.18q-2.28-3.85-4.05-7L626.54,362,606,382.39V409q0,8.07-3.54,12a11.77,11.77,0,0,1-9.12,3.9,12.46,12.46,0,0,1-10.71-6.49,15.92,15.92,0,0,1-1.44-5.7c-.16-2.16-.25-5.29-.25-9.38V307.69q0-7.89,3.33-11.83a11.26,11.26,0,0,1,9.07-3.95,11.74,11.74,0,0,1,9.16,3.9Q606,299.71,606,307.69Z" transform="translate(-286 -291.91)"/><path class="cls-1" d="M686.42,369.5V307.69q0-7.89,3.42-11.83a11.32,11.32,0,0,1,9-3.95,11.61,11.61,0,0,1,9.24,3.95q3.4,3.94,3.41,11.83V370.9a59.73,59.73,0,0,0,2.32,18A20.73,20.73,0,0,0,722,400.14q5.9,4,16.54,4,14.67,0,20.75-8.11t6.08-24.59V307.69q0-8,3.37-11.88a11.34,11.34,0,0,1,9-3.9,11.7,11.7,0,0,1,9.15,3.9q3.51,3.9,3.5,11.88V369.5q0,15.08-2.82,25.16A39.2,39.2,0,0,1,777,412.37a41.24,41.24,0,0,1-15.69,9.47,66.47,66.47,0,0,1-20.92,3q-14.26,0-24.55-3.2A39,39,0,0,1,699,411.71a40.3,40.3,0,0,1-9.54-17.18A90.83,90.83,0,0,1,686.42,369.5Z" transform="translate(-286 -291.91)"/><path class="cls-1" d="M863.5,341.29H826.11V366h31.26q4.33,0,6.48,2a7,7,0,0,1,2.14,5.36,6.84,6.84,0,0,1-2.17,5.33q-2.18,2-6.45,2H826.11v31.76c0,4-.89,7-2.65,9a9.42,9.42,0,0,1-13.68,0q-2.65-3-2.65-8.94V338.2a16.65,16.65,0,0,1,1.21-6.87,7.65,7.65,0,0,1,3.8-3.88,15.62,15.62,0,0,1,6.62-1.22H863.5c3,0,5.27.69,6.74,2.07a7.85,7.85,0,0,1,0,10.92C868.77,340.6,866.53,341.29,863.5,341.29Z" transform="translate(-286 -291.91)"/><path class="cls-1" d="M939.16,387.78a43.7,43.7,0,0,1-2.43,14.79,32.88,32.88,0,0,1-7,11.64,31.06,31.06,0,0,1-11,7.46,37.91,37.91,0,0,1-14.38,2.6,36.85,36.85,0,0,1-14.25-2.63,31.53,31.53,0,0,1-11-7.53,32.65,32.65,0,0,1-7-11.57,46.93,46.93,0,0,1,0-29.69,32.6,32.6,0,0,1,7-11.57,30.65,30.65,0,0,1,11-7.4,40.42,40.42,0,0,1,28.63,0,31.28,31.28,0,0,1,11.06,7.49,32.52,32.52,0,0,1,7,11.57A43.68,43.68,0,0,1,939.16,387.78Zm-17.52,0q0-11-4.7-17.1a15.08,15.08,0,0,0-12.62-6.11,15.31,15.31,0,0,0-9,2.73,17.2,17.2,0,0,0-6,8.05,33.54,33.54,0,0,0-2.11,12.43,33.2,33.2,0,0,0,2.08,12.29,17.56,17.56,0,0,0,5.94,8.06,16.12,16.12,0,0,0,21.73-3.36Q921.65,398.64,921.64,387.78Z" transform="translate(-286 -291.91)"/><path class="cls-1" d="M1011.68,387.78a43.46,43.46,0,0,1-2.43,14.79,32.88,32.88,0,0,1-7,11.64,31.06,31.06,0,0,1-11,7.46,37.91,37.91,0,0,1-14.38,2.6,36.89,36.89,0,0,1-14.25-2.63,31.4,31.4,0,0,1-11-7.53,32.67,32.67,0,0,1-7-11.57,46.93,46.93,0,0,1,0-29.69,32.75,32.75,0,0,1,7-11.57,30.65,30.65,0,0,1,11-7.4,40.42,40.42,0,0,1,28.63,0,31.19,31.19,0,0,1,11.06,7.49,32.52,32.52,0,0,1,7,11.57A43.68,43.68,0,0,1,1011.68,387.78Zm-17.52,0q0-11-4.7-17.1a15.08,15.08,0,0,0-12.62-6.11,15.31,15.31,0,0,0-9,2.73,17.2,17.2,0,0,0-6,8.05,33.54,33.54,0,0,0-2.11,12.43,33.2,33.2,0,0,0,2.08,12.29,17.56,17.56,0,0,0,5.94,8.06,16.12,16.12,0,0,0,21.73-3.36Q994.17,398.64,994.16,387.78Z" transform="translate(-286 -291.91)"/><path class="cls-1" d="M1066.68,414v-1.77a44.7,44.7,0,0,1-6.93,6.74,25.86,25.86,0,0,1-7.42,3.94,27.07,27.07,0,0,1-8.72,1.35,25.09,25.09,0,0,1-11.6-2.73,27.32,27.32,0,0,1-9.24-7.79,35.87,35.87,0,0,1-5.91-11.9,52.27,52.27,0,0,1-2-14.8q0-16.83,8-26.23t21-9.4a27.51,27.51,0,0,1,12.72,2.66,35.29,35.29,0,0,1,10.1,8.19v-26.5c0-3.68.72-6.47,2.14-8.35a7.21,7.21,0,0,1,6.11-2.83,7.47,7.47,0,0,1,6.1,2.6q2.15,2.6,2.14,7.66V414c0,3.42-.76,6-2.3,7.7a7.6,7.6,0,0,1-5.94,2.56,7.51,7.51,0,0,1-5.91-2.66Q1066.68,418.94,1066.68,414Zm-34.32-26.36a31.39,31.39,0,0,0,2.2,12.42,17.34,17.34,0,0,0,6,7.73,14.66,14.66,0,0,0,8.38,2.6,15.13,15.13,0,0,0,8.4-2.47,16.84,16.84,0,0,0,6.08-7.56,31.38,31.38,0,0,0,2.26-12.72,30.54,30.54,0,0,0-2.26-12.33,18.5,18.5,0,0,0-6.14-7.89,14.37,14.37,0,0,0-8.47-2.73,14,14,0,0,0-8.56,2.79,17.88,17.88,0,0,0-5.85,8A32.64,32.64,0,0,0,1032.36,387.65Z" transform="translate(-286 -291.91)"/><path class="cls-2" d="M326.28,326.83a1,1,0,0,0,.51,1.13,5.19,5.19,0,0,1,1.4,1.05,5.81,5.81,0,0,1,1.05,1.58,5.73,5.73,0,0,1,.41,3.54,1,1,0,0,0,.51,1.13,5.26,5.26,0,0,1,1.35,1,6,6,0,0,1,1,1.54,5.82,5.82,0,0,1,.45,3.3,1,1,0,0,0,.46,1,5.14,5.14,0,0,1,1.23,1,5.9,5.9,0,0,1,.92,1.44,5.65,5.65,0,0,1,.42,3.49,1,1,0,0,0,.45,1,6.94,6.94,0,0,1,2.53,3l11.91,26.35c1.45,3.2,1.47,9.18-1.23,10.49l-24.43,11.9c-2.7,1.32-7.11-2.53-8.56-5.73l-11.9-26.34a7.2,7.2,0,0,1-.6-3.93,1,1,0,0,0-.48-1,5,5,0,0,1-1.33-1.05,5.57,5.57,0,0,1-1-1.51,5.74,5.74,0,0,1-.46-3.3,1,1,0,0,0-.46-1,5.34,5.34,0,0,1-1.22-1,5.81,5.81,0,0,1-.93-1.45,5.68,5.68,0,0,1-.4-3.53,1.06,1.06,0,0,0-.51-1.13,5.14,5.14,0,0,1-1.35-1,5.87,5.87,0,0,1-1-1.54,5.71,5.71,0,0,1-.39-3.65,1,1,0,0,0-.51-1.13,5.37,5.37,0,0,1-2.37-2.47l-.08-.16-4.15-9.17a12.4,12.4,0,0,1-1.09-4.83,11.64,11.64,0,0,1,.18-2.21l3-16.45-.36.17a.65.65,0,0,1-.85-.38l-2.34-5.17a.7.7,0,0,1,.26-.92L300.45,294a.66.66,0,0,1,.85.39l2.33,5.17a.69.69,0,0,1-.25.92l-.36.17,14.1,8.12a10.33,10.33,0,0,1,1.75,1.28,11.69,11.69,0,0,1,2.88,3.95l4.14,9.17a1.22,1.22,0,0,1,.07.17A5.71,5.71,0,0,1,326.28,326.83Z" transform="translate(-286 -291.91)"/><path class="cls-3" d="M321.75,314l4.14,9.17a1.22,1.22,0,0,1,.07.17L291.76,340l-.08-.16-4.15-9.17a12.4,12.4,0,0,1-1.09-4.83l32.43-15.79A11.69,11.69,0,0,1,321.75,314Z" transform="translate(-286 -291.91)"/><path class="cls-4" d="M338.05,352a6.61,6.61,0,0,0-2.41-2.85,1,1,0,0,1-.44-1,5.39,5.39,0,0,0-.39-3.32,5.48,5.48,0,0,0-.89-1.37,4.65,4.65,0,0,0-1.16-1,1,1,0,0,1-.44-1,5.47,5.47,0,0,0,.05-1.22,26.76,26.76,0,0,0-9-2c-7.07-.32-10,3.08-15.68,1.53a11.7,11.7,0,0,0-5-.68c-2,.24-2.82,1-4.95,1.36a12.14,12.14,0,0,1-4.86-.17.93.93,0,0,0,.07.15,5.1,5.1,0,0,0,2.27,2.36,1,1,0,0,1,.48,1.08,5.36,5.36,0,0,0,.37,3.47,5.57,5.57,0,0,0,1,1.47,4.83,4.83,0,0,0,1.29,1,1,1,0,0,1,.48,1.07,5.43,5.43,0,0,0,.39,3.38,5.19,5.19,0,0,0,.88,1.37,4.88,4.88,0,0,0,1.17,1,1,1,0,0,1,.44,1,5.43,5.43,0,0,0,.43,3.14,5.28,5.28,0,0,0,.95,1.45,4.71,4.71,0,0,0,1.26,1,1,1,0,0,1,.46,1,6.91,6.91,0,0,0,.57,3.75L316.78,393c1.38,3.06,5.58,6.72,8.16,5.47l23.29-11.34c2.57-1.26,2.55-7,1.17-10Z" transform="translate(-286 -291.91)"/><text class="cls-5" transform="matrix(0.88, -0.43, 0.41, 0.91, 9.48, 43.24)">MKU</text><path class="cls-6" d="M290.23,310.86a8.85,8.85,0,0,1,.5,2.93c0,.48,0,.94,0,1.41s-.12.92-.18,1.39a14.56,14.56,0,0,1-.78,2.7,9.09,9.09,0,0,1-1.48,2.57l-.15,0c.27-1.84.62-3.67.92-5.51s.67-3.67,1.07-5.49Z" transform="translate(-286 -291.91)"/><path class="cls-6" d="M304.22,300.1c-2.5,1.35-5.06,2.56-7.59,3.85s-5.11,2.47-7.72,3.6v0l15.31-7.45Z" transform="translate(-286 -291.91)"/><text class="cls-7" transform="matrix(0.88, -0.43, 0.41, 0.91, 8.61, 42.61)">MKU</text><path class="cls-8" d="M349.67,416.31c-1.52,1.29-2.63,1.23-15.19,1-15.62-.26-19.74-.25-25.1-3.07a18.81,18.81,0,0,1-7.27-6.12c-.46-.7-5.12-7.89-2-13.62a9.34,9.34,0,0,1,3.3-3.4,26.19,26.19,0,0,1-6.93-5.44,18.09,18.09,0,0,1-4.63-7.49,16.27,16.27,0,0,1,0-8.85,12.66,12.66,0,0,1,3-5.44c4.59-4.65,12.86-3.39,17.83-1a20.08,20.08,0,0,1,6.6,5.11,11.86,11.86,0,0,1,4.3-5.79c4.45-3,9.78-1.37,10.9-1,10.5,3.27,14.13,19.67,16.18,28.93S355.38,411.47,349.67,416.31Z" transform="translate(-286 -291.91)"/><path class="cls-9" d="M319.61,367c4.67,7.18,7.65,11.9,9.25,14.63a48.41,48.41,0,0,0,3.63,5.42c.59.77,1.25,1.58,2,2.41,2.63,3,3.94,4.47,5.94,5.44,1.52.74,2.78,1,4,2.39A9.08,9.08,0,0,1,346,401a20.76,20.76,0,0,1,.66,5.1c.05,1.31,0,1.2,0,3.41.06,3.61.33,4.27.66,4.76A4.34,4.34,0,0,0,350,416a12.1,12.1,0,0,1-1.32-2.72,12.86,12.86,0,0,1-.66-3.4,26,26,0,0,1,0-3.06,34.09,34.09,0,0,0-.33-4.09,19.69,19.69,0,0,0-2.32-6.8,15.9,15.9,0,0,0-4.62-4.77c-3.27-2.47-5.7-5.73-10.57-12.25a93,93,0,0,1-8.91-14.63C320.71,365.15,320.16,366.06,319.61,367Z" transform="translate(-286 -291.91)"/><path class="cls-10" d="M375.73,417.11a6.94,6.94,0,0,1-2.88.13l.1-.19a25.36,25.36,0,0,1-4.06-.72c-2.09-.5-6.56-1.57-7.24-4.37-.26-1.06.1-2.07.8-4a17.78,17.78,0,0,1,2.21-4.19,42.17,42.17,0,0,0,3.77-7.93,50.06,50.06,0,0,0,2.32-10.13c.29-2,.44-3.61.55-4.85.16-1.81.32-4.18.39-7.14.19-8.45-.72-7.86-.08-11.47a19.43,19.43,0,0,1,3.66-8.61l.22-.28c1.13-1.4,6.32-7.4,12.42-6.69A9.79,9.79,0,0,1,393,349a27.32,27.32,0,0,1,3.47-5.52,23.25,23.25,0,0,0-2.54,3.45,18,18,0,0,0-3.42-2,16.52,16.52,0,0,0-10.24-1.61,15.54,15.54,0,0,0-8.27,4.85c-2.65,2.81-3.5,5.6-4.85,10.2a66,66,0,0,0-2.38,16.4A83.07,83.07,0,0,0,365,386c.17,2,.43,2.61.67,5.1.47,5,.68,7.48-.39,9.81-1,2.1-1.77,1.83-3.06,4.51-1,2.07-1.95,4-1.38,6,.93,3.21,5.33,4.47,8.88,5.49a11.48,11.48,0,0,0,4.81.59,9.21,9.21,0,0,0,3.09-1c-.29.11-.59.2-.88.28A5.91,5.91,0,0,1,375.73,417.11Z" transform="translate(-286 -291.91)"/><path class="cls-10" d="M410,335.67a11.49,11.49,0,0,0-4.22.87A15.32,15.32,0,0,1,410,335.67Z" transform="translate(-286 -291.91)"/><path class="cls-10" d="M438.33,367.75c-.94-3.94-5.58-6.42-8-7.46a28.71,28.71,0,0,1,.09,6.51,31,31,0,0,1-5.3,14.11,37.61,37.61,0,0,1-11.91,11.37c-5,3-6.87,2.48-15,6.71,1.54-.54,4.58-1.6,8.5-3.37.79-.36,3.62-1.61,8.19-4.12,5.06-2.78,7.75-4.25,10.11-5.88C427.64,383.78,440.12,375.2,438.33,367.75Z" transform="translate(-286 -291.91)"/><path class="cls-9" d="M405.74,336.54a19.65,19.65,0,0,0-3.3,1.5A20.13,20.13,0,0,0,396.9,343c-.15.17-.29.34-.43.52.46-.52,1-1.05,1.53-1.58A25.84,25.84,0,0,1,405.74,336.54Z" transform="translate(-286 -291.91)"/><path class="cls-9" d="M420.24,344.82v0h.05c-.56-2.78-1.88-6.41-5.38-8.2a9.89,9.89,0,0,0-5-1,8.86,8.86,0,0,1,2.1.25C417.67,337.25,419.84,343.56,420.24,344.82Z" transform="translate(-286 -291.91)"/><path class="cls-9" d="M380,414.65a10.86,10.86,0,0,1-2.43,1.81c.23-.09.46-.19.68-.3,2.83-1.37,2.77-3.2,6.71-7.72.08-.09.15-.18.23-.26l-.38.38A68,68,0,0,0,380,414.65Z" transform="translate(-286 -291.91)"/><path class="cls-9" d="M393,349a9.79,9.79,0,0,0-5.09-2.29c-6.1-.71-11.29,5.29-12.42,6.69l-.22.28a19.43,19.43,0,0,0-3.66,8.61c-.64,3.61.27,3,.08,11.47-.07,3-.23,5.33-.39,7.14-.11,1.24-.26,2.87-.55,4.85a50.06,50.06,0,0,1-2.32,10.13,42.17,42.17,0,0,1-3.77,7.93,17.78,17.78,0,0,0-2.21,4.19c-.7,1.89-1.06,2.9-.8,4,.68,2.8,5.15,3.87,7.24,4.37a25.36,25.36,0,0,0,4.06.72c.71-1.29,1.7-3.11,2.8-5.34,2.61-5.27,3.92-7.9,4.74-10.88a31.1,31.1,0,0,0,.28-14.83c-1-4.33-2.55-6.44-2.6-11.4a19.38,19.38,0,0,1,1.25-7.86c2.39-6,8-10.36,12.52-11a10,10,0,0,1,4.2.18,21.31,21.31,0,0,1,3.71,1.64c.28-.53.7-1.31,1.25-2.23a30.23,30.23,0,0,1,4.74-6.59,16.91,16.91,0,0,1,10-4.27,15.25,15.25,0,0,1,4.41.34v0c-.4-1.26-2.57-7.57-8.18-8.9a8.86,8.86,0,0,0-2.1-.25,15.32,15.32,0,0,0-4.22.87A25.84,25.84,0,0,0,398,341.9c-.57.53-1.07,1.06-1.53,1.58A27.32,27.32,0,0,0,393,349Z" transform="translate(-286 -291.91)"/><path class="cls-9" d="M384.85,408.56a74,74,0,0,0-5.07,5.61,8.48,8.48,0,0,1-3,2.57c.29-.08.59-.17.88-.28a10.86,10.86,0,0,0,2.43-1.81A68,68,0,0,1,384.85,408.56Z" transform="translate(-286 -291.91)"/><path class="cls-8" d="M390.42,403.25a44.7,44.7,0,0,0-5.19,4.93c2-2,3.79-3.58,4.81-4.41,1.67-1.37,3.53-2.36,7.26-4.33l.85-.45-.7.25A25.24,25.24,0,0,0,390.42,403.25Z" transform="translate(-286 -291.91)"/><path class="cls-8" d="M373,417.05l-.1.19a6.94,6.94,0,0,0,2.88-.13,5.91,5.91,0,0,0,1-.37A10.89,10.89,0,0,1,373,417.05Z" transform="translate(-286 -291.91)"/><path class="cls-8" d="M420.78,350.7a17.2,17.2,0,0,0-.1-3.17c-.06-.57-.15-1.35-.31-2.25A14.23,14.23,0,0,1,420.78,350.7Z" transform="translate(-286 -291.91)"/><path class="cls-9" d="M413.17,392.28c-5,3-6.87,2.48-15,6.71l-.7.25a25.24,25.24,0,0,0-7,4l1.66-1.38a86.67,86.67,0,0,1,11.2-7.95c5.62-3.29,5.74-2.41,9.54-4.89,3.55-2.32,8.15-5.32,10.55-10.8.58-1.31,4-9.6-.63-14.86a11.17,11.17,0,0,0-5.61-3.24c.42-.79.78-1.47,1.09-2.07a27,27,0,0,1,3.57.1,54.63,54.63,0,0,1,7.06,1.59,13.93,13.93,0,0,1,1.44.54,28.71,28.71,0,0,1,.09,6.51,31,31,0,0,1-5.3,14.11A37.61,37.61,0,0,1,413.17,392.28Z" transform="translate(-286 -291.91)"/><path class="cls-8" d="M420.37,345.28c0-.14-.08-.28-.13-.43h.05C420.32,345,420.35,345.15,420.37,345.28Z" transform="translate(-286 -291.91)"/><path class="cls-8" d="M384.85,408.56l.38-.38a44.7,44.7,0,0,1,5.19-4.93A43.09,43.09,0,0,0,384.85,408.56Z" transform="translate(-286 -291.91)"/><path class="cls-8" d="M418.22,358.06h-.16a17.34,17.34,0,0,0,2.72-7.36,13.8,13.8,0,0,1-.66,3.36A38,38,0,0,1,418.22,358.06Z" transform="translate(-286 -291.91)"/><path class="cls-8" d="M420.78,350.7a17.2,17.2,0,0,0-.1-3.17c-.06-.57-.15-1.35-.31-2.25,0-.14-.08-.29-.13-.43a15.25,15.25,0,0,0-4.41-.34,16.91,16.91,0,0,0-10,4.27,30.23,30.23,0,0,0-4.74,6.59c-.55.92-1,1.7-1.25,2.23a21.31,21.31,0,0,0-3.71-1.64,10,10,0,0,0-4.2-.18c-4.52.6-10.13,4.94-12.52,11a19.38,19.38,0,0,0-1.25,7.86c.05,5,1.61,7.07,2.6,11.4a31.1,31.1,0,0,1-.28,14.83c-.82,3-2.13,5.61-4.74,10.88-1.1,2.23-2.09,4.05-2.8,5.34a10.89,10.89,0,0,0,3.78-.31,8.48,8.48,0,0,0,3-2.57,74,74,0,0,1,5.07-5.61,43.09,43.09,0,0,1,5.57-5.31l1.66-1.38a86.67,86.67,0,0,1,11.2-7.95c5.62-3.29,5.74-2.41,9.54-4.89,3.55-2.32,8.15-5.32,10.55-10.8.58-1.31,4-9.6-.63-14.86a11.13,11.13,0,0,0-5.61-3.24c.42-.79.78-1.47,1.09-2.07h-.16A17.49,17.49,0,0,0,420.78,350.7Z" transform="translate(-286 -291.91)"/><path class="cls-11" d="M380.71,363.56s.71,4.59,2.22,13.55c1.91,11.31,3,16.2,3,16.2a62.08,62.08,0,0,1-5-17.26A60.17,60.17,0,0,1,380.71,363.56Z" transform="translate(-286 -291.91)"/><path class="cls-11" d="M395.34,379.75h0c-1.37-7.9-.55-13.91.93-24.15a24.32,24.32,0,0,1,1.43-5.63,23.53,23.53,0,0,1,1.77-3.6c-.85,4.79-1.62,9.78-2.28,15C396.35,367.73,395.75,373.88,395.34,379.75Z" transform="translate(-286 -291.91)"/><path class="cls-11" d="M412.81,347.1c-.37-.11-1.83,4.6-6.11,13.54-.59,1.22-3.27,6.79-7.32,13.92a148.29,148.29,0,0,1-9,14.55c-5.08,7-9.46,11.53-9.33,11.64s5.77-5.46,11.83-12.93A118.36,118.36,0,0,0,402.91,374a86.54,86.54,0,0,0,4.9-9.86C411.46,355.47,413.3,347.24,412.81,347.1Z" transform="translate(-286 -291.91)"/><path class="cls-11" d="M392.85,387.82a38.09,38.09,0,0,0,9.72-6,56.53,56.53,0,0,0,5.13-5.2c3.35-3.66,7.19-8.26,6.95-8.46s-1.68,1.45-6.78,6.17c-3.47,3.21-6.18,5.63-7.73,7C398.16,383.16,395.7,385.34,392.85,387.82Z" transform="translate(-286 -291.91)"/><path class="cls-11" d="M377.49,404.64A153.4,153.4,0,0,0,397,393.39c10-6.77,17.33-13.47,17.6-13.19s-4.67,4.79-7,6.91a110.76,110.76,0,0,1-13,10.34,50.07,50.07,0,0,1-5.61,3.36A43,43,0,0,1,377.49,404.64Z" transform="translate(-286 -291.91)"/><path class="cls-8" d="M374.8,377.25a64.47,64.47,0,0,1,2.09,11.65c.73,8.48-.42,15.28,0,15.32s.87-2.67,1.14-5.24a33.78,33.78,0,0,0-.45-9.32A98,98,0,0,0,374.8,377.25Z" transform="translate(-286 -291.91)"/><path class="cls-8" d="M370.06,398c.18-.06,1.72,2.48,2.21,5.72.66,4.46-1,8.24-1.19,8.21s.92-3.54.22-8.57C370.85,400.2,369.89,398.1,370.06,398Z" transform="translate(-286 -291.91)"/><path class="cls-8" d="M369.16,415.76a37.62,37.62,0,0,1,10.65-14.64c.06.06-1.39,1.57-3.77,4.63-.31.39-1.29,1.65-2.38,3.18C370.64,413.12,369.26,415.81,369.16,415.76Z" transform="translate(-286 -291.91)"/><path class="cls-10" d="M371.79,413.59a8.48,8.48,0,0,1-3,2.38,2.7,2.7,0,0,0,0-.28,34,34,0,0,1-4.91,2.33c-2.64,1.05-8.27,3.31-11.23.68-1.13-1-1.54-2.44-2.31-5.11a25.42,25.42,0,0,1-1-6.46A61.91,61.91,0,0,0,347,395.21a74,74,0,0,0-5.61-13.27c-1.27-2.46-2.42-4.42-3.3-5.91-1.27-2.17-3-5-5.29-8.38-6.55-9.72-7.05-8.35-9.24-12.93a27.85,27.85,0,0,1-3-12.59c0-.11,0-.28,0-.49.08-2.46.82-13.28,7.91-17.21a12.36,12.36,0,0,1,7.27-1.36,38.47,38.47,0,0,1-.71-8.95,33.7,33.7,0,0,0,.05,5.88,24,24,0,0,0-5.29.34c-2.31.42-7.92,1.41-12.22,6.13a20.61,20.61,0,0,0-4.95,11.91c-.6,5.24.72,9.06,3,15.32a95.67,95.67,0,0,0,10.57,20.41,119.66,119.66,0,0,0,9.25,12.6c1.74,2.09,2.54,2.63,4.78,5.27,4.47,5.24,6.71,7.93,7.44,11.4.64,3.13-.43,3.45.33,7.49.58,3.11,1.13,6.05,3.3,7.83,3.55,2.9,9.26.92,13.87-.68,3.76-1.31,5.21-2.67,5.61-3.07a11.68,11.68,0,0,0,2.48-3.56,10.69,10.69,0,0,1-.71,1A7.84,7.84,0,0,1,371.79,413.59Z" transform="translate(-286 -291.91)"/><path class="cls-10" d="M343.27,294.81a14.54,14.54,0,0,0-3.82,4.26A19.25,19.25,0,0,1,343.27,294.81Z" transform="translate(-286 -291.91)"/><path class="cls-10" d="M399.2,309.11c-4.15-3.72-11.09-2.93-14.55-2.2a41.57,41.57,0,0,1,5.31,7.31,44.7,44.7,0,0,1,5.61,20.08,51.85,51.85,0,0,1-3.63,22.12c-2.94,7.22-5.35,8.14-10.68,19.26,1.22-1.81,3.61-5.37,6.39-10.41.56-1,2.57-4.64,5.45-11,3.19-7.07,4.88-10.83,6.1-14.5C400.6,335.56,407.07,316.16,399.2,309.11Z" transform="translate(-286 -291.91)"/><path class="cls-9" d="M339.45,299.07a26.46,26.46,0,0,0-2.33,4.26,27.5,27.5,0,0,0-2,9.87c0,.31,0,.62-.05.92.08-.93.2-1.92.38-3C335.92,308.56,336.84,303.32,339.45,299.07Z" transform="translate(-286 -291.91)"/><path class="cls-9" d="M361.56,297.2l0,0,.06,0c-2.82-2.71-7.13-5.79-12.3-5.1a12.21,12.21,0,0,0-6.07,2.71,11.67,11.67,0,0,1,2.43-1.35C352.76,290.62,360.12,296.08,361.56,297.2Z" transform="translate(-286 -291.91)"/><path class="cls-9" d="M374.44,407.47a14.82,14.82,0,0,1-1.16,3.92c.17-.27.34-.56.49-.86,1.93-3.75.41-5.77,1-13.95l0-.48c0,.24-.07.48-.1.73A96.6,96.6,0,0,0,374.44,407.47Z" transform="translate(-286 -291.91)"/><path class="cls-9" d="M335.8,323.07a12.36,12.36,0,0,0-7.27,1.36c-7.09,3.93-7.83,14.75-7.91,17.21,0,.21,0,.38,0,.49a27.85,27.85,0,0,0,3,12.59c2.19,4.58,2.69,3.21,9.24,12.93,2.3,3.4,4,6.21,5.29,8.38.88,1.49,2,3.45,3.3,5.91A74,74,0,0,1,347,395.21a61.91,61.91,0,0,1,2.32,11.92,25.42,25.42,0,0,0,1,6.46c.77,2.67,1.18,4.1,2.31,5.11,3,2.63,8.59.37,11.23-.68a34,34,0,0,0,4.91-2.33c-.27-2-.68-4.85-1.28-8.22-1.42-8-2.14-12-3.63-16a45.19,45.19,0,0,0-11.56-17c-4.52-4.14-7.86-5.32-11.89-10.89a28.42,28.42,0,0,1-4.95-9.87c-2.25-8.67.26-17.95,4.62-22.12a12.29,12.29,0,0,1,4.62-3.07,26.69,26.69,0,0,1,5.29-1c-.13-.82-.3-2-.46-3.49-.39-3.85-.78-7.65-.2-11.14a22,22,0,0,1,7.26-12.59,19.09,19.09,0,0,1,5-3l0,0c-1.44-1.12-8.8-6.58-15.86-3.74a11.67,11.67,0,0,0-2.43,1.35,19.25,19.25,0,0,0-3.82,4.26c-2.61,4.25-3.53,9.49-4,12.09-.18,1-.3,2-.38,3A38.47,38.47,0,0,0,335.8,323.07Z" transform="translate(-286 -291.91)"/><path class="cls-9" d="M374.7,396.83a101.56,101.56,0,0,0-.93,10.3,11.7,11.7,0,0,1-1.2,5.27,10.69,10.69,0,0,0,.71-1,14.82,14.82,0,0,0,1.16-3.92A96.6,96.6,0,0,1,374.7,396.83Z" transform="translate(-286 -291.91)"/><path class="cls-8" d="M376.41,386.5a61.87,61.87,0,0,0-1.61,9.6c.55-3.81,1.2-7,1.62-8.71.69-2.85,1.89-5.42,4.29-10.55l.55-1.16-.55.82A33.68,33.68,0,0,0,376.41,386.5Z" transform="translate(-286 -291.91)"/><path class="cls-8" d="M368.78,415.69a2.7,2.7,0,0,1,0,.28,8.48,8.48,0,0,0,3-2.38,7.84,7.84,0,0,0,.78-1.19A14,14,0,0,1,368.78,415.69Z" transform="translate(-286 -291.91)"/><path class="cls-8" d="M366.83,303.44a24.89,24.89,0,0,0-2.63-3.51c-.53-.61-1.25-1.42-2.14-2.31A20.39,20.39,0,0,1,366.83,303.44Z" transform="translate(-286 -291.91)"/><path class="cls-9" d="M391.94,356.42c-2.94,7.22-5.35,8.14-10.68,19.26l-.55.82a33.68,33.68,0,0,0-4.3,10c.2-.88.43-1.83.67-2.86A116.39,116.39,0,0,1,382.69,366c3.36-8.09,4.2-7.18,6.28-12.93,1.94-5.39,4.45-12.35,2.64-20.42-.43-1.93-3.38-14-12.55-16.34a14.35,14.35,0,0,0-8.59.68c-.18-1.21-.34-2.26-.5-3.19a36.72,36.72,0,0,1,3.9-2.65,69.35,69.35,0,0,1,8.82-3.69c.28-.09,1-.29,2-.5a41.4,41.4,0,0,1,5.3,7.31,44.7,44.7,0,0,1,5.61,20.08A51.85,51.85,0,0,1,391.94,356.42Z" transform="translate(-286 -291.91)"/><path class="cls-8" d="M362.06,297.62l-.48-.39.06,0Q361.87,297.41,362.06,297.62Z" transform="translate(-286 -291.91)"/><path class="cls-8" d="M374.7,396.83c0-.25.07-.49.1-.73a61.87,61.87,0,0,1,1.61-9.6A59.64,59.64,0,0,0,374.7,396.83Z" transform="translate(-286 -291.91)"/><path class="cls-8" d="M370,313.75l-.16.13a25.08,25.08,0,0,0-3-10.44,20.37,20.37,0,0,1,2,4.31A53.48,53.48,0,0,1,370,313.75Z" transform="translate(-286 -291.91)"/><path class="cls-8" d="M366.83,303.44a24.13,24.13,0,0,0-2.63-3.51c-.53-.61-1.25-1.42-2.13-2.31l-.49-.39a19.09,19.09,0,0,0-5,3,22,22,0,0,0-7.26,12.59c-.58,3.49-.19,7.29.2,11.14.16,1.46.33,2.67.46,3.49a26.69,26.69,0,0,0-5.29,1,12.29,12.29,0,0,0-4.62,3.07c-4.36,4.17-6.87,13.45-4.62,22.12a28.42,28.42,0,0,0,4.95,9.87c4,5.57,7.37,6.75,11.89,10.89a45.19,45.19,0,0,1,11.56,17c1.49,4,2.21,8,3.63,16,.6,3.37,1,6.2,1.28,8.22a14,14,0,0,0,3.79-3.29,11.7,11.7,0,0,0,1.2-5.27,101.56,101.56,0,0,1,.93-10.3,59.64,59.64,0,0,1,1.71-10.33c.2-.88.42-1.83.67-2.86A116,116,0,0,1,382.69,366c3.36-8.09,4.2-7.18,6.28-12.93,1.94-5.39,4.45-12.36,2.64-20.42-.44-1.93-3.38-14-12.55-16.34a14.35,14.35,0,0,0-8.59.68c-.18-1.21-.35-2.27-.5-3.19l-.16.13A25,25,0,0,0,366.83,303.44Z" transform="translate(-286 -291.91)"/><path class="cls-11" d="M334.31,349.1s4.43,4.64,13.21,13.61c11.07,11.32,16.18,16,16.18,16a88.76,88.76,0,0,1-19.15-15.66A87.5,87.5,0,0,1,334.31,349.1Z" transform="translate(-286 -291.91)"/><path class="cls-11" d="M362.88,356.08h0c-7.78-7.89-11.71-15.32-18.31-28.07a34.84,34.84,0,0,1-3-7.48,35.28,35.28,0,0,1-1-5.45q4.4,9.12,9.53,18.72C354.35,341.67,358.63,349.1,362.88,356.08Z" transform="translate(-286 -291.91)"/><path class="cls-11" d="M355.45,305.54c-.49.16,1.72,6.63,4.29,20.08.35,1.84,1.93,10.22,3.3,21.44a206.54,206.54,0,0,1,2,23.48c.2,11.89-.88,20.4-.66,20.42s1.81-10.65,2.31-23.82c.54-14-.08-21.25-.33-23.48a121.15,121.15,0,0,0-2.64-15C360.68,316.07,356.08,305.33,355.45,305.54Z" transform="translate(-286 -291.91)"/><path class="cls-11" d="M366.67,367.14a50.73,50.73,0,0,0,5.62-14.29,76.65,76.65,0,0,0,1.32-9.87c.65-6.74,1.09-14.93.66-15-.26,0-.63,3-2.31,12.25-1.14,6.33-2.1,11.18-2.64,14C368.62,357.75,367.74,362.12,366.67,367.14Z" transform="translate(-286 -291.91)"/><path class="cls-11" d="M363.7,398.11a205.06,205.06,0,0,0,11.89-27.91c5.26-15.41,7.74-28.7,8.26-28.59s-1.17,9-2,13.28a149.39,149.39,0,0,1-5.62,21.78,66.38,66.38,0,0,1-3.3,8.16A55.51,55.51,0,0,1,363.7,398.11Z" transform="translate(-286 -291.91)"/><path class="cls-8" d="M338.93,369.18a90.6,90.6,0,0,1,11.56,11.57c7.55,9,11.76,17.63,12.22,17.36.29-.17-1.2-3.69-3-6.81a49.19,49.19,0,0,0-7.93-10.21A141.31,141.31,0,0,0,338.93,369.18Z" transform="translate(-286 -291.91)"/><path class="cls-8" d="M350.49,396.41c.15-.22,3.82,1.46,6.94,4.76,4.27,4.53,5.55,10.07,5.28,10.21s-1.84-4.72-6.6-9.87C353.07,398.23,350.36,396.59,350.49,396.41Z" transform="translate(-286 -291.91)"/><path class="cls-8" d="M363.7,417.16c-.17,0-1.72-6-1.65-13.61a43.73,43.73,0,0,1,1.32-11.23c.11,0-.23,2.86-.33,8.17,0,.67-.05,2.87,0,5.44C363.18,413,363.85,417.14,363.7,417.16Z" transform="translate(-286 -291.91)"/><path class="cls-11" d="M333.48,407.81c-.83-.48-1.63-1-2.42-1.46,1-.67,1.1-4.24,1.1-4.67a14.52,14.52,0,0,0-1-5.44,10.69,10.69,0,0,1,.33,4.08c-.19,1.69-.34,3.07-1.32,4.08-.26.28-.61.55-.65.9a18.64,18.64,0,0,1-4.3-4.3c-1.39-1.93-1-2.14-3-5.79-.48-.88-.95-1.71-1.43-2.49.62-.63,1.67-3.75,2.09-7.37.27-2.34.22-4.4,0-4.43s-.5,3.1-2,5.79a16.55,16.55,0,0,1-1.65,2.72l-.34.34a48.31,48.31,0,0,0-4.94-6.13l-.87-.87c.89-.72,1.69-3.37,1.86-5.59a12.92,12.92,0,0,0-1.42-7.11,11.59,11.59,0,0,1,.76,5.07c-.13,1.39-.4,4.45-2,5.78a2.46,2.46,0,0,0-.55.59c-1.35-1.23-2.39-2-2.75-2.29-5.18-3.89-10.4-5.79-10.57-5.45s3.94,2.21,9.33,6.53c-1.67.41-2.75.77-3.39,1a18,18,0,0,1-4.95.68,12.31,12.31,0,0,1-6.28-2,17.71,17.71,0,0,0,2.12,1.36,16.5,16.5,0,0,0,4.49,1.7c3.38.67,6.92-.95,8.71-2.09,1.13.93,2.31,2,3.51,3.11a38.62,38.62,0,0,1,5.61,6.47,28.84,28.84,0,0,1,3.11,6c-1,.28-2.34.81-4.1,1.17a23.5,23.5,0,0,1-5.61.34c-3.33-.08-5.47-.65-5.5-.5a14.81,14.81,0,0,0,4.18,1.18l.19,0a36.91,36.91,0,0,0,7.73.31,25.56,25.56,0,0,0,4-.5c.08.17.16.33.26.5,3.16,5.84,8.3,9.08,13.22,11.72l-.34.19a24.73,24.73,0,0,1-3.64,1c-1.53.38-2.29.56-3,.68-1.91.33-3,.28-3,.34a19.22,19.22,0,0,0,5.61-.34l.82-.19a17.91,17.91,0,0,0,2.82-.83c.43-.18.86-.4,1.2-.58l1.77.92c5.9,3.07,11.14,4.32,11.23,4.08S342.56,413.05,333.48,407.81Z" transform="translate(-286 -291.91)"/></svg>