<svg xmlns="http://www.w3.org/2000/svg" viewBox="0 0 296.97 296.97"><defs><style>.cls-1{fill:#f2f2f2;}.cls-2{fill:#1b3133;}.cls-3,.cls-8{fill:#b3b3b3;}.cls-4{fill:#e6e6e6;}.cls-5{fill:#ccc;}.cls-6,.cls-8{font-size:21.22px;font-family:ArialRoundedMTBold, Arial Rounded MT Bold;}.cls-6{fill:#1a1a1a;}.cls-7{fill:#fff;}.cls-9{fill:#59c15d;}.cls-10{fill:#4eaa45;}.cls-11{fill:#3d8936;}.cls-12{fill:#f8f2a9;}</style></defs><g id="Layer_2" data-name="Layer 2"><circle class="cls-1" cx="148.48" cy="148.48" r="148.48"/><path class="cls-2" d="M414.69,396.41l-4.06-16.75V397.8a3.39,3.39,0,0,1-.65,2.26,2.3,2.3,0,0,1-3.41,0,3.33,3.33,0,0,1-.66-2.27V377a2.64,2.64,0,0,1,.87-2.32,4,4,0,0,1,2.33-.6h1.59a6.13,6.13,0,0,1,2.08.26,1.82,1.82,0,0,1,1,1,16,16,0,0,1,.71,2.28l3.68,14.4,3.68-14.4a14.78,14.78,0,0,1,.71-2.28,1.77,1.77,0,0,1,1-1,6.2,6.2,0,0,1,2.09-.26h1.59a4,4,0,0,1,2.33.6,2.66,2.66,0,0,1,.86,2.32V397.8a3.33,3.33,0,0,1-.65,2.26,2.18,2.18,0,0,1-1.73.76,2.15,2.15,0,0,1-1.68-.76,3.33,3.33,0,0,1-.65-2.26V379.66l-4.06,16.75c-.27,1.08-.49,1.88-.65,2.39a3.35,3.35,0,0,1-.93,1.39,2.62,2.62,0,0,1-1.86.63,2.71,2.71,0,0,1-1.52-.41,2.81,2.81,0,0,1-1-1,5.91,5.91,0,0,1-.54-1.39C415,397.48,414.83,397,414.69,396.41Z" transform="translate(-343.01 -137.03)"/><path class="cls-2" d="M441.13,376.86v9.22l10.07-10.9a10.21,10.21,0,0,1,1.24-1.17,2.23,2.23,0,0,1,1.35-.37,2.42,2.42,0,0,1,1.79.67,2.21,2.21,0,0,1,.69,1.64,3.3,3.3,0,0,1-1.16,2.31l-6.24,6.13,7.19,10.69A15.13,15.13,0,0,1,457.2,397a4,4,0,0,1,.38,1.63,2,2,0,0,1-.67,1.52,2.47,2.47,0,0,1-1.8.65,3,3,0,0,1-1.75-.48,4.09,4.09,0,0,1-1.14-1.26l-.83-1.44L445.33,388l-4.2,4.18v5.43a3.57,3.57,0,0,1-.72,2.45,2.51,2.51,0,0,1-3.13.44,2.41,2.41,0,0,1-.93-1,3.2,3.2,0,0,1-.3-1.17c0-.44-.05-1.08-.05-1.91V376.86a3.71,3.71,0,0,1,.68-2.42,2.57,2.57,0,0,1,3.73,0A3.52,3.52,0,0,1,441.13,376.86Z" transform="translate(-343.01 -137.03)"/><path class="cls-2" d="M462.19,389.5V376.86a3.6,3.6,0,0,1,.7-2.42,2.34,2.34,0,0,1,1.84-.8,2.38,2.38,0,0,1,1.89.8,3.6,3.6,0,0,1,.7,2.42v12.93a12,12,0,0,0,.48,3.68,4.21,4.21,0,0,0,1.68,2.3,6.07,6.07,0,0,0,3.39.81c2,0,3.42-.55,4.25-1.65a8.38,8.38,0,0,0,1.24-5v-13a3.62,3.62,0,0,1,.69-2.42,2.3,2.3,0,0,1,1.85-.8,2.39,2.39,0,0,1,1.88.8,3.57,3.57,0,0,1,.71,2.42V389.5a19.24,19.24,0,0,1-.58,5.15,8,8,0,0,1-2.18,3.62,8.52,8.52,0,0,1-3.21,1.94,13.83,13.83,0,0,1-4.29.61,17,17,0,0,1-5-.66,8,8,0,0,1-3.43-2,8.32,8.32,0,0,1-2-3.52A18.68,18.68,0,0,1,462.19,389.5Z" transform="translate(-343.01 -137.03)"/><path class="cls-2" d="M513,378.19H502.91v6.72h8.45a2.48,2.48,0,0,1,1.75.55,1.91,1.91,0,0,1,.58,1.46,1.83,1.83,0,0,1-.59,1.45,2.48,2.48,0,0,1-1.74.54h-8.45v8.66a3.57,3.57,0,0,1-.72,2.45,2.52,2.52,0,0,1-3.69,0,3.57,3.57,0,0,1-.72-2.44V377.35a4.51,4.51,0,0,1,.33-1.87,2.05,2.05,0,0,1,1-1.06,4.16,4.16,0,0,1,1.78-.33H513a2.54,2.54,0,0,1,1.82.56,1.94,1.94,0,0,1,.6,1.48,2,2,0,0,1-.6,1.5A2.59,2.59,0,0,1,513,378.19Z" transform="translate(-343.01 -137.03)"/><path class="cls-2" d="M535.24,390.87a11.91,11.91,0,0,1-.66,4,8.94,8.94,0,0,1-1.9,3.17,8.3,8.3,0,0,1-3,2,10.21,10.21,0,0,1-3.89.71,9.82,9.82,0,0,1-3.85-.72,8.64,8.64,0,0,1-3-2.05,9.17,9.17,0,0,1-1.9-3.16,11.94,11.94,0,0,1-.64-4,12.23,12.23,0,0,1,.65-4.07,8.94,8.94,0,0,1,1.89-3.16,8.29,8.29,0,0,1,3-2,10.19,10.19,0,0,1,3.85-.7,10.32,10.32,0,0,1,3.89.71,8.45,8.45,0,0,1,3,2.05,8.78,8.78,0,0,1,1.89,3.15A12.1,12.1,0,0,1,535.24,390.87Zm-4.74,0a7.51,7.51,0,0,0-1.27-4.66,4,4,0,0,0-3.41-1.67,4.19,4.19,0,0,0-2.44.74,4.73,4.73,0,0,0-1.62,2.2,10.33,10.33,0,0,0,0,6.74,4.78,4.78,0,0,0,1.61,2.19,4.31,4.31,0,0,0,5.87-.91A7.49,7.49,0,0,0,530.5,390.87Z" transform="translate(-343.01 -137.03)"/><path class="cls-2" d="M556.61,390.87a11.91,11.91,0,0,1-.66,4,8.94,8.94,0,0,1-1.9,3.17,8.3,8.3,0,0,1-3,2,10.21,10.21,0,0,1-3.89.71,9.82,9.82,0,0,1-3.85-.72,8.51,8.51,0,0,1-3-2.05,8.87,8.87,0,0,1-1.9-3.16,11.69,11.69,0,0,1-.65-4,12.23,12.23,0,0,1,.65-4.07,8.94,8.94,0,0,1,1.89-3.16,8.47,8.47,0,0,1,3-2,11,11,0,0,1,7.74,0,8.45,8.45,0,0,1,3,2.05,8.78,8.78,0,0,1,1.89,3.15A12.1,12.1,0,0,1,556.61,390.87Zm-4.74,0a7.51,7.51,0,0,0-1.27-4.66,4,4,0,0,0-3.41-1.67,4.13,4.13,0,0,0-2.43.74,4.68,4.68,0,0,0-1.63,2.2,10.33,10.33,0,0,0,0,6.74,4.78,4.78,0,0,0,1.61,2.19,4.31,4.31,0,0,0,5.87-.91A7.49,7.49,0,0,0,551.87,390.87Z" transform="translate(-343.01 -137.03)"/><path class="cls-2" d="M573.24,398v-.48a11.81,11.81,0,0,1-1.87,1.83,7.19,7.19,0,0,1-2,1.08,7.44,7.44,0,0,1-2.36.37,6.7,6.7,0,0,1-3.14-.75,7.28,7.28,0,0,1-2.49-2.12,9.59,9.59,0,0,1-1.6-3.25,14,14,0,0,1-.55-4c0-3.06.72-5.45,2.16-7.15a7.08,7.08,0,0,1,5.69-2.57,7.28,7.28,0,0,1,3.43.73,9.45,9.45,0,0,1,2.73,2.23v-7.22a3.79,3.79,0,0,1,.58-2.28,2.21,2.21,0,0,1,3.3-.06,3.18,3.18,0,0,1,.58,2.08V398a3.12,3.12,0,0,1-.62,2.1,2.07,2.07,0,0,1-1.61.7,2,2,0,0,1-1.59-.73A3,3,0,0,1,573.24,398ZM564,390.83a8.76,8.76,0,0,0,.59,3.39,4.64,4.64,0,0,0,1.64,2.1,3.86,3.86,0,0,0,2.26.71,4,4,0,0,0,2.27-.67,4.54,4.54,0,0,0,1.64-2.06,8.58,8.58,0,0,0,.62-3.47,8.36,8.36,0,0,0-.62-3.36,5,5,0,0,0-1.66-2.15,3.83,3.83,0,0,0-2.29-.75,3.76,3.76,0,0,0-2.31.77,4.78,4.78,0,0,0-1.58,2.18A8.9,8.9,0,0,0,564,390.83Z" transform="translate(-343.01 -137.03)"/><path class="cls-3" d="M428.72,206.25a1.75,1.75,0,0,0,.91,2,9.14,9.14,0,0,1,2.51,1.82,10.16,10.16,0,0,1,1.88,2.74,9.66,9.66,0,0,1,.72,6.13,1.79,1.79,0,0,0,.91,1.95,9.24,9.24,0,0,1,2.41,1.81,9.94,9.94,0,0,1,1.8,2.67,9.7,9.7,0,0,1,.81,5.71,1.76,1.76,0,0,0,.83,1.77,9.11,9.11,0,0,1,2.18,1.77,9.9,9.9,0,0,1,1.66,2.5,9.68,9.68,0,0,1,.74,6,1.78,1.78,0,0,0,.81,1.81,12.11,12.11,0,0,1,4.52,5.18l21.26,45.65c2.58,5.54,2.63,15.9-2.2,18.18l-43.61,20.62c-4.83,2.28-12.71-4.38-15.29-9.93L390.31,279a12.21,12.21,0,0,1-1.07-6.81,1.75,1.75,0,0,0-.86-1.78,9,9,0,0,1-2.36-1.81,9.89,9.89,0,0,1-1.78-2.63,9.69,9.69,0,0,1-.81-5.71,1.73,1.73,0,0,0-.82-1.76,9.41,9.41,0,0,1-2.18-1.78,9.9,9.9,0,0,1-1.66-2.5,9.68,9.68,0,0,1-.73-6.13,1.79,1.79,0,0,0-.9-1.95,9.24,9.24,0,0,1-2.41-1.81,9.74,9.74,0,0,1-1.81-2.67,9.54,9.54,0,0,1-.68-6.31,1.75,1.75,0,0,0-.91-2,9.39,9.39,0,0,1-4.25-4.29,2.44,2.44,0,0,1-.14-.28l-7.4-15.89a20.69,20.69,0,0,1-2-8.35,19,19,0,0,1,.32-3.85l5.35-28.49-.64.3a1.16,1.16,0,0,1-1.51-.67l-4.17-8.95a1.18,1.18,0,0,1,.45-1.6l25.21-11.92a1.19,1.19,0,0,1,1.52.67l4.17,9a1.18,1.18,0,0,1-.46,1.59l-.64.31L412.37,175a18.27,18.27,0,0,1,3.13,2.21,20.63,20.63,0,0,1,5.14,6.85l7.4,15.89.12.29A9.55,9.55,0,0,1,428.72,206.25Z" transform="translate(-343.01 -137.03)"/><path class="cls-4" d="M420.64,184l7.4,15.89.12.29-61.08,28.86a2.44,2.44,0,0,1-.14-.28l-7.4-15.89a20.69,20.69,0,0,1-2-8.35l57.91-27.37A20.63,20.63,0,0,1,420.64,184Z" transform="translate(-343.01 -137.03)"/><path class="cls-5" d="M449.74,249.8a11.53,11.53,0,0,0-4.31-4.93,1.69,1.69,0,0,1-.77-1.72,9.51,9.51,0,0,0-2.29-8.15,8.77,8.77,0,0,0-2.08-1.69,1.65,1.65,0,0,1-.78-1.69,9.23,9.23,0,0,0,.09-2.11,48.48,48.48,0,0,0-16-3.54c-12.63-.55-17.79,5.33-28,2.65-2.22-.58-4.95-1.62-8.84-1.18-3.57.41-5,1.73-8.85,2.36a22.39,22.39,0,0,1-8.67-.29l.12.25a9.06,9.06,0,0,0,4,4.09,1.66,1.66,0,0,1,.87,1.86,9.17,9.17,0,0,0,.65,6,9.39,9.39,0,0,0,1.72,2.54,8.58,8.58,0,0,0,2.3,1.73,1.7,1.7,0,0,1,.86,1.86,9.24,9.24,0,0,0,.69,5.84,9.73,9.73,0,0,0,1.58,2.39,9,9,0,0,0,2.09,1.69,1.65,1.65,0,0,1,.78,1.69,9.27,9.27,0,0,0,.77,5.44,9.5,9.5,0,0,0,1.7,2.5,8.41,8.41,0,0,0,2.25,1.73,1.67,1.67,0,0,1,.82,1.69,11.63,11.63,0,0,0,1,6.5l20.26,43.51c2.47,5.29,10,11.64,14.57,9.46l41.58-19.65c4.6-2.17,4.56-12,2.09-17.33Z" transform="translate(-343.01 -137.03)"/><text class="cls-6" transform="matrix(0.9, -0.43, 0.42, 0.91, 30.72, 83.63)">MKU</text><path class="cls-7" d="M364.36,178.57a15.57,15.57,0,0,1,.85,5.09,21.81,21.81,0,0,1-.4,4.86,22.3,22.3,0,0,1-1.38,4.67,15.57,15.57,0,0,1-2.61,4.45l-.26,0c.48-3.2,1.1-6.37,1.64-9.56s1.2-6.35,1.9-9.5Z" transform="translate(-343.01 -137.03)"/><polygon class="cls-7" points="46.33 22.9 42.96 24.62 39.57 26.27 32.77 29.58 25.9 32.73 22.46 34.3 18.99 35.8 18.98 35.78 46.32 22.87 46.33 22.9"/><text class="cls-8" transform="matrix(0.9, -0.43, 0.42, 0.91, 29.16, 82.55)">MKU</text><path class="cls-9" d="M470.48,361.3c-2.71,2.23-4.69,2.12-27.12,1.77-27.89-.43-35.25-.43-44.82-5.31-8.24-4.2-11.69-8.76-13-10.61-.83-1.21-9.14-13.67-3.54-23.59a16.49,16.49,0,0,1,5.9-5.9,46.31,46.31,0,0,1-12.38-9.43c-3.09-3.31-6.48-7-8.26-13a27.25,27.25,0,0,1,0-15.34,21.8,21.8,0,0,1,5.31-9.43c8.2-8.05,23-5.86,31.84-1.77a35.69,35.69,0,0,1,11.79,8.85,20.53,20.53,0,0,1,7.67-10c7.94-5.25,17.46-2.37,19.46-1.77,18.76,5.67,25.24,34.09,28.89,50.12C476,332.17,480.69,352.91,470.48,361.3Z" transform="translate(-343.01 -137.03)"/><path class="cls-10" d="M416.82,275.8c8.33,12.44,13.66,20.62,16.51,25.35a84.8,84.8,0,0,0,6.48,9.39c1.06,1.33,2.24,2.73,3.55,4.18,4.7,5.16,7.05,7.75,10.61,9.43,2.73,1.28,5,1.67,7.08,4.13,1.64,1.91,2.22,4,2.95,6.48a35.4,35.4,0,0,1,1.18,8.85c.08,2.27-.06,2.07,0,5.9.1,6.25.58,7.4,1.18,8.25a7.72,7.72,0,0,0,4.71,2.95,21.57,21.57,0,0,1-2.36-4.72,23.73,23.73,0,0,1-1.18-5.89c-.19-2.17,0-2.78,0-5.31a52.93,52.93,0,0,0-.58-7.08,33.4,33.4,0,0,0-4.13-11.79,28.05,28.05,0,0,0-8.26-8.26c-5.83-4.27-10.18-9.92-18.87-21.22a161.27,161.27,0,0,1-15.92-25.36Z" transform="translate(-343.01 -137.03)"/><path class="cls-11" d="M517,362.68a12.69,12.69,0,0,1-5.14.22l.18-.32a47.1,47.1,0,0,1-7.25-1.25c-3.73-.87-11.72-2.72-12.94-7.57-.46-1.85.2-3.59,1.43-6.86a31,31,0,0,1,3.95-7.27A73.52,73.52,0,0,0,504,325.89a85.82,85.82,0,0,0,4.15-17.55c.51-3.43.77-6.26,1-8.41.29-3.13.58-7.24.7-12.36.34-14.65-1.28-13.63-.13-19.88a32.92,32.92,0,0,1,6.54-14.92c.08-.11.22-.28.39-.48,2-2.42,11.27-12.83,22.17-11.59a17.64,17.64,0,0,1,9.09,4,46.6,46.6,0,0,1,6.19-9.57,41,41,0,0,0-4.53,6,32.49,32.49,0,0,0-6.11-3.54c-2.88-1.28-9.84-4.4-18.28-2.79a27.72,27.72,0,0,0-14.76,8.41c-4.75,4.86-6.27,9.7-8.66,17.67-3.4,11.31-3.85,20.39-4.25,28.42a139,139,0,0,0,.39,19.54c.29,3.39.76,4.53,1.18,8.84.85,8.58,1.23,13-.68,17-1.72,3.64-3.16,3.17-5.48,7.82-1.78,3.57-3.47,6.95-2.45,10.34,1.65,5.55,9.51,7.74,15.85,9.51,5.18,1.44,7.84,1.13,8.59,1a17.15,17.15,0,0,0,5.52-1.78c-.53.19-1,.35-1.58.49A11.29,11.29,0,0,1,517,362.68Z" transform="translate(-343.01 -137.03)"/><path class="cls-11" d="M578.15,221.57a20.93,20.93,0,0,0-7.54,1.5A27.93,27.93,0,0,1,578.15,221.57Z" transform="translate(-343.01 -137.03)"/><path class="cls-11" d="M628.79,277.14c-1.68-6.82-10-11.11-14.35-12.92a48,48,0,0,1,.16,11.29A52.76,52.76,0,0,1,605.14,300a66.22,66.22,0,0,1-21.27,19.7c-8.88,5.15-12.26,4.31-26.82,11.63,2.76-.93,8.18-2.77,15.18-5.83,1.42-.63,6.46-2.8,14.63-7.15,9-4.8,13.83-7.37,18-10.18C609.71,304.92,632,290.05,628.79,277.14Z" transform="translate(-343.01 -137.03)"/><path class="cls-10" d="M570.61,223.07a37.67,37.67,0,0,0-5.9,2.59,35.83,35.83,0,0,0-9.89,8.53l-.77.9c.82-.89,1.72-1.8,2.73-2.72C559.3,230.08,564.41,225.45,570.61,223.07Z" transform="translate(-343.01 -137.03)"/><path class="cls-10" d="M596.49,237.43v0l.08,0c-1-4.81-3.35-11.1-9.61-14.21a17.84,17.84,0,0,0-8.82-1.71,16.71,16.71,0,0,1,3.75.42C591.91,224.31,595.78,235.23,596.49,237.43Z" transform="translate(-343.01 -137.03)"/><path class="cls-10" d="M524.72,358.42a19.6,19.6,0,0,1-4.34,3.13c.41-.16.81-.32,1.22-.51,5-2.39,4.94-5.54,12-13.39l.41-.45-.67.66A117.74,117.74,0,0,0,524.72,358.42Z" transform="translate(-343.01 -137.03)"/><path class="cls-10" d="M547.86,244.66a17.64,17.64,0,0,0-9.09-4c-10.9-1.24-20.16,9.17-22.17,11.59-.17.2-.31.37-.39.48a32.92,32.92,0,0,0-6.54,14.92c-1.15,6.25.47,5.23.13,19.88-.12,5.12-.41,9.23-.7,12.36-.19,2.15-.45,5-1,8.41A85.82,85.82,0,0,1,504,325.89a73.52,73.52,0,0,1-6.74,13.74,31,31,0,0,0-3.95,7.27c-1.23,3.27-1.89,5-1.43,6.86,1.22,4.85,9.21,6.7,12.94,7.57a47.1,47.1,0,0,0,7.25,1.25c1.27-2.23,3-5.4,5-9.25,4.67-9.14,7-13.7,8.47-18.85a52.44,52.44,0,0,0,.5-25.71c-1.77-7.51-4.55-11.15-4.64-19.75a32.84,32.84,0,0,1,2.22-13.62c4.27-10.42,14.29-17.95,22.36-19a18.16,18.16,0,0,1,7.5.3,36.94,36.94,0,0,1,6.63,2.85c.51-.93,1.26-2.28,2.23-3.87,2.56-4.18,5.09-8.31,8.46-11.42,7.31-6.76,17.11-7.36,17.85-7.39a28.2,28.2,0,0,1,7.87.58v0c-.71-2.2-4.58-13.12-14.59-15.44a16.71,16.71,0,0,0-3.75-.42,27.93,27.93,0,0,0-7.54,1.5c-6.2,2.38-11.31,7-13.83,9.3-1,.92-1.91,1.83-2.73,2.72A46.6,46.6,0,0,0,547.86,244.66Z" transform="translate(-343.01 -137.03)"/><path class="cls-10" d="M533.31,347.86a129.86,129.86,0,0,0-9.06,9.73A15.13,15.13,0,0,1,518.8,362c.53-.14,1.05-.3,1.58-.49a19.6,19.6,0,0,0,4.34-3.13A117.74,117.74,0,0,1,533.31,347.86Z" transform="translate(-343.01 -137.03)"/><path class="cls-9" d="M543.25,338.67A79.39,79.39,0,0,0,534,347.2c3.59-3.45,6.77-6.19,8.59-7.63,3-2.38,6.31-4.09,13-7.52l1.51-.77-1.25.43A45.43,45.43,0,0,0,543.25,338.67Z" transform="translate(-343.01 -137.03)"/><path class="cls-9" d="M512.06,362.58l-.18.32a12.69,12.69,0,0,0,5.14-.22,11.29,11.29,0,0,0,1.78-.64A20.49,20.49,0,0,1,512.06,362.58Z" transform="translate(-343.01 -137.03)"/><path class="cls-9" d="M597.45,247.61a29.5,29.5,0,0,0-.16-5.49c-.11-1-.27-2.35-.56-3.89A23.6,23.6,0,0,1,597.45,247.61Z" transform="translate(-343.01 -137.03)"/><path class="cls-10" d="M583.87,319.65c-8.88,5.15-12.26,4.31-26.82,11.63l-1.25.43a45.7,45.7,0,0,0-12.55,7l3-2.4a155.58,155.58,0,0,1,20-13.78c10-5.7,10.24-4.17,17-8.46,6.34-4,14.56-9.22,18.85-18.72,1-2.27,7.18-16.64-1.13-25.74A19.92,19.92,0,0,0,591,264c.74-1.36,1.38-2.55,1.93-3.6a54.85,54.85,0,0,1,6.38.18,101.8,101.8,0,0,1,12.62,2.76c.37.11,1.31.42,2.56.94a47.88,47.88,0,0,1,.16,11.28A52.76,52.76,0,0,1,605.14,300,66.22,66.22,0,0,1,583.87,319.65Z" transform="translate(-343.01 -137.03)"/><path class="cls-9" d="M596.73,238.23c-.08-.26-.15-.51-.23-.76l.08,0C596.64,237.74,596.68,238,596.73,238.23Z" transform="translate(-343.01 -137.03)"/><path class="cls-9" d="M533.31,347.86l.67-.66a79.39,79.39,0,0,1,9.27-8.53A76.66,76.66,0,0,0,533.31,347.86Z" transform="translate(-343.01 -137.03)"/><path class="cls-9" d="M592.88,260.35h-.28a29.38,29.38,0,0,0,4.85-12.75,23.27,23.27,0,0,1-1.16,5.83A64.14,64.14,0,0,1,592.88,260.35Z" transform="translate(-343.01 -137.03)"/><path class="cls-9" d="M597.45,247.61a29.5,29.5,0,0,0-.16-5.49c-.12-1-.27-2.35-.56-3.89-.07-.26-.15-.51-.23-.76a28.2,28.2,0,0,0-7.87-.58c-.74,0-10.54.63-17.85,7.39-3.37,3.11-5.9,7.24-8.46,11.42-1,1.59-1.72,2.94-2.23,3.87a36.94,36.94,0,0,0-6.63-2.85,18.16,18.16,0,0,0-7.5-.3c-8.07,1-18.09,8.56-22.36,19A32.84,32.84,0,0,0,521.38,289c.09,8.6,2.87,12.24,4.64,19.75a52.44,52.44,0,0,1-.5,25.71c-1.47,5.15-3.8,9.71-8.47,18.85-2,3.85-3.72,7-5,9.25a20.49,20.49,0,0,0,6.74-.54,15.13,15.13,0,0,0,5.45-4.45,129.86,129.86,0,0,1,9.06-9.73,76.66,76.66,0,0,1,9.94-9.19c.91-.75,1.89-1.54,3-2.4a156.33,156.33,0,0,1,20-13.78c10-5.7,10.24-4.17,17-8.46,6.34-4,14.56-9.22,18.85-18.72,1-2.27,7.18-16.64-1.13-25.74A19.92,19.92,0,0,0,591,264c.74-1.36,1.38-2.55,1.93-3.6h-.28A29.38,29.38,0,0,0,597.45,247.61Z" transform="translate(-343.01 -137.03)"/><path class="cls-12" d="M525.91,269.9s1.27,8,4,23.48c3.41,19.58,5.41,28.07,5.41,28.07a105.79,105.79,0,0,1-8.95-29.91A100.88,100.88,0,0,1,525.91,269.9Z" transform="translate(-343.01 -137.03)"/><path class="cls-12" d="M552,298v0c-2.45-13.69-1-24.1,1.66-41.85a40.23,40.23,0,0,1,5.7-16c-1.5,8.3-2.88,17-4.07,25.93C553.84,277.11,552.77,287.77,552,298Z" transform="translate(-343.01 -137.03)"/><path class="cls-12" d="M583.24,241.37c-.67-.19-3.27,8-10.92,23.47-1.05,2.11-5.83,11.75-13.08,24.11-5.24,8.94-9.48,16.28-16.12,25.21-9.06,12.17-16.89,20-16.66,20.17s10.31-9.45,21.14-22.4c11.51-13.77,16.48-21.55,17.95-24a147.73,147.73,0,0,0,8.76-17.08C580.82,255.87,584.1,241.62,583.24,241.37Z" transform="translate(-343.01 -137.03)"/><path class="cls-12" d="M547.6,311.93A68.6,68.6,0,0,0,565,301.6a97.8,97.8,0,0,0,9.16-9c6-6.33,12.84-14.29,12.4-14.66-.26-.21-3,2.53-12.11,10.7-6.19,5.56-11,9.76-13.8,12.17C557.07,303.86,552.69,307.63,547.6,311.93Z" transform="translate(-343.01 -137.03)"/><path class="cls-12" d="M520.16,341.07a277,277,0,0,0,34.9-19.49c17.83-11.73,30.94-23.34,31.42-22.85s-8.34,8.29-12.54,12c-12.48,10.95-20.78,16.36-23.19,17.9a88.75,88.75,0,0,1-10,5.84A78.42,78.42,0,0,1,520.16,341.07Z" transform="translate(-343.01 -137.03)"/><path class="cls-9" d="M515.35,293.61a106.82,106.82,0,0,1,3.75,20.2c1.29,14.68-.76,26.47,0,26.53.46,0,1.55-4.62,2-9.07.55-5.12.25-9.61-.8-16.15A165.05,165.05,0,0,0,515.35,293.61Z" transform="translate(-343.01 -137.03)"/><path class="cls-9" d="M506.89,329.64c.32-.11,3.08,4.29,3.95,9.92,1.18,7.72-1.73,14.27-2.13,14.21s1.66-6.13.4-14.84C508.31,333.38,506.6,329.74,506.89,329.64Z" transform="translate(-343.01 -137.03)"/><path class="cls-9" d="M505.29,360.35c-.21-.11,2.76-7.32,8.8-15,4.9-6.22,10.06-10.51,10.21-10.39s-2.48,2.72-6.73,8c-.54.68-2.29,2.87-4.25,5.51C507.94,355.77,505.47,360.43,505.29,360.35Z" transform="translate(-343.01 -137.03)"/><path class="cls-11" d="M510,356.58a15.31,15.31,0,0,1-5.31,4.13l-.06-.5a59.07,59.07,0,0,1-8.78,4c-4.71,1.83-14.76,5.74-20,1.18-2-1.75-2.75-4.22-4.13-8.85a43.52,43.52,0,0,1-1.77-11.2,104.09,104.09,0,0,0-4.12-20.64,125.81,125.81,0,0,0-10-23c-2.27-4.26-4.33-7.67-5.89-10.25-2.27-3.75-5.35-8.62-9.44-14.51-11.71-16.85-12.6-14.47-16.51-22.41-4.2-8.52-5.4-15.77-5.31-21.82,0-.18,0-.48,0-.84.15-4.26,1.48-23,14.13-29.82a22.64,22.64,0,0,1,13-2.36,65.13,65.13,0,0,1-1.26-15.5,55.85,55.85,0,0,0,.08,10.19,42.93,42.93,0,0,0-9.44.59c-4.13.72-14.13,2.44-21.82,10.62-7.19,7.66-8.39,16.77-8.84,20.63-1.06,9.09,1.3,15.7,5.31,26.54,5.68,15.36,12.68,26,18.87,35.38A205.25,205.25,0,0,0,445.13,310c3.11,3.62,4.53,4.56,8.54,9.13,8,9.08,12,13.74,13.28,19.76,1.16,5.42-.77,6,.58,13,1,5.39,2,10.48,5.9,13.56,6.34,5,16.54,1.59,24.77-1.18,6.72-2.27,9.3-4.62,10-5.31a20.67,20.67,0,0,0,4.43-6.17,19.2,19.2,0,0,1-1.28,1.75A14.52,14.52,0,0,1,510,356.58Z" transform="translate(-343.01 -137.03)"/><path class="cls-11" d="M459.06,150.77a25.61,25.61,0,0,0-6.82,7.37A34,34,0,0,1,459.06,150.77Z" transform="translate(-343.01 -137.03)"/><path class="cls-11" d="M558.93,175.55c-7.42-6.45-19.8-5.08-26-3.82a71.32,71.32,0,0,1,9.46,12.67,75.54,75.54,0,0,1,10,34.79A87.52,87.52,0,0,1,546,257.52c-5.24,12.52-9.55,14.11-19.07,33.37,2.18-3.13,6.45-9.3,11.41-18,1-1.78,4.6-8,9.74-19.11,5.68-12.24,8.71-18.76,10.89-25.12C561.43,221.38,573,187.77,558.93,175.55Z" transform="translate(-343.01 -137.03)"/><path class="cls-10" d="M452.24,158.14a44.93,44.93,0,0,0-4.16,7.39c-2.85,6.32-3.24,12.39-3.54,17.1,0,.54-.06,1.07-.08,1.6a51.15,51.15,0,0,1,.67-5.14C445.93,174.59,447.58,165.51,452.24,158.14Z" transform="translate(-343.01 -137.03)"/><path class="cls-10" d="M491.71,154.91l.05,0,.1,0c-5-4.69-12.73-10-22-8.84a22,22,0,0,0-10.83,4.7,20.36,20.36,0,0,1,4.35-2.34C476,143.51,489.14,153,491.71,154.91Z" transform="translate(-343.01 -137.03)"/><path class="cls-10" d="M514.71,346a24.66,24.66,0,0,1-2.06,6.8c.31-.48.6-1,.88-1.49,3.44-6.51.72-10,1.77-24.18,0-.28,0-.55.07-.82-.07.41-.13.83-.19,1.26A162.39,162.39,0,0,0,514.71,346Z" transform="translate(-343.01 -137.03)"/><path class="cls-10" d="M445.72,199.73a22.64,22.64,0,0,0-13,2.36c-12.65,6.81-14,25.56-14.13,29.82,0,.36,0,.66,0,.84-.09,6.05,1.11,13.3,5.31,21.82,3.91,7.94,4.8,5.56,16.51,22.41,4.09,5.89,7.17,10.76,9.44,14.51,1.56,2.58,3.62,6,5.89,10.25a125.81,125.81,0,0,1,10,23,104.09,104.09,0,0,1,4.12,20.64,43.52,43.52,0,0,0,1.77,11.2c1.38,4.63,2.11,7.1,4.13,8.85,5.29,4.56,15.34.65,20-1.18a59.07,59.07,0,0,0,8.78-4c-.49-3.49-1.22-8.4-2.29-14.24-2.55-13.86-3.82-20.78-6.49-27.72a78.31,78.31,0,0,0-20.64-29.48c-8.08-7.17-14-9.21-21.23-18.87a48.81,48.81,0,0,1-8.84-17.1c-4-15,.48-31.09,8.25-38.33a22.25,22.25,0,0,1,8.26-5.31,49,49,0,0,1,9.43-1.77c-.23-1.42-.53-3.52-.8-6-.71-6.66-1.41-13.24-.38-19.3,2.25-13.17,12.22-21.23,13-21.82a34.29,34.29,0,0,1,8.89-5.27l-.05,0c-2.57-1.95-15.7-11.4-28.3-6.48a20.36,20.36,0,0,0-4.35,2.34,34,34,0,0,0-6.82,7.37c-4.66,7.37-6.31,16.45-7.11,21a51.15,51.15,0,0,0-.67,5.14A65.13,65.13,0,0,0,445.72,199.73Z" transform="translate(-343.01 -137.03)"/><path class="cls-10" d="M515.18,327.54a171.3,171.3,0,0,0-1.65,17.84,19.7,19.7,0,0,1-2.16,9.14,19.2,19.2,0,0,0,1.28-1.75,24.66,24.66,0,0,0,2.06-6.8A162.39,162.39,0,0,1,515.18,327.54Z" transform="translate(-343.01 -137.03)"/><path class="cls-9" d="M518.24,309.64a104.08,104.08,0,0,0-2.87,16.64c1-6.61,2.13-12.11,2.88-15.1,1.24-4.94,3.38-9.39,7.66-18.28l1-2-1,1.42A57.24,57.24,0,0,0,518.24,309.64Z" transform="translate(-343.01 -137.03)"/><path class="cls-9" d="M504.62,360.21l.06.5a15.31,15.31,0,0,0,5.31-4.13,14.52,14.52,0,0,0,1.38-2.06A24.81,24.81,0,0,1,504.62,360.21Z" transform="translate(-343.01 -137.03)"/><path class="cls-9" d="M501.13,165.72a42.85,42.85,0,0,0-4.7-6.09c-.94-1-2.22-2.46-3.81-4A35.39,35.39,0,0,1,501.13,165.72Z" transform="translate(-343.01 -137.03)"/><path class="cls-10" d="M546,257.52c-5.24,12.52-9.55,14.11-19.07,33.37l-1,1.42a57.24,57.24,0,0,0-7.67,17.33c.36-1.53.76-3.16,1.19-4.95a198.53,198.53,0,0,1,10-30.66c6-14,7.5-12.44,11.2-22.41,3.47-9.32,8-21.4,4.72-35.38-.77-3.34-6-24.25-22.41-28.3a26.24,26.24,0,0,0-15.33,1.17c-.32-2.09-.62-3.92-.89-5.52a64.67,64.67,0,0,1,7-4.61,125.71,125.71,0,0,1,15.74-6.38c.49-.16,1.75-.5,3.51-.86a70.82,70.82,0,0,1,9.46,12.66,75.54,75.54,0,0,1,10,34.79A87.52,87.52,0,0,1,546,257.52Z" transform="translate(-343.01 -137.03)"/><path class="cls-9" d="M492.62,155.64l-.86-.69.1,0Z" transform="translate(-343.01 -137.03)"/><path class="cls-9" d="M515.18,327.54c.06-.43.12-.85.19-1.26a104.08,104.08,0,0,1,2.87-16.64A101,101,0,0,0,515.18,327.54Z" transform="translate(-343.01 -137.03)"/><path class="cls-9" d="M506.74,183.59l-.29.22a42.42,42.42,0,0,0-5.32-18.09,34.19,34.19,0,0,1,3.55,7.47A92,92,0,0,1,506.74,183.59Z" transform="translate(-343.01 -137.03)"/><path class="cls-9" d="M501.13,165.71a43.24,43.24,0,0,0-4.7-6.08c-.94-1-2.23-2.46-3.81-4-.28-.23-.56-.46-.86-.69a34.29,34.29,0,0,0-8.89,5.27c-.76.59-10.73,8.65-13,21.82-1,6.06-.33,12.64.38,19.3.27,2.53.57,4.63.8,6a49,49,0,0,0-9.43,1.77,22.25,22.25,0,0,0-8.26,5.31c-7.77,7.24-12.27,23.31-8.25,38.33A48.81,48.81,0,0,0,454,269.9c7.19,9.66,13.15,11.7,21.23,18.87a78.31,78.31,0,0,1,20.64,29.48c2.67,6.94,3.94,13.86,6.49,27.72,1.07,5.84,1.8,10.75,2.29,14.24a24.81,24.81,0,0,0,6.75-5.69,19.7,19.7,0,0,0,2.16-9.14,171.3,171.3,0,0,1,1.65-17.84,101,101,0,0,1,3.06-17.9c.36-1.53.75-3.16,1.19-4.95a198.53,198.53,0,0,1,10-30.66c6-14,7.5-12.44,11.2-22.41,3.47-9.32,8-21.4,4.72-35.38-.77-3.34-6-24.25-22.41-28.3a26.16,26.16,0,0,0-15.33,1.17c-.32-2.09-.62-3.92-.89-5.52l-.29.22A42.48,42.48,0,0,0,501.13,165.71Z" transform="translate(-343.01 -137.03)"/><path class="cls-12" d="M443.06,244.84s7.91,8,23.59,23.59c19.77,19.6,28.89,27.71,28.89,27.71A158,158,0,0,1,461.34,269,152.22,152.22,0,0,1,443.06,244.84Z" transform="translate(-343.01 -137.03)"/><path class="cls-12" d="M494.07,256.93l0,0c-13.9-13.66-20.91-26.54-32.71-48.63a60.56,60.56,0,0,1-5.3-13,58.23,58.23,0,0,1-1.77-9.44q7.83,15.8,17,32.43C478.84,232,486.48,244.84,494.07,256.93Z" transform="translate(-343.01 -137.03)"/><path class="cls-12" d="M480.8,169.36c-.86.28,3.07,11.48,7.67,34.79.63,3.19,3.46,17.71,5.9,37.15,1.76,14.08,3.27,25.59,3.53,40.69.36,20.6-1.58,35.34-1.18,35.38s3.23-18.46,4.13-41.28c1-24.25-.14-36.81-.59-40.69a207.42,207.42,0,0,0-4.72-25.94C490.16,187.6,481.94,169,480.8,169.36Z" transform="translate(-343.01 -137.03)"/><path class="cls-12" d="M500.85,276.09a86.59,86.59,0,0,0,10-24.76c1.14-5,1.55-9,2.35-17.11,1.17-11.66,1.95-25.86,1.18-25.94-.46-.05-1.13,5.12-4.12,21.23-2,11-3.74,19.36-4.72,24.17C504.32,259.82,502.75,267.39,500.85,276.09Z" transform="translate(-343.01 -137.03)"/><path class="cls-12" d="M495.54,329.75a349.07,349.07,0,0,0,21.23-48.35c9.39-26.71,13.83-49.74,14.74-49.53.75.16-2.08,15.66-3.53,23-4.31,21.8-8.72,34.17-10,37.74a112,112,0,0,1-5.89,14.15A96.12,96.12,0,0,1,495.54,329.75Z" transform="translate(-343.01 -137.03)"/><path class="cls-9" d="M451.32,279.63A162.08,162.08,0,0,1,472,299.68c13.47,15.66,21,30.54,21.82,30.07.51-.29-2.16-6.39-5.31-11.79-3.63-6.21-7.65-11.07-14.15-17.69A249.22,249.22,0,0,0,451.32,279.63Z" transform="translate(-343.01 -137.03)"/><path class="cls-9" d="M472,326.8c.25-.36,6.82,2.54,12.38,8.26,7.63,7.85,9.92,17.46,9.44,17.69s-3.29-8.19-11.8-17.1C476.55,330,471.73,327.13,472,326.8Z" transform="translate(-343.01 -137.03)"/><path class="cls-9" d="M495.54,362.77c-.31.05-3.08-10.36-2.94-23.58.1-10.75,2.08-19.49,2.35-19.46s-.41,4.94-.58,14.15c0,1.17-.09,5,0,9.43C494.61,355.6,495.8,362.74,495.54,362.77Z" transform="translate(-343.01 -137.03)"/><path class="cls-12" d="M441.59,346.56c-1.48-.83-2.93-1.66-4.33-2.53,1.82-1.16,2-7.34,2-8.09a24.67,24.67,0,0,0-1.77-9.43,18,18,0,0,1,.59,7.08c-.34,2.93-.61,5.32-2.36,7.07-.47.48-1.09.94-1.17,1.56a33.26,33.26,0,0,1-7.67-7.46c-2.48-3.33-1.81-3.71-5.31-10q-1.28-2.3-2.54-4.33c1.11-1.09,3-6.48,3.72-12.77.48-4.05.4-7.62,0-7.67s-.89,5.37-3.54,10a27.72,27.72,0,0,1-2.95,4.72l-.62.58a83.44,83.44,0,0,0-8.81-10.61c-.53-.53-1.05-1-1.55-1.52,1.59-1.25,3-5.82,3.32-9.68.55-6.91-2.39-12.36-2.54-12.31a19.7,19.7,0,0,1,1.36,8.77c-.23,2.42-.72,7.72-3.54,10a3.9,3.9,0,0,0-1,1c-2.43-2.13-4.28-3.5-4.93-4-9.24-6.74-18.56-10-18.87-9.44s7,3.82,16.66,11.31c-3,.71-4.9,1.34-6,1.66a33.07,33.07,0,0,1-8.85,1.18,22.31,22.31,0,0,1-11.2-3.54,31.48,31.48,0,0,0,11.79,5.31c6,1.16,12.36-1.65,15.56-3.62,2,1.61,4.11,3.4,6.26,5.39a67.34,67.34,0,0,1,10,11.2,48.72,48.72,0,0,1,5.55,10.37c-1.79.47-4.18,1.4-7.31,2a43.14,43.14,0,0,1-10,.59c-5.95-.13-9.76-1.13-9.81-.86s3.64,1.36,7.45,2l.35.06a68,68,0,0,0,13.8.53,47.84,47.84,0,0,0,7.21-.86c.14.28.3.56.46.86,5.66,10.12,14.83,15.74,23.62,20.31l-.62.33a45.05,45.05,0,0,1-6.49,1.76c-2.73.66-4.1,1-5.31,1.18-3.41.57-5.31.5-5.3.59a35.76,35.76,0,0,0,10-.59l1.47-.33a31.63,31.63,0,0,0,5-1.44c.77-.31,1.53-.68,2.16-1,1.06.55,2.11,1.08,3.15,1.6,10.54,5.33,19.89,7.49,20,7.08S457.79,355.64,441.59,346.56Z" transform="translate(-343.01 -137.03)"/></g></svg>