<svg id="Layer_2" data-name="Layer 2" xmlns="http://www.w3.org/2000/svg" viewBox="0 0 503.97 503.97"><defs><style>.cls-1{fill:#f2f2f2;}.cls-2{fill:#7faf51;}.cls-3,.cls-8{fill:#b3b3b3;}.cls-4{fill:#e6e6e6;}.cls-5{fill:#ccc;}.cls-6,.cls-8{font-size:35.98px;font-family:ArialRoundedMTBold, Arial Rounded MT Bold;}.cls-6{fill:#1a1a1a;}.cls-7{fill:#fff;}.cls-9{fill:#59c15d;}.cls-10{fill:#4eaa45;}.cls-11{fill:#3d8936;}.cls-12{fill:#f8f2a9;}</style></defs><circle class="cls-1" cx="251.99" cy="251.99" r="251.99"/><path class="cls-2" d="M534.79,626l-6.9-27.44v29.73a5.42,5.42,0,0,1-1.1,3.7,4,4,0,0,1-5.81,0,5.39,5.39,0,0,1-1.11-3.72V594.19q0-2.82,1.47-3.81a7.05,7.05,0,0,1,4-1H528a10.2,10.2,0,0,1,3.54.44,3,3,0,0,1,1.63,1.58,25.16,25.16,0,0,1,1.2,3.74l6.26,23.59,6.26-23.59a25.16,25.16,0,0,1,1.2-3.74,3,3,0,0,1,1.63-1.58,10.2,10.2,0,0,1,3.54-.44H556a7.08,7.08,0,0,1,4,1q1.47,1,1.47,3.81v34.08a5.37,5.37,0,0,1-1.1,3.7,3.74,3.74,0,0,1-2.95,1.24,3.64,3.64,0,0,1-2.85-1.24,5.32,5.32,0,0,1-1.12-3.7V598.54L546.49,626c-.45,1.78-.82,3.09-1.1,3.92a5.49,5.49,0,0,1-1.58,2.28,4.6,4.6,0,0,1-3.17,1,4.62,4.62,0,0,1-4.23-2.35,10.09,10.09,0,0,1-.93-2.28Z" transform="translate(-412.21 -188)"/><path class="cls-2" d="M579.16,594v15.1l17.13-17.86a15.45,15.45,0,0,1,2.1-1.91,3.92,3.92,0,0,1,2.31-.62,4.27,4.27,0,0,1,3,1.1,3.6,3.6,0,0,1,1.16,2.69,5.34,5.34,0,0,1-2,3.79l-10.61,10,12.23,17.51a22.34,22.34,0,0,1,1.94,3.19,6.21,6.21,0,0,1,.64,2.66,3.3,3.3,0,0,1-1.13,2.5,4.34,4.34,0,0,1-3.07,1.06,5.2,5.2,0,0,1-3-.78,6.77,6.77,0,0,1-1.94-2.07L596.61,628,586.3,612.14,579.16,619v8.9a5.68,5.68,0,0,1-1.23,4,4.19,4.19,0,0,1-3.18,1.31,4.26,4.26,0,0,1-2.14-.59A4.05,4.05,0,0,1,571,631a5.26,5.26,0,0,1-.5-1.91c-.06-.72-.09-1.77-.09-3.14V594a5.87,5.87,0,0,1,1.16-4,4,4,0,0,1,3.16-1.33,4.15,4.15,0,0,1,3.19,1.31A5.68,5.68,0,0,1,579.16,594Z" transform="translate(-412.21 -188)"/><path class="cls-2" d="M615,614.67V594a5.72,5.72,0,0,1,1.19-4,4,4,0,0,1,3.13-1.33,4.07,4.07,0,0,1,3.21,1.33,5.72,5.72,0,0,1,1.19,4v21.19a19.2,19.2,0,0,0,.81,6,7,7,0,0,0,2.87,3.77,10.54,10.54,0,0,0,5.76,1.33c3.4,0,5.81-.9,7.22-2.72s2.12-4.55,2.12-8.24V594a5.77,5.77,0,0,1,1.18-4,4,4,0,0,1,3.14-1.31A4.18,4.18,0,0,1,650,590a5.68,5.68,0,0,1,1.22,4v20.72a30.44,30.44,0,0,1-1,8.43,13,13,0,0,1-3.71,5.94,14.62,14.62,0,0,1-5.47,3.17,24.15,24.15,0,0,1-7.29,1,29.84,29.84,0,0,1-8.55-1.08,13.54,13.54,0,0,1-5.84-3.32,13.24,13.24,0,0,1-3.32-5.75A29.18,29.18,0,0,1,615,614.67Z" transform="translate(-412.21 -188)"/><path class="cls-2" d="M701.42,596.13H684.23v11H698.6a4.28,4.28,0,0,1,3,.9,3.09,3.09,0,0,1,1,2.4,3.05,3.05,0,0,1-1,2.38,4.42,4.42,0,0,1-3,.88H684.23v14.19a5.68,5.68,0,0,1-1.22,4,4.39,4.39,0,0,1-6.28,0,5.67,5.67,0,0,1-1.22-4V594.75a7.35,7.35,0,0,1,.55-3.08,3.51,3.51,0,0,1,1.75-1.73,7.42,7.42,0,0,1,3-.54h20.57a4.5,4.5,0,0,1,3.1.92,3.43,3.43,0,0,1,0,4.88A4.45,4.45,0,0,1,701.42,596.13Z" transform="translate(-412.21 -188)"/><path class="cls-2" d="M739.21,616.9a18.84,18.84,0,0,1-1.12,6.61,14.25,14.25,0,0,1-8.28,8.54,18,18,0,0,1-6.62,1.16,17.26,17.26,0,0,1-6.55-1.18,14.48,14.48,0,0,1-5-3.36,14.69,14.69,0,0,1-3.23-5.17,20.39,20.39,0,0,1,0-13.27,14.43,14.43,0,0,1,3.2-5.17,14.17,14.17,0,0,1,5-3.31,17.92,17.92,0,0,1,6.55-1.16,17.73,17.73,0,0,1,6.62,1.18,14.39,14.39,0,0,1,5.08,3.35,14.55,14.55,0,0,1,3.22,5.17A19.14,19.14,0,0,1,739.21,616.9Zm-8.05,0q0-4.9-2.16-7.64a7,7,0,0,0-5.81-2.73,7.15,7.15,0,0,0-4.14,1.22,7.75,7.75,0,0,0-2.76,3.6,16.27,16.27,0,0,0,0,11A7.77,7.77,0,0,0,719,626a7.56,7.56,0,0,0,10-1.49Q731.16,621.74,731.16,616.9Z" transform="translate(-412.21 -188)"/><path class="cls-2" d="M775.55,616.9a19.06,19.06,0,0,1-1.11,6.61,14.66,14.66,0,0,1-3.23,5.2,14.37,14.37,0,0,1-5.06,3.34,17.94,17.94,0,0,1-6.61,1.16A17.22,17.22,0,0,1,753,632a14.43,14.43,0,0,1-8.27-8.53,18.81,18.81,0,0,1-1.1-6.6,19.25,19.25,0,0,1,1.11-6.67,14.45,14.45,0,0,1,3.21-5.17,14.17,14.17,0,0,1,5-3.31,17.92,17.92,0,0,1,6.55-1.16,17.68,17.68,0,0,1,6.61,1.18,14.17,14.17,0,0,1,8.3,8.52A18.9,18.9,0,0,1,775.55,616.9Zm-8,0q0-4.9-2.16-7.64a7,7,0,0,0-5.8-2.73,7.11,7.11,0,0,0-4.14,1.22,7.62,7.62,0,0,0-2.76,3.6,16.35,16.35,0,0,0,0,11,7.91,7.91,0,0,0,2.73,3.6,7.56,7.56,0,0,0,10-1.49Q767.5,621.74,767.5,616.9Z" transform="translate(-412.21 -188)"/><path class="cls-2" d="M803.85,628.62v-.79a20.41,20.41,0,0,1-3.19,3,11.76,11.76,0,0,1-3.41,1.76,12.54,12.54,0,0,1-4,.61,11.82,11.82,0,0,1-5.33-1.22,12.64,12.64,0,0,1-4.25-3.48,15.82,15.82,0,0,1-2.71-5.32,22.61,22.61,0,0,1-.93-6.61q0-7.53,3.67-11.73a12.22,12.22,0,0,1,9.67-4.2,13.06,13.06,0,0,1,5.85,1.19,16.28,16.28,0,0,1,4.64,3.66V593.66a6,6,0,0,1,1-3.73,3.35,3.35,0,0,1,2.81-1.27,3.51,3.51,0,0,1,2.81,1.16,5.23,5.23,0,0,1,1,3.43v35.37a4.89,4.89,0,0,1-1.06,3.44,3.76,3.76,0,0,1-5.45,0A5,5,0,0,1,803.85,628.62Zm-15.78-11.78a13.73,13.73,0,0,0,1,5.55,7.85,7.85,0,0,0,2.78,3.46,6.9,6.9,0,0,0,3.85,1.16,7.11,7.11,0,0,0,3.86-1.1,7.67,7.67,0,0,0,2.8-3.38,13.78,13.78,0,0,0,1-5.69,13.41,13.41,0,0,0-1-5.51,8.24,8.24,0,0,0-2.83-3.52,6.67,6.67,0,0,0-3.89-1.22,6.59,6.59,0,0,0-3.94,1.24,8,8,0,0,0-2.68,3.59A14.18,14.18,0,0,0,788.07,616.84Z" transform="translate(-412.21 -188)"/><path class="cls-3" d="M559.18,305.06a3,3,0,0,0,1.54,3.32,15.05,15.05,0,0,1,4.25,3.1,16.77,16.77,0,0,1,3.19,4.64,16.34,16.34,0,0,1,1.23,10.39,3,3,0,0,0,1.53,3.3,15.39,15.39,0,0,1,4.09,3.08,16.89,16.89,0,0,1,3.06,4.52,16.43,16.43,0,0,1,1.38,9.68,2.94,2.94,0,0,0,1.39,3,15.82,15.82,0,0,1,3.71,3,16.64,16.64,0,0,1,2.81,4.24,16.36,16.36,0,0,1,1.26,10.24,3,3,0,0,0,1.37,3.06,20.62,20.62,0,0,1,7.66,8.79l36.05,77.41c4.38,9.41,4.47,27-3.72,30.84l-74,35c-8.18,3.86-21.54-7.43-25.92-16.84L494,428.4a20.69,20.69,0,0,1-1.81-11.55,3,3,0,0,0-1.46-3,15.77,15.77,0,0,1-4-3.06,16.81,16.81,0,0,1-3-4.46,16.45,16.45,0,0,1-1.37-9.69,2.94,2.94,0,0,0-1.4-3,15.77,15.77,0,0,1-3.7-3,16.56,16.56,0,0,1-2.81-4.24A16.27,16.27,0,0,1,473.24,376a3,3,0,0,0-1.54-3.3,15.55,15.55,0,0,1-4.09-3.08,16.89,16.89,0,0,1-3.06-4.52,16.28,16.28,0,0,1-1.16-10.71,3,3,0,0,0-1.54-3.32,16.05,16.05,0,0,1-7.21-7.27l-.24-.48-12.54-26.94a35,35,0,0,1-3.31-14.17,32.2,32.2,0,0,1,.54-6.52l9.08-48.33-1.09.51a2,2,0,0,1-2.57-1.13l-7.07-15.18a2,2,0,0,1,.78-2.71L481,208.62a2,2,0,0,1,2.56,1.13l7.08,15.19a2,2,0,0,1-.78,2.71l-1.09.52L531.44,252a31,31,0,0,1,5.32,3.75,35,35,0,0,1,8.71,11.61L558,294.34c.08.16.15.32.22.49A16.25,16.25,0,0,1,559.18,305.06Z" transform="translate(-412.21 -188)"/><path class="cls-4" d="M545.47,267.39,558,294.34c.08.16.15.32.22.49L454.64,343.78l-.24-.48-12.54-26.94a35,35,0,0,1-3.31-14.17l98.21-46.41A35,35,0,0,1,545.47,267.39Z" transform="translate(-412.21 -188)"/><path class="cls-5" d="M594.82,378.92a19.58,19.58,0,0,0-7.31-8.37,2.85,2.85,0,0,1-1.3-2.92,15.59,15.59,0,0,0-1.2-9.77,15.88,15.88,0,0,0-2.68-4A15,15,0,0,0,578.8,351a2.81,2.81,0,0,1-1.33-2.86,15.29,15.29,0,0,0,.16-3.59,82.36,82.36,0,0,0-27.13-6c-21.42-.93-30.17,9-47.5,4.5-3.77-1-8.4-2.76-15-2-6.05.7-8.54,2.92-15,4a38.32,38.32,0,0,1-14.72-.5l.22.43a15.29,15.29,0,0,0,6.86,6.93,2.85,2.85,0,0,1,1.48,3.17,15.45,15.45,0,0,0,1.1,10.2,15.73,15.73,0,0,0,2.92,4.31,14.94,14.94,0,0,0,3.9,2.94,2.87,2.87,0,0,1,1.46,3.14,15.59,15.59,0,0,0,1.17,9.91,15.88,15.88,0,0,0,2.68,4,14.93,14.93,0,0,0,3.53,2.87,2.84,2.84,0,0,1,1.34,2.86,15.7,15.7,0,0,0,1.3,9.23,16.28,16.28,0,0,0,2.87,4.25,15,15,0,0,0,3.82,2.93,2.84,2.84,0,0,1,1.4,2.87,19.74,19.74,0,0,0,1.72,11l34.37,73.79c4.18,9,16.91,19.74,24.71,16l70.51-33.32c7.8-3.69,7.72-20.43,3.54-29.4Z" transform="translate(-412.21 -188)"/><text class="cls-6" transform="matrix(0.9, -0.43, 0.42, 0.91, 53.73, 141.56)">MKU</text><path class="cls-7" d="M450,258.12a27.25,27.25,0,0,1,1.46,8.64,40.25,40.25,0,0,1-.69,8.23,41,41,0,0,1-2.32,7.93,27.47,27.47,0,0,1-4.45,7.54l-.44-.08.64-4.07.71-4,1.43-8.1,1.57-8.07.79-4,.86-4Z" transform="translate(-412.21 -188)"/><path class="cls-7" d="M492.39,226.51l-5.71,2.92-5.74,2.85c-3.83,1.88-7.7,3.7-11.55,5.56s-7.74,3.62-11.63,5.38l-5.84,2.63L446,248.39l0,0,46.36-21.89Z" transform="translate(-412.21 -188)"/><text class="cls-8" transform="matrix(0.9, -0.43, 0.42, 0.91, 51.08, 139.73)">MKU</text><path class="cls-9" d="M630,568c-4.6,3.78-8,3.59-46,3-47.3-.74-59.77-.72-76-9-14-7.13-19.84-14.85-22-18-1.41-2-15.5-23.19-6-40a27.73,27.73,0,0,1,10-10,78.8,78.8,0,0,1-21-16c-5.23-5.61-11-11.79-14-22a46,46,0,0,1,0-26c1-3.22,3.19-10.3,9-16,13.91-13.65,38.95-9.94,54-3a60.72,60.72,0,0,1,20,15c1.53-4.11,5.12-11.79,13-17,13.47-8.9,29.61-4,33-3,31.82,9.61,42.8,57.8,49,85C639.29,518.61,647.31,553.78,630,568Z" transform="translate(-412.21 -188)"/><path class="cls-10" d="M539,423c14.13,21.1,23.15,35,28,43a146.7,146.7,0,0,0,11,15.92c1.8,2.26,3.79,4.63,6,7.08,8,8.77,12,13.15,18,16,4.62,2.18,8.43,2.83,12,7,2.78,3.25,3.77,6.72,5,11a58.92,58.92,0,0,1,2,15c.15,3.85-.1,3.5,0,10,.17,10.61,1,12.56,2,14s3.06,3.72,8,5a35.64,35.64,0,0,1-4-8,39,39,0,0,1-2-10c-.33-3.68,0-4.71,0-9a90.61,90.61,0,0,0-1-12c-.38-2.44-1.91-11.72-7-20-4.62-7.52-10.45-11.4-14-14-9.9-7.25-17.27-16.83-32-36a272.33,272.33,0,0,1-27-43Z" transform="translate(-412.21 -188)"/><path class="cls-11" d="M708.92,570.34a21.52,21.52,0,0,1-8.72.38l.31-.55a80.08,80.08,0,0,1-12.3-2.12c-6.33-1.47-19.86-4.61-21.93-12.83-.79-3.14.32-6.09,2.42-11.64a52.22,52.22,0,0,1,6.69-12.32,124.13,124.13,0,0,0,11.43-23.32,144.32,144.32,0,0,0,7-29.76c.88-5.81,1.31-10.61,1.65-14.26.48-5.3,1-12.27,1.17-21,.58-24.84-2.17-23.11-.22-33.7,2.1-11.37,6.38-19.38,11.09-25.31l.67-.82c3.4-4.11,19.11-21.74,37.59-19.66a29.9,29.9,0,0,1,15.41,6.72A79.91,79.91,0,0,1,771.72,354,69.5,69.5,0,0,0,764,364.12a55.64,55.64,0,0,0-10.35-6c-4.89-2.17-16.7-7.46-31-4.73-13.4,2.57-21.61,10.75-25,14.26-8,8.25-10.62,16.45-14.69,30-5.76,19.17-6.52,34.57-7.21,48.19a234.49,234.49,0,0,0,.67,33.13c.5,5.75,1.28,7.68,2,15,1.43,14.55,2.08,22-1.16,28.83C674.34,529,671.9,528.15,668,536c-3,6.06-5.88,11.79-4.17,17.54,2.81,9.42,16.14,13.13,26.89,16.12,8.78,2.45,13.29,1.92,14.57,1.75a28.48,28.48,0,0,0,9.35-3c-.89.33-1.78.6-2.67.84A20.25,20.25,0,0,1,708.92,570.34Z" transform="translate(-412.21 -188)"/><path class="cls-11" d="M812.58,331a35.28,35.28,0,0,0-12.78,2.54A47.48,47.48,0,0,1,812.58,331Z" transform="translate(-412.21 -188)"/><path class="cls-11" d="M898.47,425.28c-2.86-11.57-16.9-18.85-24.34-21.91a80.48,80.48,0,0,1,.26,19.15c-2.19,20.66-11.7,35.08-16,41.43a112.2,112.2,0,0,1-36.06,33.42c-15.06,8.74-20.8,7.3-45.49,19.73,4.68-1.58,13.87-4.71,25.74-9.9,2.41-1.06,11-4.74,24.81-12.12,15.31-8.15,23.47-12.49,30.61-17.26C866.1,472.39,903.88,447.18,898.47,425.28Z" transform="translate(-412.21 -188)"/><path class="cls-10" d="M799.8,333.58a62.55,62.55,0,0,0-10,4.4c-7.82,4.27-12.86,10-16.77,14.46L771.72,354c1.38-1.51,2.92-3.06,4.63-4.62C780.63,345.46,789.29,337.62,799.8,333.58Z" transform="translate(-412.21 -188)"/><path class="cls-10" d="M843.69,357.93a.64.64,0,0,0,0,.07l.14,0c-1.7-8.17-5.69-18.83-16.3-24.09a30.16,30.16,0,0,0-15-2.91,28.38,28.38,0,0,1,6.36.71C835.92,335.69,842.48,354.21,843.69,357.93Z" transform="translate(-412.21 -188)"/><path class="cls-10" d="M722,563.12a32.63,32.63,0,0,1-7.36,5.3q1-.39,2.07-.87c8.57-4,8.38-9.39,20.31-22.7l.7-.76-1.15,1.12A202,202,0,0,0,722,563.12Z" transform="translate(-412.21 -188)"/><path class="cls-10" d="M761.21,370.19a29.9,29.9,0,0,0-15.41-6.72c-18.48-2.08-34.19,15.55-37.59,19.66l-.67.82c-4.71,5.93-9,13.94-11.09,25.31-2,10.59.8,8.86.22,33.7-.2,8.69-.69,15.66-1.17,21-.34,3.65-.77,8.45-1.65,14.26a144.32,144.32,0,0,1-7,29.76,124.13,124.13,0,0,1-11.43,23.32,52.22,52.22,0,0,0-6.69,12.32c-2.1,5.55-3.21,8.5-2.42,11.64,2.07,8.22,15.6,11.36,21.93,12.83a80.08,80.08,0,0,0,12.3,2.12c2.15-3.79,5.13-9.16,8.47-15.69,7.9-15.49,11.86-23.24,14.35-32a88.77,88.77,0,0,0,.85-43.59c-3-12.73-7.71-18.91-7.87-33.5-.07-5.54-.08-13.72,3.77-23.1,7.25-17.67,24.23-30.44,37.92-32.18a30.66,30.66,0,0,1,12.72.51A64.17,64.17,0,0,1,782,395.48c.85-1.57,2.12-3.86,3.77-6.56,4.35-7.08,8.64-14.09,14.35-19.36,12.4-11.47,29-12.49,30.27-12.55a47.86,47.86,0,0,1,13.35,1,.64.64,0,0,1,0-.07c-1.21-3.72-7.77-22.24-24.75-26.18a28.38,28.38,0,0,0-6.36-.71,47.48,47.48,0,0,0-12.78,2.54c-10.51,4-19.17,11.88-23.45,15.77-1.71,1.56-3.25,3.11-4.63,4.62A79.91,79.91,0,0,0,761.21,370.19Z" transform="translate(-412.21 -188)"/><path class="cls-10" d="M736.54,545.21a216.16,216.16,0,0,0-15.36,16.5,25.72,25.72,0,0,1-9.24,7.55c.89-.24,1.78-.51,2.67-.84a32.63,32.63,0,0,0,7.36-5.3A202,202,0,0,1,736.54,545.21Z" transform="translate(-412.21 -188)"/><path class="cls-9" d="M753.4,529.62a134.18,134.18,0,0,0-15.71,14.47c6.08-5.86,11.48-10.5,14.55-12.94,5.07-4,10.72-6.94,22-12.75l2.56-1.3-2.11.72A77.54,77.54,0,0,0,753.4,529.62Z" transform="translate(-412.21 -188)"/><path class="cls-9" d="M700.51,570.17l-.31.55a21.52,21.52,0,0,0,8.72-.38,20.25,20.25,0,0,0,3-1.08A34.44,34.44,0,0,1,700.51,570.17Z" transform="translate(-412.21 -188)"/><path class="cls-9" d="M845.32,375.2a48.9,48.9,0,0,0-.28-9.31c-.19-1.68-.46-4-.95-6.61A40,40,0,0,1,845.32,375.2Z" transform="translate(-412.21 -188)"/><path class="cls-10" d="M822.29,497.37c-15.06,8.73-20.8,7.3-45.49,19.73l-2.11.72a77.27,77.27,0,0,0-21.29,11.8l5-4.07a261.92,261.92,0,0,1,33.93-23.36c17-9.67,17.36-7.08,28.86-14.36,10.76-6.81,24.69-15.63,32-31.73,1.74-3.85,12.17-28.22-1.91-43.66-5.42-5.95-12.52-8.43-17-9.54,1.26-2.3,2.34-4.32,3.28-6.09a90.32,90.32,0,0,1,10.82.3,172,172,0,0,1,21.39,4.68,45.57,45.57,0,0,1,4.35,1.59,80.4,80.4,0,0,1,.26,19.14c-2.19,20.66-11.7,35.08-16,41.43A112,112,0,0,1,822.29,497.37Z" transform="translate(-412.21 -188)"/><path class="cls-9" d="M844.09,359.28c-.12-.42-.25-.85-.38-1.27a.7.7,0,0,1,.14,0C843.94,358.46,844,358.88,844.09,359.28Z" transform="translate(-412.21 -188)"/><path class="cls-9" d="M736.54,545.21l1.15-1.12a134.18,134.18,0,0,1,15.71-14.47A130.08,130.08,0,0,0,736.54,545.21Z" transform="translate(-412.21 -188)"/><path class="cls-9" d="M837.57,396.81l-.47,0a50.22,50.22,0,0,0,8.22-21.63,39.92,39.92,0,0,1-2,9.88S842.56,387.41,837.57,396.81Z" transform="translate(-412.21 -188)"/><path class="cls-9" d="M845.32,375.2a48.9,48.9,0,0,0-.28-9.31c-.19-1.68-.46-4-.95-6.61-.12-.42-.24-.85-.38-1.28a47.86,47.86,0,0,0-13.35-1c-1.25.06-17.87,1.08-30.27,12.55-5.71,5.27-10,12.28-14.35,19.36-1.65,2.7-2.92,5-3.77,6.56a64.17,64.17,0,0,0-11.25-4.83,30.66,30.66,0,0,0-12.72-.51c-13.69,1.74-30.67,14.51-37.92,32.18-3.85,9.38-3.84,17.56-3.77,23.1.16,14.59,4.86,20.77,7.87,33.5a88.77,88.77,0,0,1-.85,43.59c-2.49,8.73-6.45,16.48-14.35,32-3.34,6.53-6.32,11.9-8.47,15.69a34.44,34.44,0,0,0,11.43-.91,25.72,25.72,0,0,0,9.24-7.55,216.16,216.16,0,0,1,15.36-16.5,130.08,130.08,0,0,1,16.86-15.59l5-4.07a262.66,262.66,0,0,1,33.93-23.36c17-9.68,17.36-7.08,28.86-14.36,10.76-6.81,24.69-15.63,32-31.73,1.74-3.85,12.17-28.23-1.91-43.66-5.42-5.95-12.52-8.43-17-9.54,1.26-2.3,2.34-4.32,3.28-6.09l-.47,0A50.22,50.22,0,0,0,845.32,375.2Z" transform="translate(-412.21 -188)"/><path class="cls-12" d="M724,413s2.16,13.48,6.75,39.81c5.78,33.21,9.16,47.61,9.16,47.61a179.55,179.55,0,0,1-15.18-50.73A171.16,171.16,0,0,1,724,413Z" transform="translate(-412.21 -188)"/><path class="cls-12" d="M768.29,460.57v0c-4.15-23.22-1.68-40.86,2.8-71a68.78,68.78,0,0,1,9.68-27.13c-2.55,14.08-4.88,28.75-6.9,44C771.36,425.23,769.55,443.31,768.29,460.57Z" transform="translate(-412.21 -188)"/><path class="cls-12" d="M821.21,364.62c-1.12-.32-5.54,13.51-18.51,39.79-1.78,3.59-9.89,19.94-22.18,40.89-8.89,15.17-16.09,27.62-27.34,42.75-15.36,20.65-28.65,33.89-28.25,34.21s17.48-16,35.84-38c19.52-23.34,28-36.54,30.44-40.69a247.83,247.83,0,0,0,14.86-29C817.11,389.2,822.68,365,821.21,364.62Z" transform="translate(-412.21 -188)"/><path class="cls-12" d="M760.77,484.27a115.56,115.56,0,0,0,29.43-17.52c5-4.12,8.51-7.84,15.53-15.28,10.13-10.74,21.78-24.25,21-24.86-.45-.37-5.09,4.28-20.54,18.13-10.51,9.43-18.7,16.56-23.4,20.64C776.84,470.59,769.4,477,760.77,484.27Z" transform="translate(-412.21 -188)"/><path class="cls-12" d="M714.24,533.69a468.47,468.47,0,0,0,59.19-33.05c30.24-19.89,52.47-39.59,53.28-38.75.66.69-14.15,14.05-21.27,20.3-21.15,18.57-35.23,27.74-39.33,30.36a149.38,149.38,0,0,1-17,9.9A132.83,132.83,0,0,1,714.24,533.69Z" transform="translate(-412.21 -188)"/><path class="cls-9" d="M706.09,453.2a182.5,182.5,0,0,1,6.36,34.26c2.18,24.9-1.28,44.89-.07,45,.77.07,2.62-7.83,3.44-15.38.93-8.69.42-16.3-1.35-27.39A280.6,280.6,0,0,0,706.09,453.2Z" transform="translate(-412.21 -188)"/><path class="cls-9" d="M691.74,514.31c.55-.19,5.22,7.28,6.69,16.81,2,13.1-2.92,24.21-3.6,24.1s2.8-10.39.68-25.16C694.15,520.65,691.25,514.47,691.74,514.31Z" transform="translate(-412.21 -188)"/><path class="cls-9" d="M689,566.38c-.36-.18,4.68-12.41,14.91-25.41,8.32-10.56,17.07-17.83,17.33-17.61s-4.2,4.6-11.42,13.59c-.92,1.15-3.89,4.86-7.2,9.34C693.52,558.63,689.33,566.53,689,566.38Z" transform="translate(-412.21 -188)"/><path class="cls-11" d="M697,560a26.11,26.11,0,0,1-9,7c0-.27-.08-.56-.12-.85A98.39,98.39,0,0,1,673,573c-8,3.11-25,9.74-34,2-3.43-3-4.67-7.15-7-15a73.57,73.57,0,0,1-3-19,176.3,176.3,0,0,0-7-35c-5.21-16.85-11.94-29.49-17-39-3.85-7.23-7.34-13-10-17.38-3.85-6.37-9.07-14.63-16-24.62-19.85-28.56-21.36-24.53-28-38-7.12-14.45-9.15-26.74-9-37,0-.31,0-.82,0-1.43.25-7.22,2.5-39,24-50.57,3.49-1.88,10.74-5,22-4a110.56,110.56,0,0,1-2.14-26.28A95.33,95.33,0,0,0,586,285a72.85,72.85,0,0,0-16,1c-7,1.23-24,4.13-37,18-12.2,13-14.23,28.44-15,35-1.8,15.4,2.2,26.62,9,45,9.64,26.05,21.5,44.06,32,60a351.24,351.24,0,0,0,28,37c5.27,6.15,7.69,7.73,14.49,15.48C615,511.88,621.81,519.79,624,530c2,9.18-1.29,10.12,1,22,1.76,9.14,3.43,17.78,10,23,10.75,8.54,28,2.71,42-2,11.4-3.85,15.78-7.84,17-9a35.18,35.18,0,0,0,7.51-10.46,34.85,34.85,0,0,1-2.17,3A24.74,24.74,0,0,1,697,560Z" transform="translate(-412.21 -188)"/><path class="cls-11" d="M610.62,211a43.3,43.3,0,0,0-11.56,12.5A57.79,57.79,0,0,1,610.62,211Z" transform="translate(-412.21 -188)"/><path class="cls-11" d="M780,253c-12.58-10.95-33.59-8.62-44-6.47A121.55,121.55,0,0,1,752,268c14.68,25.05,16.39,48.54,17,59a148.35,148.35,0,0,1-11,65c-8.89,21.23-16.2,23.93-32.34,56.59,3.69-5.31,10.94-15.77,19.34-30.59,1.71-3,7.8-13.61,16.52-32.4,9.64-20.77,14.78-31.82,18.48-42.6C784.22,330.71,803.81,273.72,780,253Z" transform="translate(-412.21 -188)"/><path class="cls-10" d="M599.06,223.48A76.91,76.91,0,0,0,592,236c-4.83,10.72-5.49,21-6,29-.06.92-.1,1.83-.14,2.72.23-2.75.59-5.67,1.14-8.72C588.37,251.38,591.16,236,599.06,223.48Z" transform="translate(-412.21 -188)"/><path class="cls-10" d="M666,218l.08.07.18-.07c-8.55-8-21.59-17-37.26-15a37.53,37.53,0,0,0-18.38,8,34.58,34.58,0,0,1,7.38-4C639.38,198.66,661.65,214.7,666,218Z" transform="translate(-412.21 -188)"/><path class="cls-10" d="M705,542a42.27,42.27,0,0,1-3.49,11.54c.52-.82,1-1.66,1.49-2.54,5.83-11,1.22-17,3-41,0-.47.08-.93.11-1.39-.1.7-.21,1.42-.31,2.13A275.31,275.31,0,0,0,705,542Z" transform="translate(-412.21 -188)"/><path class="cls-10" d="M588,294c-11.26-1-18.51,2.12-22,4-21.46,11.55-23.71,43.35-24,50.57,0,.61,0,1.12,0,1.43-.15,10.26,1.88,22.55,9,37,6.64,13.47,8.15,9.44,28,38,6.94,10,12.16,18.25,16,24.62,2.65,4.38,6.14,10.15,10,17.38,5.06,9.51,11.79,22.15,17,39a176.3,176.3,0,0,1,7,35,73.57,73.57,0,0,0,3,19c2.33,7.85,3.57,12,7,15,9,7.74,26,1.11,34-2a98.39,98.39,0,0,0,14.88-6.85c-.81-5.91-2.06-14.24-3.88-24.15-4.31-23.49-6.47-35.24-11-47-10.12-26.24-27.68-43.51-35-50-13.7-12.16-23.81-15.61-36-32-4.63-6.23-11.38-15.48-15-29-6.81-25.46.81-52.72,14-65,2.88-2.68,7.2-6.7,14-9,6.59-2.23,16-3,16-3-.39-2.42-.91-6-1.37-10.27-1.2-11.29-2.38-22.46-.63-32.73,3.81-22.33,20.72-36,22-37a58.43,58.43,0,0,1,15.08-8.93L666,218c-4.35-3.3-26.62-19.34-48-11a34.58,34.58,0,0,0-7.38,4,57.79,57.79,0,0,0-11.56,12.5C591.16,236,588.37,251.38,587,259c-.55,3.05-.91,6-1.14,8.72A110.56,110.56,0,0,0,588,294Z" transform="translate(-412.21 -188)"/><path class="cls-10" d="M705.8,510.74A290.24,290.24,0,0,0,703,541c-.1,3-.28,9.39-3.66,15.51a34.85,34.85,0,0,0,2.17-3A42.27,42.27,0,0,0,705,542,275.31,275.31,0,0,1,705.8,510.74Z" transform="translate(-412.21 -188)"/><path class="cls-9" d="M711,480.4c-2.51,10.63-4.05,18.3-4.87,28.21,1.67-11.21,3.62-20.53,4.89-25.61,2.1-8.38,5.73-15.92,13-31,.56-1.17,1.12-2.3,1.66-3.41-.67,1-1.24,1.79-1.66,2.41C719.25,458,714.54,467.41,711,480.4Z" transform="translate(-412.21 -188)"/><path class="cls-9" d="M687.88,566.15c0,.29.08.58.12.85a26.11,26.11,0,0,0,9-7,24.74,24.74,0,0,0,2.34-3.49A42.18,42.18,0,0,1,687.88,566.15Z" transform="translate(-412.21 -188)"/><path class="cls-9" d="M682,236.32A73.25,73.25,0,0,0,674,226c-1.59-1.77-3.77-4.17-6.46-6.77A60.14,60.14,0,0,1,682,236.32Z" transform="translate(-412.21 -188)"/><path class="cls-10" d="M758,392c-8.89,21.23-16.2,23.93-32.34,56.59-.67,1-1.24,1.79-1.66,2.41-4.75,7-9.46,16.41-13,29.4.62-2.6,1.29-5.37,2-8.4a335.8,335.8,0,0,1,17-52c10.18-23.75,12.71-21.09,19-38,5.88-15.81,13.5-36.29,8-60-1.31-5.67-10.24-41.12-38-48-10.69-2.65-20.32-.1-26,2-.55-3.56-1-6.66-1.51-9.37a108.74,108.74,0,0,1,11.81-7.81A212.17,212.17,0,0,1,730,248c.83-.27,3-.86,6-1.47A121.55,121.55,0,0,1,752,268c14.68,25.05,16.39,48.54,17,59A148.35,148.35,0,0,1,758,392Z" transform="translate(-412.21 -188)"/><path class="cls-9" d="M667.54,219.23c-.48-.39-1-.78-1.46-1.16l.18-.07C666.7,218.41,667.13,218.82,667.54,219.23Z" transform="translate(-412.21 -188)"/><path class="cls-9" d="M705.8,510.74c.1-.71.21-1.43.31-2.13.82-9.91,2.36-17.58,4.87-28.21A171.1,171.1,0,0,0,705.8,510.74Z" transform="translate(-412.21 -188)"/><path class="cls-9" d="M691.49,266.63,691,267a72.12,72.12,0,0,0-9-30.68A59,59,0,0,1,688,249S689.08,252.23,691.49,266.63Z" transform="translate(-412.21 -188)"/><path class="cls-9" d="M682,236.32A73.25,73.25,0,0,0,674,226c-1.59-1.77-3.77-4.17-6.46-6.77-.48-.39-1-.78-1.46-1.16A58.43,58.43,0,0,0,651,227c-1.28,1-18.19,14.67-22,37-1.75,10.27-.57,21.44.63,32.73.46,4.3,1,7.85,1.37,10.27,0,0-9.41.77-16,3-6.8,2.3-11.12,6.32-14,9-13.19,12.28-20.81,39.54-14,65,3.62,13.52,10.37,22.77,15,29,12.19,16.39,22.3,19.84,36,32,7.32,6.49,24.88,23.76,35,50,4.53,11.76,6.69,23.51,11,47,1.82,9.91,3.07,18.24,3.88,24.15a42.18,42.18,0,0,0,11.46-9.64c3.38-6.12,3.56-12.5,3.66-15.51a290.24,290.24,0,0,1,2.8-30.26A171.1,171.1,0,0,1,711,480.4c.62-2.6,1.29-5.37,2-8.4a335.8,335.8,0,0,1,17-52c10.18-23.75,12.71-21.09,19-38,5.88-15.81,13.5-36.29,8-60-1.31-5.67-10.24-41.12-38-48-10.69-2.65-20.32-.1-26,2-.55-3.56-1-6.66-1.51-9.37L691,267A72.12,72.12,0,0,0,682,236.32Z" transform="translate(-412.21 -188)"/><path class="cls-12" d="M583.5,370.5s13.41,13.64,40,40c33.53,33.25,49,47,49,47a267.5,267.5,0,0,1-58-46A256.81,256.81,0,0,1,583.5,370.5Z" transform="translate(-412.21 -188)"/><path class="cls-12" d="M670,391l0,0c-23.56-23.16-35.45-45-55.46-82.46a102.2,102.2,0,0,1-9-22,97.88,97.88,0,0,1-3-16q13.29,26.79,28.85,55C644.18,348.67,657.13,370.5,670,391Z" transform="translate(-412.21 -188)"/><path class="cls-12" d="M647.5,242.5c-1.47.48,5.21,19.47,13,59,1.06,5.4,5.86,30,10,63,3,23.87,5.56,43.39,6,69,.6,34.94-2.68,59.94-2,60s5.47-31.31,7-70c1.62-41.13-.25-62.43-1-69a352.45,352.45,0,0,0-8-44C663.36,273.43,649.42,241.87,647.5,242.5Z" transform="translate(-412.21 -188)"/><path class="cls-12" d="M681.5,423.5a146.87,146.87,0,0,0,17-42c2-8.44,2.63-15.29,4-29,2-19.79,3.3-43.86,2-44-.79-.08-1.92,8.68-7,36-3.46,18.6-6.34,32.83-8,41C687.39,395.9,684.72,408.75,681.5,423.5Z" transform="translate(-412.21 -188)"/><path class="cls-12" d="M672.5,514.5a591.4,591.4,0,0,0,36-82c15.92-45.3,23.45-84.34,25-84,1.27.28-3.54,26.56-6,39-7.3,37-14.79,57.95-17,64-3.48,9.53-5.75,15.71-10,24A163.16,163.16,0,0,1,672.5,514.5Z" transform="translate(-412.21 -188)"/><path class="cls-9" d="M597.5,429.5a273.66,273.66,0,0,1,35,34c22.85,26.56,35.61,51.79,37,51,.88-.5-3.65-10.84-9-20-6.15-10.54-13-18.77-24-30A422.35,422.35,0,0,0,597.5,429.5Z" transform="translate(-412.21 -188)"/><path class="cls-9" d="M632.5,509.5c.43-.62,11.58,4.31,21,14,12.94,13.31,16.81,29.6,16,30s-5.56-13.88-20-29C640.3,514.86,632.11,510.05,632.5,509.5Z" transform="translate(-412.21 -188)"/><path class="cls-9" d="M672.5,570.5c-.53.07-5.22-17.58-5-40,.18-18.22,3.54-33.05,4-33s-.7,8.39-1,24c0,2-.15,8.43,0,16C670.91,558.34,672.94,570.44,672.5,570.5Z" transform="translate(-412.21 -188)"/><path class="cls-12" d="M581,543c-2.52-1.41-5-2.81-7.34-4.28,3.08-2,3.32-12.46,3.34-13.72a41.7,41.7,0,0,0-3-16,30.79,30.79,0,0,1,1,12c-.57,5-1,9-4,12-.81.81-1.84,1.6-2,2.64A56.54,56.54,0,0,1,556,523c-4.2-5.66-3.07-6.3-9-17-1.43-2.59-2.88-5-4.31-7.34,1.88-1.85,5-11,6.31-21.66.82-6.87.67-12.92,0-13-.84-.1-1.51,9.1-6,17-2.67,4.69-4,7-5,8-.35.33-.72.66-1,1a142.27,142.27,0,0,0-15-18c-.89-.9-1.77-1.76-2.63-2.58,2.7-2.12,5.11-9.88,5.63-16.42.94-11.71-4-20.95-4.31-20.88A33.11,33.11,0,0,1,523,447c-.38,4.11-1.22,13.09-6,17a6.64,6.64,0,0,0-1.65,1.74c-4.11-3.62-7.25-5.94-8.35-6.74-15.67-11.43-31.47-17-32-16s11.93,6.48,28.25,19.18c-5.05,1.2-8.32,2.27-10.25,2.82a56,56,0,0,1-15,2,38.07,38.07,0,0,1-19-6,53.9,53.9,0,0,0,6.4,4,51.81,51.81,0,0,0,13.6,5c10.24,2,20.95-2.8,26.38-6.14,3.42,2.74,7,5.77,10.62,9.14a114.28,114.28,0,0,1,17,19,82.7,82.7,0,0,1,9.41,17.59c-3,.79-7.1,2.36-12.41,3.41-6.26,1.24-11.2,1.13-17,1-10.09-.22-16.56-1.91-16.65-1.45s6.19,2.31,12.65,3.45l.58.1c10.89,1.82,23.42.9,23.42.9a79.54,79.54,0,0,0,12.21-1.45c.25.47.51,1,.79,1.45,9.59,17.17,25.15,26.7,40,34.45l-1,.55c-1.35.69-4.58,1.47-11,3-4.64,1.11-7,1.66-9,2-5.79,1-9,.84-9,1s9.54.58,17-1c.52-.11,1.46-.32,2.49-.57A56,56,0,0,0,584,554c1.31-.53,2.61-1.17,3.66-1.71L593,555c17.89,9,33.73,12.69,34,12S608.48,558.39,581,543Z" transform="translate(-412.21 -188)"/></svg>