<svg id="Layer_2" data-name="Layer 2" xmlns="http://www.w3.org/2000/svg" viewBox="0 0 342.78 279.58"><defs><style>.cls-1,.cls-6{fill:#b3b3b3;}.cls-2{fill:#e6e6e6;}.cls-3{fill:#ccc;}.cls-4,.cls-6{font-size:26.71px;font-family:ArialRoundedMTBold, Arial Rounded MT Bold;}.cls-4{fill:#1a1a1a;}.cls-5{fill:#fff;}.cls-7{fill:#59c15d;}.cls-8{fill:#4eaa45;}.cls-9{fill:#3d8936;}.cls-10{fill:#f8f2a9;}</style></defs><path class="cls-1" d="M579.75,232.47a2.23,2.23,0,0,0,1.15,2.47,11.42,11.42,0,0,1,3.16,2.3,12.71,12.71,0,0,1,2.36,3.44,12.14,12.14,0,0,1,.91,7.72,2.26,2.26,0,0,0,1.14,2.45,11.18,11.18,0,0,1,3,2.28,12.52,12.52,0,0,1,2.28,3.36,12.2,12.2,0,0,1,1,7.19,2.18,2.18,0,0,0,1,2.22,11.41,11.41,0,0,1,2.75,2.24,12.4,12.4,0,0,1,2.08,3.15,12.13,12.13,0,0,1,.94,7.6,2.19,2.19,0,0,0,1,2.27,15.3,15.3,0,0,1,5.69,6.52l26.76,57.46c3.25,7,3.32,20-2.76,22.9L577.41,394c-6.08,2.87-16-5.52-19.25-12.5L531.4,324a15.38,15.38,0,0,1-1.34-8.58,2.22,2.22,0,0,0-1.09-2.24,11.62,11.62,0,0,1-3-2.27,12.77,12.77,0,0,1-2.24-3.31,12.27,12.27,0,0,1-1-7.19,2.18,2.18,0,0,0-1-2.22A11.91,11.91,0,0,1,519,296a12.7,12.7,0,0,1-2.09-3.15,12.14,12.14,0,0,1-.91-7.72,2.23,2.23,0,0,0-1.14-2.44,11.42,11.42,0,0,1-3-2.29,12.7,12.7,0,0,1-2.28-3.35,12.1,12.1,0,0,1-.86-7.95,2.19,2.19,0,0,0-1.14-2.46,11.9,11.9,0,0,1-5.35-5.4l-.18-.36-9.31-20a26.24,26.24,0,0,1-2.46-10.52,24.46,24.46,0,0,1,.4-4.84l6.74-35.87-.81.38a1.46,1.46,0,0,1-1.9-.84l-5.25-11.27a1.48,1.48,0,0,1,.58-2l31.73-15a1.47,1.47,0,0,1,1.9.84L528.85,173a1.5,1.5,0,0,1-.57,2l-.81.38,31.7,17.71a24.28,24.28,0,0,1,4,2.78,26.1,26.1,0,0,1,6.46,8.63l9.31,20c.06.12.11.24.16.36A12.05,12.05,0,0,1,579.75,232.47Z" transform="translate(-489.22 -156.5)"/><path class="cls-2" d="M569.58,204.52l9.31,20c.06.12.11.24.16.36l-76.89,36.34-.18-.36-9.31-20a26.24,26.24,0,0,1-2.46-10.52l72.91-34.45A26.1,26.1,0,0,1,569.58,204.52Z" transform="translate(-489.22 -156.5)"/><path class="cls-3" d="M606.21,287.3a14.6,14.6,0,0,0-5.42-6.22,2.08,2.08,0,0,1-1-2.16,11.58,11.58,0,0,0-.89-7.25,12,12,0,0,0-2-3,11,11,0,0,0-2.62-2.13,2.11,2.11,0,0,1-1-2.13,10.68,10.68,0,0,0,.12-2.66,61,61,0,0,0-20.14-4.45c-15.9-.69-22.39,6.7-35.26,3.34-2.79-.73-6.23-2.05-11.13-1.49-4.49.52-6.34,2.17-11.13,3a28.38,28.38,0,0,1-10.93-.37c0,.07.09.18.16.32a11.35,11.35,0,0,0,5.1,5.15,2.08,2.08,0,0,1,1.09,2.34,11.49,11.49,0,0,0,.82,7.58,12,12,0,0,0,2.17,3.2,10.73,10.73,0,0,0,2.89,2.18,2.15,2.15,0,0,1,1.09,2.33,11.5,11.5,0,0,0,.87,7.36,11.84,11.84,0,0,0,2,3,11.29,11.29,0,0,0,2.63,2.13,2.07,2.07,0,0,1,1,2.12,12,12,0,0,0,3.11,10,11.24,11.24,0,0,0,2.83,2.17,2.11,2.11,0,0,1,1,2.13A14.59,14.59,0,0,0,532.9,322l25.51,54.77c3.1,6.66,12.55,14.65,18.34,11.91l52.34-24.73c5.79-2.74,5.73-15.17,2.63-21.83Z" transform="translate(-489.22 -156.5)"/><text class="cls-4" transform="matrix(0.9, -0.43, 0.42, 0.91, 21.31, 94.11)">MKU</text><path class="cls-5" d="M498.74,197.64a20.23,20.23,0,0,1,1.08,6.4,30.19,30.19,0,0,1-.51,6.11,31,31,0,0,1-1.72,5.89,20.67,20.67,0,0,1-3.31,5.6l-.33-.06c.31-2,.64-4,1-6l1.06-6,1.17-6c.37-2,.78-4,1.22-6Z" transform="translate(-489.22 -156.5)"/><polygon class="cls-5" points="40.95 17.67 36.72 19.84 32.44 21.92 23.88 26.07 15.24 30.04 10.91 32.02 6.54 33.91 6.53 33.88 40.94 17.63 40.95 17.67"/><text class="cls-6" transform="matrix(0.9, -0.43, 0.42, 0.91, 19.35, 92.75)">MKU</text><path class="cls-7" d="M632.32,427.65c-3.41,2.81-5.91,2.67-34.14,2.23-35.11-.55-44.37-.54-56.41-6.68-10.38-5.3-14.73-11-16.33-13.36-1.05-1.53-11.51-17.21-4.46-29.69a20.64,20.64,0,0,1,7.42-7.43,58.34,58.34,0,0,1-15.58-11.87c-3.88-4.17-8.15-8.76-10.4-16.33a34.14,34.14,0,0,1,0-19.3c.75-2.4,2.37-7.65,6.68-11.88,10.33-10.13,28.92-7.38,40.09-2.23A45.12,45.12,0,0,1,564,322.25a25.82,25.82,0,0,1,9.65-12.62c10-6.61,22-3,24.5-2.23,23.62,7.14,31.77,42.91,36.37,63.1C639.22,391,645.17,417.1,632.32,427.65Z" transform="translate(-489.22 -156.5)"/><path class="cls-8" d="M564.78,320c10.48,15.67,17.18,26,20.78,31.92a108.28,108.28,0,0,0,8.15,11.81c1.33,1.68,2.82,3.44,4.47,5.26,5.91,6.51,8.87,9.76,13.36,11.88,3.43,1.61,6.26,2.1,8.91,5.19,2.06,2.42,2.8,5,3.71,8.17a43.77,43.77,0,0,1,1.48,11.13c.12,2.86-.07,2.6,0,7.43.13,7.87.74,9.32,1.49,10.39s2.27,2.76,5.94,3.71a26,26,0,0,1-3-5.94,29,29,0,0,1-1.49-7.42,64.55,64.55,0,0,1,0-6.68,67.08,67.08,0,0,0-.74-8.91,41.78,41.78,0,0,0-5.2-14.85c-3.42-5.57-7.75-8.46-10.39-10.39-7.34-5.38-12.81-12.49-23.75-26.72a202,202,0,0,1-20-31.92Q566.63,317.05,564.78,320Z" transform="translate(-489.22 -156.5)"/><path class="cls-9" d="M690.9,429.39a15.78,15.78,0,0,1-6.47.28l.23-.4a59.72,59.72,0,0,1-9.12-1.58c-4.71-1.1-14.75-3.43-16.29-9.52-.58-2.33.24-4.53,1.8-8.64a38.68,38.68,0,0,1,5-9.15,92.08,92.08,0,0,0,8.48-17.31A107,107,0,0,0,679.72,361c.65-4.31,1-7.88,1.22-10.58.36-3.94.73-9.11.88-15.56.42-18.44-1.62-17.16-.17-25A41.37,41.37,0,0,1,689.88,291c.11-.14.28-.36.5-.61,2.52-3.05,14.18-16.15,27.9-14.59a22.17,22.17,0,0,1,11.44,5,59.46,59.46,0,0,1,7.8-12,52.69,52.69,0,0,0-5.71,7.53,40.76,40.76,0,0,0-7.68-4.45c-3.63-1.61-12.39-5.54-23-3.51-10,1.91-16,8-18.59,10.59-6,6.12-7.88,12.2-10.9,22.25-4.27,14.23-4.84,25.66-5.35,35.77a173,173,0,0,0,.5,24.59c.36,4.27,1,5.7,1.48,11.13,1.06,10.81,1.55,16.31-.86,21.4-2.16,4.58-4,4-6.89,9.84-2.25,4.5-4.37,8.75-3.1,13,2.09,7,12,9.75,20,12,6.52,1.81,9.87,1.42,10.82,1.29a21.22,21.22,0,0,0,6.94-2.24c-.66.25-1.32.45-2,.63A15.64,15.64,0,0,1,690.9,429.39Z" transform="translate(-489.22 -156.5)"/><path class="cls-9" d="M767.85,251.76a26.25,26.25,0,0,0-9.48,1.88A35,35,0,0,1,767.85,251.76Z" transform="translate(-489.22 -156.5)"/><path class="cls-9" d="M831.61,321.72c-2.12-8.59-12.55-14-18.07-16.27a60.5,60.5,0,0,1,.2,14.21c-1.63,15.34-8.69,26-11.91,30.76a83.21,83.21,0,0,1-26.77,24.8c-11.18,6.49-15.44,5.42-33.77,14.65,3.47-1.18,10.3-3.5,19.11-7.35,1.79-.78,8.13-3.52,18.42-9,11.36-6,17.41-9.28,22.72-12.82C807.58,356.68,835.62,338,831.61,321.72Z" transform="translate(-489.22 -156.5)"/><path class="cls-8" d="M758.37,253.64a45.55,45.55,0,0,0-7.43,3.27c-5.8,3.17-9.54,7.43-12.45,10.74l-1,1.13c1-1.12,2.17-2.27,3.44-3.43C744.13,262.47,750.56,256.64,758.37,253.64Z" transform="translate(-489.22 -156.5)"/><path class="cls-8" d="M790.94,271.72s0,0,0,0l.1,0c-1.26-6.06-4.22-14-12.1-17.88a22.32,22.32,0,0,0-11.11-2.16,20.71,20.71,0,0,1,4.72.53C785.18,255.21,790.05,269,790.94,271.72Z" transform="translate(-489.22 -156.5)"/><path class="cls-8" d="M700.59,424a23.9,23.9,0,0,1-5.46,3.93c.52-.19,1-.4,1.54-.64,6.36-3,6.22-7,15.07-16.85l.52-.57-.85.83A149.9,149.9,0,0,0,700.59,424Z" transform="translate(-489.22 -156.5)"/><path class="cls-8" d="M729.72,280.82a22.17,22.17,0,0,0-11.44-5c-13.72-1.56-25.38,11.54-27.9,14.59-.22.25-.39.47-.5.61a41.37,41.37,0,0,0-8.23,18.78c-1.45,7.86.59,6.58.17,25-.15,6.45-.52,11.62-.88,15.56-.24,2.7-.57,6.27-1.22,10.58a107,107,0,0,1-5.22,22.09A92.08,92.08,0,0,1,666,400.38a38.68,38.68,0,0,0-5,9.15c-1.56,4.11-2.38,6.31-1.8,8.64,1.54,6.09,11.58,8.42,16.29,9.52a59.72,59.72,0,0,0,9.12,1.58c1.6-2.82,3.81-6.81,6.29-11.66,5.87-11.49,8.8-17.24,10.65-23.72a65.87,65.87,0,0,0,.63-32.36c-2.23-9.45-5.72-14-5.84-24.87a41.31,41.31,0,0,1,2.8-17.14c5.38-13.12,18-22.6,28.15-23.89a22.68,22.68,0,0,1,9.44.38,46.69,46.69,0,0,1,8.35,3.58c.63-1.17,1.57-2.86,2.8-4.87,3.22-5.25,6.41-10.45,10.65-14.37,9.21-8.51,21.54-9.27,22.47-9.31a35.22,35.22,0,0,1,9.91.73s0,0,0,0c-.89-2.76-5.76-16.51-18.37-19.43a20.71,20.71,0,0,0-4.72-.53,35,35,0,0,0-9.48,1.88c-7.81,3-14.24,8.83-17.41,11.71-1.27,1.16-2.41,2.31-3.44,3.43A59.46,59.46,0,0,0,729.72,280.82Z" transform="translate(-489.22 -156.5)"/><path class="cls-8" d="M711.41,410.73A161.91,161.91,0,0,0,700,423a19.17,19.17,0,0,1-6.86,5.6c.66-.18,1.32-.38,2-.63a23.9,23.9,0,0,0,5.46-3.93A149.9,149.9,0,0,1,711.41,410.73Z" transform="translate(-489.22 -156.5)"/><path class="cls-7" d="M723.92,399.17a99.9,99.9,0,0,0-11.66,10.73c4.51-4.35,8.52-7.79,10.8-9.6,3.77-3,8-5.15,16.33-9.46l1.9-1-1.56.53A57.58,57.58,0,0,0,723.92,399.17Z" transform="translate(-489.22 -156.5)"/><path class="cls-7" d="M684.66,429.27l-.23.4a14.95,14.95,0,0,0,8.72-1.08A26,26,0,0,1,684.66,429.27Z" transform="translate(-489.22 -156.5)"/><path class="cls-7" d="M792.16,284.54a35.74,35.74,0,0,0-.22-6.91c-.13-1.25-.33-3-.7-4.91A29.92,29.92,0,0,1,792.16,284.54Z" transform="translate(-489.22 -156.5)"/><path class="cls-8" d="M775.06,375.22c-11.18,6.49-15.44,5.42-33.77,14.65l-1.56.53a57.77,57.77,0,0,0-15.81,8.76l3.74-3a195.72,195.72,0,0,1,25.18-17.34c12.61-7.18,12.89-5.25,21.43-10.66,8-5.05,18.32-11.6,23.72-23.55,1.29-2.86,9-20.95-1.42-32.41A25.21,25.21,0,0,0,784,305.1c.94-1.71,1.75-3.2,2.44-4.52a66.9,66.9,0,0,1,8,.22,128.15,128.15,0,0,1,15.87,3.47c.48.14,1.65.53,3.23,1.18a60.5,60.5,0,0,1,.2,14.21c-1.63,15.34-8.7,26-11.91,30.76A83.21,83.21,0,0,1,775.06,375.22Z" transform="translate(-489.22 -156.5)"/><path class="cls-7" d="M791.24,272.72c-.09-.31-.18-.63-.28-.94l.1,0C791.13,272.11,791.19,272.42,791.24,272.72Z" transform="translate(-489.22 -156.5)"/><path class="cls-7" d="M711.41,410.73l.85-.83a99.9,99.9,0,0,1,11.66-10.73A95.78,95.78,0,0,0,711.41,410.73Z" transform="translate(-489.22 -156.5)"/><path class="cls-7" d="M786.4,300.58h-.35a37.34,37.34,0,0,0,6.11-16,30,30,0,0,1-1.47,7.34A81.85,81.85,0,0,1,786.4,300.58Z" transform="translate(-489.22 -156.5)"/><path class="cls-7" d="M792.16,284.54a35.74,35.74,0,0,0-.22-6.91c-.14-1.25-.33-3-.7-4.9-.09-.32-.18-.64-.28-1a35.22,35.22,0,0,0-9.91-.73c-.93,0-13.26.8-22.47,9.31-4.24,3.92-7.43,9.12-10.65,14.37-1.23,2-2.17,3.7-2.8,4.87a46.69,46.69,0,0,0-8.35-3.58,22.68,22.68,0,0,0-9.44-.38c-10.16,1.29-22.77,10.77-28.15,23.89a41.31,41.31,0,0,0-2.8,17.14c.12,10.83,3.61,15.42,5.84,24.87a65.87,65.87,0,0,1-.63,32.36c-1.85,6.48-4.78,12.23-10.65,23.72-2.48,4.85-4.69,8.84-6.29,11.66a26,26,0,0,0,8.49-.68A19.17,19.17,0,0,0,700,423a161.91,161.91,0,0,1,11.4-12.26,95.78,95.78,0,0,1,12.51-11.56l3.74-3a195.72,195.72,0,0,1,25.18-17.34c12.61-7.18,12.89-5.25,21.43-10.66,8-5.05,18.32-11.6,23.72-23.55,1.29-2.86,9-20.95-1.42-32.41A25.25,25.25,0,0,0,784,305.1c.94-1.71,1.75-3.21,2.44-4.52h-.35A37.2,37.2,0,0,0,792.16,284.54Z" transform="translate(-489.22 -156.5)"/><path class="cls-10" d="M702.09,312.6s1.61,10,5,29.55c4.29,24.65,6.8,35.34,6.8,35.34a133.18,133.18,0,0,1-11.27-37.66A127.49,127.49,0,0,1,702.09,312.6Z" transform="translate(-489.22 -156.5)"/><path class="cls-10" d="M735,347.91v0c-3.09-17.24-1.25-30.33,2.08-52.68a51.08,51.08,0,0,1,7.18-20.13c-1.89,10.45-3.62,21.34-5.12,32.65C737.26,321.68,735.91,335.09,735,347.91Z" transform="translate(-489.22 -156.5)"/><path class="cls-10" d="M774.26,276.69c-.84-.25-4.11,10-13.74,29.53-1.32,2.67-7.34,14.8-16.46,30.36-6.6,11.26-11.95,20.5-20.3,31.73-11.4,15.32-21.26,25.15-21,25.39s13-11.9,26.61-28.2c14.48-17.32,20.74-27.12,22.59-30.2a185.74,185.74,0,0,0,11-21.51C771.21,294.93,775.35,277,774.26,276.69Z" transform="translate(-489.22 -156.5)"/><path class="cls-10" d="M729.4,365.5a86.34,86.34,0,0,0,21.84-13c3.71-3.06,6.32-5.82,11.52-11.35,7.53-8,16.18-18,15.63-18.45-.34-.28-3.79,3.18-15.25,13.46-7.8,7-13.88,12.29-17.37,15.32C741.32,355.34,735.8,360.09,729.4,365.5Z" transform="translate(-489.22 -156.5)"/><path class="cls-10" d="M694.85,402.18a347.67,347.67,0,0,0,43.94-24.53c22.45-14.76,39-29.38,39.55-28.76s-10.5,10.43-15.79,15.07c-15.7,13.78-26.15,20.59-29.19,22.54a111.76,111.76,0,0,1-12.61,7.34A98.37,98.37,0,0,1,694.85,402.18Z" transform="translate(-489.22 -156.5)"/><path class="cls-7" d="M688.81,342.44a134.92,134.92,0,0,1,4.71,25.43c1.62,18.48-.95,33.32,0,33.4.57.05,1.94-5.81,2.55-11.42.69-6.44.31-12.09-1-20.33A209.43,209.43,0,0,0,688.81,342.44Z" transform="translate(-489.22 -156.5)"/><path class="cls-7" d="M678.15,387.8c.41-.14,3.88,5.4,5,12.48,1.5,9.72-2.17,18-2.68,17.89s2.09-7.72.51-18.68C679.94,392.5,677.79,387.92,678.15,387.8Z" transform="translate(-489.22 -156.5)"/><path class="cls-7" d="M676.14,426.45c-.27-.13,3.48-9.21,11.07-18.86,6.17-7.84,12.67-13.24,12.87-13.08s-3.13,3.42-8.48,10.1c-.68.84-2.89,3.6-5.35,6.93C679.47,420.7,676.36,426.56,676.14,426.45Z" transform="translate(-489.22 -156.5)"/><path class="cls-9" d="M682.06,421.71a19.31,19.31,0,0,1-6.68,5.2l-.09-.63a72.44,72.44,0,0,1-11,5.08c-5.92,2.31-18.57,7.24-25.23,1.49-2.55-2.2-3.47-5.31-5.2-11.14a54.77,54.77,0,0,1-2.23-14.1,131.12,131.12,0,0,0-5.19-26c-3.87-12.51-8.87-21.89-12.62-28.95-2.86-5.37-5.45-9.65-7.42-12.9-2.86-4.73-6.73-10.86-11.88-18.28-14.74-21.2-15.86-18.21-20.79-28.2-5.28-10.72-6.79-19.85-6.68-27.47,0-.23,0-.61,0-1.06.19-5.36,1.86-29,17.79-37.54,2.59-1.39,8-3.68,16.33-3a82.07,82.07,0,0,1-1.59-19.51,71.63,71.63,0,0,0,.1,12.82,54.11,54.11,0,0,0-11.87.75c-5.2.91-17.8,3.06-27.47,13.36-9.06,9.64-10.56,21.11-11.13,26-1.34,11.43,1.63,19.76,6.68,33.4,7.16,19.34,16,32.71,23.75,44.54a260.27,260.27,0,0,0,20.79,27.46c3.91,4.57,5.71,5.74,10.76,11.5,10,11.43,15.08,17.3,16.7,24.88,1.46,6.81-1,7.5.74,16.33,1.31,6.78,2.55,13.19,7.43,17.07,8,6.34,20.82,2,31.17-1.49,8.46-2.85,11.72-5.82,12.62-6.68a25.91,25.91,0,0,0,5.57-7.76,25.34,25.34,0,0,1-1.61,2.2A17.18,17.18,0,0,1,682.06,421.71Z" transform="translate(-489.22 -156.5)"/><path class="cls-9" d="M617.94,162.64a32,32,0,0,0-8.58,9.28A42.71,42.71,0,0,1,617.94,162.64Z" transform="translate(-489.22 -156.5)"/><path class="cls-9" d="M743.67,193.83c-9.34-8.12-24.93-6.4-32.7-4.8A89.75,89.75,0,0,1,722.88,205a95,95,0,0,1,12.62,43.79A110.23,110.23,0,0,1,727.34,297c-6.6,15.76-12,17.76-24,42,2.74-3.95,8.12-11.71,14.36-22.71,1.26-2.24,5.79-10.11,12.26-24.05,7.16-15.41,11-23.62,13.72-31.62C746.8,251.52,761.34,209.21,743.67,193.83Z" transform="translate(-489.22 -156.5)"/><path class="cls-8" d="M609.36,171.92a57.27,57.27,0,0,0-5.24,9.29c-3.59,8-4.08,15.6-4.46,21.53,0,.68-.07,1.35-.1,2,.17-2,.44-4.21.85-6.47C601.42,192.63,603.49,181.19,609.36,171.92Z" transform="translate(-489.22 -156.5)"/><path class="cls-8" d="M659.05,167.85l.06.05.13-.05c-6.34-5.91-16-12.64-27.66-11.13a27.74,27.74,0,0,0-13.64,5.92,25.68,25.68,0,0,1,5.48-2.95C639.29,153.5,655.81,165.4,659.05,167.85Z" transform="translate(-489.22 -156.5)"/><path class="cls-8" d="M688,408.35a31.18,31.18,0,0,1-2.6,8.57c.39-.61.77-1.23,1.11-1.89,4.33-8.18.9-12.58,2.23-30.43,0-.35,0-.69.08-1-.08.52-.15,1.05-.23,1.58A204.68,204.68,0,0,0,688,408.35Z" transform="translate(-489.22 -156.5)"/><path class="cls-8" d="M601.15,224.27c-8.36-.72-13.74,1.57-16.33,3-15.93,8.58-17.6,32.18-17.79,37.54,0,.45,0,.83,0,1.06-.11,7.62,1.4,16.75,6.68,27.47,4.93,10,6.05,7,20.79,28.2,5.15,7.42,9,13.55,11.88,18.28,2,3.25,4.56,7.53,7.42,12.9,3.75,7.06,8.75,16.44,12.62,28.95a131.12,131.12,0,0,1,5.19,26,54.77,54.77,0,0,0,2.23,14.1c1.73,5.83,2.65,8.94,5.2,11.14,6.66,5.75,19.31.82,25.23-1.49a72.44,72.44,0,0,0,11-5.08c-.61-4.39-1.53-10.57-2.88-17.93-3.2-17.44-4.8-26.16-8.17-34.89a98.63,98.63,0,0,0-26-37.11c-10.16-9-17.67-11.59-26.72-23.75-3.44-4.63-8.45-11.49-11.13-21.53-5.06-18.9.6-39.13,10.39-48.25a27.92,27.92,0,0,1,10.39-6.68,61.49,61.49,0,0,1,11.88-2.23c-.29-1.79-.68-4.43-1-7.62-.89-8.38-1.77-16.67-.47-24.29,2.83-16.58,15.38-26.72,16.33-27.47a43.45,43.45,0,0,1,11.2-6.63l-.06-.05c-3.24-2.45-19.76-14.35-35.63-8.16a25.68,25.68,0,0,0-5.48,2.95,42.71,42.71,0,0,0-8.58,9.28c-5.87,9.27-7.94,20.71-9,26.37-.41,2.26-.68,4.42-.85,6.47A82.07,82.07,0,0,0,601.15,224.27Z" transform="translate(-489.22 -156.5)"/><path class="cls-8" d="M688.59,385.15a215.52,215.52,0,0,0-2.08,22.46,24.86,24.86,0,0,1-2.72,11.51,25.34,25.34,0,0,0,1.61-2.2,31.18,31.18,0,0,0,2.6-8.57A204.68,204.68,0,0,1,688.59,385.15Z" transform="translate(-489.22 -156.5)"/><path class="cls-7" d="M692.44,362.63a130.88,130.88,0,0,0-3.62,20.94c1.24-8.32,2.69-15.24,3.63-19,1.56-6.22,4.26-11.82,9.65-23l1.23-2.53c-.5.72-.92,1.32-1.23,1.78A72.28,72.28,0,0,0,692.44,362.63Z" transform="translate(-489.22 -156.5)"/><path class="cls-7" d="M675.29,426.28l.09.63a19.31,19.31,0,0,0,6.68-5.2,17.18,17.18,0,0,0,1.73-2.59A31.22,31.22,0,0,1,675.29,426.28Z" transform="translate(-489.22 -156.5)"/><path class="cls-7" d="M670.9,181.45a54.5,54.5,0,0,0-5.91-7.66c-1.18-1.31-2.8-3.1-4.8-5A44.77,44.77,0,0,1,670.9,181.45Z" transform="translate(-489.22 -156.5)"/><path class="cls-8" d="M727.34,297c-6.6,15.76-12,17.76-24,42-.5.72-.92,1.32-1.23,1.78a72.28,72.28,0,0,0-9.66,21.83c.46-1.93.95-4,1.49-6.24a249.82,249.82,0,0,1,12.62-38.6c7.56-17.63,9.44-15.65,14.11-28.2,4.36-11.74,10-26.94,5.94-44.54-1-4.21-7.61-30.52-28.21-35.63-7.94-2-15.09-.07-19.3,1.48-.41-2.64-.78-4.94-1.12-7a79.92,79.92,0,0,1,8.76-5.8,157.84,157.84,0,0,1,19.82-8c.62-.2,2.2-.64,4.42-1.09A89.25,89.25,0,0,1,722.88,205a95,95,0,0,1,12.62,43.79A110.07,110.07,0,0,1,727.34,297Z" transform="translate(-489.22 -156.5)"/><path class="cls-7" d="M660.19,168.76l-1.08-.86.13-.05C659.57,168.16,659.89,168.46,660.19,168.76Z" transform="translate(-489.22 -156.5)"/><path class="cls-7" d="M688.59,385.15c.08-.53.15-1.06.23-1.58a130.88,130.88,0,0,1,3.62-20.94A126.6,126.6,0,0,0,688.59,385.15Z" transform="translate(-489.22 -156.5)"/><path class="cls-7" d="M678,204l-.37.27a53.26,53.26,0,0,0-6.7-22.77,43.87,43.87,0,0,1,4.48,9.41S676.18,193.26,678,204Z" transform="translate(-489.22 -156.5)"/><path class="cls-7" d="M670.9,181.45a55.11,55.11,0,0,0-5.91-7.66c-1.19-1.31-2.81-3.1-4.8-5-.35-.29-.71-.58-1.08-.86a43.45,43.45,0,0,0-11.2,6.63c-.95.75-13.5,10.89-16.33,27.47-1.3,7.62-.42,15.91.47,24.29.34,3.19.73,5.83,1,7.62a61.49,61.49,0,0,0-11.88,2.23,27.92,27.92,0,0,0-10.39,6.68c-9.79,9.12-15.45,29.35-10.39,48.25,2.68,10,7.69,16.9,11.13,21.53,9.05,12.16,16.56,14.73,26.72,23.75a98.63,98.63,0,0,1,26,37.11c3.37,8.73,5,17.45,8.17,34.89,1.35,7.36,2.27,13.54,2.88,17.93a31.22,31.22,0,0,0,8.5-7.16,24.86,24.86,0,0,0,2.72-11.51,215.52,215.52,0,0,1,2.08-22.46,126.6,126.6,0,0,1,3.85-22.52c.45-1.93.95-4,1.49-6.24a251,251,0,0,1,12.62-38.6c7.56-17.63,9.44-15.65,14.11-28.2,4.36-11.74,10-26.94,5.94-44.54-1-4.21-7.61-30.53-28.21-35.63-7.93-2-15.08-.08-19.3,1.48-.41-2.64-.78-4.94-1.12-7l-.37.27A53.41,53.41,0,0,0,670.9,181.45Z" transform="translate(-489.22 -156.5)"/><path class="cls-10" d="M597.81,281.05s10,10.12,29.69,29.69c24.89,24.68,36.37,34.89,36.37,34.89a198.6,198.6,0,0,1-43-34.15A190.16,190.16,0,0,1,597.81,281.05Z" transform="translate(-489.22 -156.5)"/><path class="cls-10" d="M662,296.27l0,0c-17.49-17.19-26.32-33.41-41.17-61.21a75.82,75.82,0,0,1-6.68-16.33,72.36,72.36,0,0,1-2.23-11.88q9.87,19.89,21.42,40.83C642.85,264.85,652.47,281.05,662,296.27Z" transform="translate(-489.22 -156.5)"/><path class="cls-10" d="M645.31,186c-1.09.35,3.87,14.45,9.65,43.79.79,4,4.36,22.29,7.43,46.77,2.22,17.72,4.12,32.2,4.45,51.21.45,25.94-2,44.5-1.48,44.54s4.06-23.24,5.19-52c1.21-30.53-.18-46.34-.74-51.22a262.19,262.19,0,0,0-5.94-32.66C657.09,209,646.74,185.57,645.31,186Z" transform="translate(-489.22 -156.5)"/><path class="cls-10" d="M670.55,320.39a108.91,108.91,0,0,0,12.62-31.17c1.45-6.27,2-11.36,3-21.53,1.47-14.69,2.45-32.56,1.49-32.66-.59-.06-1.43,6.44-5.2,26.72-2.57,13.8-4.71,24.37-5.94,30.43C674.92,299.91,672.94,309.44,670.55,320.39Z" transform="translate(-489.22 -156.5)"/><path class="cls-10" d="M663.87,387.94a438.5,438.5,0,0,0,26.72-60.87c11.82-33.62,17.41-62.6,18.56-62.35,1,.21-2.63,19.72-4.45,28.95-5.42,27.43-11,43-12.62,47.51A142.58,142.58,0,0,1,684.66,359,121.17,121.17,0,0,1,663.87,387.94Z" transform="translate(-489.22 -156.5)"/><path class="cls-7" d="M608.2,324.85a202.81,202.81,0,0,1,26,25.23c17,19.71,26.43,38.45,27.47,37.86.65-.37-2.71-8.05-6.69-14.85-4.56-7.82-9.62-13.93-17.81-22.26A311.31,311.31,0,0,0,608.2,324.85Z" transform="translate(-489.22 -156.5)"/><path class="cls-7" d="M634.18,384.23c.32-.46,8.59,3.2,15.59,10.39,9.6,9.88,12.48,22,11.88,22.27s-4.13-10.31-14.85-21.53C640,388.21,633.89,384.64,634.18,384.23Z" transform="translate(-489.22 -156.5)"/><path class="cls-7" d="M663.87,429.51c-.39.05-3.87-13.05-3.71-29.69.13-13.53,2.63-24.54,3-24.5s-.52,6.23-.74,17.82c0,1.47-.11,6.25,0,11.87C662.69,420.48,664.2,429.46,663.87,429.51Z" transform="translate(-489.22 -156.5)"/><path class="cls-10" d="M596,409.09c-1.86-1-3.68-2.08-5.44-3.17,2.28-1.47,2.46-9.25,2.47-10.19a30.88,30.88,0,0,0-2.22-11.87,22.85,22.85,0,0,1,.74,8.9c-.43,3.7-.77,6.7-3,8.91-.6.6-1.37,1.19-1.47,2a41.82,41.82,0,0,1-9.66-9.38c-3.12-4.2-2.29-4.67-6.69-12.62-1.06-1.92-2.13-3.73-3.19-5.45,1.39-1.37,3.74-8.16,4.68-16.08.6-5.09.5-9.59,0-9.65s-1.12,6.76-4.45,12.62c-2,3.49-3,5.23-3.72,5.94-.25.25-.53.49-.78.74a105.14,105.14,0,0,0-11.09-13.36c-.67-.67-1.32-1.3-1.95-1.91,2-1.57,3.79-7.33,4.17-12.19.7-8.7-3-15.55-3.19-15.5a24.75,24.75,0,0,1,1.71,11c-.28,3.05-.9,9.71-4.45,12.61a5,5,0,0,0-1.23,1.3c-3.05-2.69-5.38-4.41-6.2-5-11.63-8.48-23.36-12.62-23.75-11.87s8.85,4.8,21,14.23c-3.75.9-6.17,1.69-7.61,2.1a41.89,41.89,0,0,1-11.13,1.48,28.26,28.26,0,0,1-14.11-4.45,39.87,39.87,0,0,0,4.75,3,38.74,38.74,0,0,0,10.1,3.72c7.6,1.46,15.55-2.08,19.58-4.56,2.54,2,5.18,4.28,7.88,6.78a85.05,85.05,0,0,1,12.62,14.11,61.46,61.46,0,0,1,7,13.05c-2.26.59-5.27,1.76-9.21,2.54a54.63,54.63,0,0,1-12.62.74c-7.49-.17-12.29-1.42-12.36-1.08s4.59,1.72,9.39,2.56l.43.08a85.49,85.49,0,0,0,17.38.67,60.33,60.33,0,0,0,9.07-1.08c.18.35.38.71.58,1.08,7.12,12.74,18.67,19.81,29.73,25.57l-.78.41c-1,.51-3.4,1.09-8.16,2.22-3.44.82-5.16,1.23-6.68,1.49-4.3.71-6.69.62-6.68.74s7.08.43,12.61-.74l1.85-.42a41.14,41.14,0,0,0,6.32-1.81c1-.4,1.93-.87,2.72-1.27l4,2c13.28,6.71,25,9.43,25.24,8.91S616.35,420.52,596,409.09Z" transform="translate(-489.22 -156.5)"/></svg>