<svg id="Layer_2" data-name="Layer 2" xmlns="http://www.w3.org/2000/svg" viewBox="0 0 798.29 132.91"><defs><style>.cls-1{fill:#7faf51;}.cls-2,.cls-7{fill:#b3b3b3;}.cls-3{fill:#e6e6e6;}.cls-4{fill:#ccc;}.cls-5,.cls-7{font-size:11.96px;font-family:ArialRoundedMTBold, Arial Rounded MT Bold;}.cls-5{fill:#1a1a1a;}.cls-6{fill:#fff;}.cls-8{fill:#59c15d;}.cls-9{fill:#4eaa45;}.cls-10{fill:#3d8936;}.cls-11{fill:#f8f2a9;}</style></defs><path class="cls-1" d="M495.2,403.25l-20-81.88v88.72q0,7.37-3.2,11.05a11.5,11.5,0,0,1-16.83,0q-3.24-3.65-3.24-11.09V308.39q0-8.42,4.26-11.35t11.51-2.94h7.84c4.71,0,8.14.44,10.27,1.32a8.7,8.7,0,0,1,4.73,4.73A74.48,74.48,0,0,1,494,311.29l18.16,70.39,18.15-70.39a74.48,74.48,0,0,1,3.49-11.14,8.73,8.73,0,0,1,4.73-4.73q3.19-1.32,10.27-1.32h7.84q7.25,0,11.51,2.94t4.26,11.35v101.7q0,7.37-3.2,11.05a10.77,10.77,0,0,1-8.56,3.68,10.53,10.53,0,0,1-8.27-3.68q-3.24-3.69-3.24-11.05V321.37l-20,81.88q-2,8-3.2,11.71a16.24,16.24,0,0,1-4.56,6.79q-3.33,3.06-9.2,3.07a13.52,13.52,0,0,1-7.5-2,14,14,0,0,1-4.78-5A29.31,29.31,0,0,1,497.2,411C496.54,408.53,495.88,405.94,495.2,403.25Z" transform="translate(-284.88 -291.91)"/><path class="cls-1" d="M606,307.69v45.06l49.19-53.3a45.88,45.88,0,0,1,6-5.7,10.87,10.87,0,0,1,6.62-1.84,11.94,11.94,0,0,1,8.74,3.29,10.83,10.83,0,0,1,3.33,8q0,5.7-5.66,11.31l-30.45,30,35.1,52.25a65.73,65.73,0,0,1,5.56,9.52,19,19,0,0,1,1.86,7.93,10,10,0,0,1-3.25,7.45q-3.24,3.16-8.82,3.16a14.47,14.47,0,0,1-8.52-2.33,19.39,19.39,0,0,1-5.56-6.18q-2.28-3.85-4.05-7L626.54,362,606,382.39V409q0,8.07-3.54,12a11.77,11.77,0,0,1-9.12,3.9,12.46,12.46,0,0,1-10.71-6.49,15.92,15.92,0,0,1-1.44-5.7c-.16-2.16-.25-5.29-.25-9.38V307.69q0-7.89,3.33-11.83a11.26,11.26,0,0,1,9.07-3.95,11.74,11.74,0,0,1,9.16,3.9Q606,299.71,606,307.69Z" transform="translate(-284.88 -291.91)"/><path class="cls-1" d="M686.42,369.5V307.69q0-7.89,3.42-11.83a11.32,11.32,0,0,1,9-3.95,11.61,11.61,0,0,1,9.24,3.95q3.4,3.94,3.41,11.83V370.9a59.73,59.73,0,0,0,2.32,18A20.73,20.73,0,0,0,722,400.14q5.9,4,16.54,4,14.67,0,20.75-8.11t6.08-24.59V307.69q0-8,3.37-11.88a11.34,11.34,0,0,1,9-3.9,11.7,11.7,0,0,1,9.15,3.9q3.51,3.9,3.5,11.88V369.5q0,15.08-2.82,25.16A39.2,39.2,0,0,1,777,412.37a41.24,41.24,0,0,1-15.69,9.47,66.47,66.47,0,0,1-20.92,3q-14.26,0-24.55-3.2A39,39,0,0,1,699,411.71a40.3,40.3,0,0,1-9.54-17.18A90.83,90.83,0,0,1,686.42,369.5Z" transform="translate(-284.88 -291.91)"/><path class="cls-1" d="M863.5,341.29H826.11V366h31.26q4.33,0,6.48,2a7,7,0,0,1,2.14,5.36,6.84,6.84,0,0,1-2.17,5.33q-2.18,2-6.45,2H826.11v31.76c0,4-.89,7-2.65,9a9.42,9.42,0,0,1-13.68,0q-2.65-3-2.65-8.94V338.2a16.65,16.65,0,0,1,1.21-6.87,7.65,7.65,0,0,1,3.8-3.88,15.62,15.62,0,0,1,6.62-1.22H863.5c3,0,5.27.69,6.74,2.07a7.85,7.85,0,0,1,0,10.92C868.77,340.6,866.53,341.29,863.5,341.29Z" transform="translate(-284.88 -291.91)"/><path class="cls-1" d="M939.16,387.78a43.7,43.7,0,0,1-2.43,14.79,32.88,32.88,0,0,1-7,11.64,31.06,31.06,0,0,1-11,7.46,37.91,37.91,0,0,1-14.38,2.6,36.85,36.85,0,0,1-14.25-2.63,31.53,31.53,0,0,1-11-7.53,32.65,32.65,0,0,1-7-11.57,46.93,46.93,0,0,1,0-29.69,32.6,32.6,0,0,1,7-11.57,30.65,30.65,0,0,1,11-7.4,40.42,40.42,0,0,1,28.63,0,31.28,31.28,0,0,1,11.06,7.49,32.52,32.52,0,0,1,7,11.57A43.68,43.68,0,0,1,939.16,387.78Zm-17.52,0q0-11-4.7-17.1a15.08,15.08,0,0,0-12.62-6.11,15.31,15.31,0,0,0-9,2.73,17.2,17.2,0,0,0-6,8.05,33.54,33.54,0,0,0-2.11,12.43,33.2,33.2,0,0,0,2.08,12.29,17.56,17.56,0,0,0,5.94,8.06,16.12,16.12,0,0,0,21.73-3.36Q921.65,398.64,921.64,387.78Z" transform="translate(-284.88 -291.91)"/><path class="cls-1" d="M1011.68,387.78a43.46,43.46,0,0,1-2.43,14.79,32.88,32.88,0,0,1-7,11.64,31.06,31.06,0,0,1-11,7.46,37.91,37.91,0,0,1-14.38,2.6,36.89,36.89,0,0,1-14.25-2.63,31.4,31.4,0,0,1-11-7.53,32.67,32.67,0,0,1-7-11.57,46.93,46.93,0,0,1,0-29.69,32.75,32.75,0,0,1,7-11.57,30.65,30.65,0,0,1,11-7.4,40.42,40.42,0,0,1,28.63,0,31.19,31.19,0,0,1,11.06,7.49,32.52,32.52,0,0,1,7,11.57A43.68,43.68,0,0,1,1011.68,387.78Zm-17.52,0q0-11-4.7-17.1a15.08,15.08,0,0,0-12.62-6.11,15.31,15.31,0,0,0-9,2.73,17.2,17.2,0,0,0-6,8.05,33.54,33.54,0,0,0-2.11,12.43,33.2,33.2,0,0,0,2.08,12.29,17.56,17.56,0,0,0,5.94,8.06,16.12,16.12,0,0,0,21.73-3.36Q994.17,398.64,994.16,387.78Z" transform="translate(-284.88 -291.91)"/><path class="cls-1" d="M1066.68,414v-1.77a44.7,44.7,0,0,1-6.93,6.74,25.86,25.86,0,0,1-7.42,3.94,27.07,27.07,0,0,1-8.72,1.35,25.09,25.09,0,0,1-11.6-2.73,27.32,27.32,0,0,1-9.24-7.79,35.87,35.87,0,0,1-5.91-11.9,52.27,52.27,0,0,1-2-14.8q0-16.83,8-26.23t21-9.4a27.51,27.51,0,0,1,12.72,2.66,35.29,35.29,0,0,1,10.1,8.19v-26.5c0-3.68.72-6.47,2.14-8.35a7.21,7.21,0,0,1,6.11-2.83,7.47,7.47,0,0,1,6.1,2.6q2.15,2.6,2.14,7.66V414c0,3.42-.76,6-2.3,7.7a7.6,7.6,0,0,1-5.94,2.56,7.51,7.51,0,0,1-5.91-2.66Q1066.68,418.94,1066.68,414Zm-34.32-26.36a31.39,31.39,0,0,0,2.2,12.42,17.34,17.34,0,0,0,6,7.73,14.66,14.66,0,0,0,8.38,2.6,15.13,15.13,0,0,0,8.4-2.47,16.84,16.84,0,0,0,6.08-7.56,31.38,31.38,0,0,0,2.26-12.72,30.54,30.54,0,0,0-2.26-12.33,18.5,18.5,0,0,0-6.14-7.89,14.37,14.37,0,0,0-8.47-2.73,14,14,0,0,0-8.56,2.79,17.88,17.88,0,0,0-5.85,8A32.64,32.64,0,0,0,1032.36,387.65Z" transform="translate(-284.88 -291.91)"/><path class="cls-2" d="M325.48,330.71a1,1,0,0,0,.52,1.1,5.16,5.16,0,0,1,1.41,1,5.48,5.48,0,0,1,1.06,1.54,5.39,5.39,0,0,1,.42,3.45,1,1,0,0,0,.51,1.1,4.9,4.9,0,0,1,1.36,1,5.3,5.3,0,0,1,1,1.5,5.48,5.48,0,0,1,.47,3.22,1,1,0,0,0,.46,1,5.34,5.34,0,0,1,1.24,1,5.78,5.78,0,0,1,.94,1.41,5.44,5.44,0,0,1,.42,3.4,1,1,0,0,0,.46,1,6.78,6.78,0,0,1,2.55,2.92l12,25.7c1.47,3.13,1.51,9-1.21,10.26L324.59,403c-2.72,1.29-7.17-2.45-8.63-5.58l-12-25.7a6.82,6.82,0,0,1-.61-3.84,1,1,0,0,0-.49-1,5.41,5.41,0,0,1-1.34-1,5.75,5.75,0,0,1-1-1.48,5.39,5.39,0,0,1-.46-3.22,1,1,0,0,0-.47-1,5.09,5.09,0,0,1-1.23-1,5.78,5.78,0,0,1-.94-1.41,5.42,5.42,0,0,1-.42-3.46,1,1,0,0,0-.51-1.09,5.27,5.27,0,0,1-1.36-1,5.52,5.52,0,0,1-1-1.5,5.38,5.38,0,0,1-.4-3.56,1,1,0,0,0-.51-1.1,5.38,5.38,0,0,1-2.4-2.41c0-.06-.06-.11-.08-.16l-4.19-8.95a11.69,11.69,0,0,1-1.11-4.71,10.48,10.48,0,0,1,.17-2.17l3-16.07-.36.17a.66.66,0,0,1-.86-.37l-2.36-5a.66.66,0,0,1,.26-.9l14.19-6.75a.66.66,0,0,1,.86.37l2.36,5.05a.67.67,0,0,1-.26.9l-.36.17,14.21,7.9a10.82,10.82,0,0,1,1.77,1.24,11.62,11.62,0,0,1,2.9,3.86l4.2,8.95.07.16A5.39,5.39,0,0,1,325.48,330.71Z" transform="translate(-284.88 -291.91)"/><path class="cls-3" d="M320.89,318.2l4.2,8.95.07.16-34.4,16.35c0-.06-.06-.11-.08-.16l-4.19-8.95a11.69,11.69,0,0,1-1.11-4.71L318,314.34A11.62,11.62,0,0,1,320.89,318.2Z" transform="translate(-284.88 -291.91)"/><path class="cls-4" d="M337.38,355.24a6.51,6.51,0,0,0-2.43-2.78.94.94,0,0,1-.44-1,5.36,5.36,0,0,0-1.3-4.59A5.08,5.08,0,0,0,332,346a1,1,0,0,1-.44-.95,5.25,5.25,0,0,0,.05-1.19,27.17,27.17,0,0,0-9-2c-7.12-.29-10,3-15.79,1.53a12,12,0,0,0-5-.65c-2,.23-2.84,1-5,1.34a12.71,12.71,0,0,1-4.89-.16l.07.15a5.14,5.14,0,0,0,2.29,2.3.93.93,0,0,1,.49,1.05,5.19,5.19,0,0,0,.37,3.39,5.58,5.58,0,0,0,1,1.43,5,5,0,0,0,1.3,1,1,1,0,0,1,.49,1,5.18,5.18,0,0,0,.39,3.3,5.49,5.49,0,0,0,.89,1.34,5.3,5.3,0,0,0,1.18.95,1,1,0,0,1,.45.95,5.14,5.14,0,0,0,.44,3.07,5.45,5.45,0,0,0,.95,1.41,4.92,4.92,0,0,0,1.28,1,.94.94,0,0,1,.46,1,6.59,6.59,0,0,0,.58,3.66l11.48,24.51c1.4,3,5.63,6.54,8.23,5.31l23.41-11.12c2.59-1.24,2.55-6.8,1.16-9.78Z" transform="translate(-284.88 -291.91)"/><text class="cls-5" transform="matrix(0.9, -0.43, 0.42, 0.91, 9.61, 46.99)">MKU</text><path class="cls-6" d="M289.17,315.19a8.94,8.94,0,0,1,.48,2.86c0,.47,0,.93,0,1.39s-.12.9-.18,1.35a14.72,14.72,0,0,1-.77,2.64,8.77,8.77,0,0,1-1.47,2.51l-.14,0c.26-1.8.61-3.59.91-5.39s.67-3.58,1.06-5.36Z" transform="translate(-284.88 -291.91)"/><path class="cls-6" d="M303.22,304.65c-2.51,1.32-5.09,2.51-7.63,3.78s-5.14,2.42-7.76,3.52h0l15.39-7.31Z" transform="translate(-284.88 -291.91)"/><text class="cls-7" transform="matrix(0.9, -0.43, 0.42, 0.91, 8.73, 46.38)">MKU</text><path class="cls-8" d="M349.21,418.06c-1.52,1.26-2.64,1.2-15.29,1-15.72-.21-19.87-.19-25.27-2.93a18.76,18.76,0,0,1-7.32-6c-.47-.68-5.17-7.7-2-13.29a9.16,9.16,0,0,1,3.32-3.33,26.36,26.36,0,0,1-7-5.31A17.56,17.56,0,0,1,291,381a15.21,15.21,0,0,1,0-8.64,12.25,12.25,0,0,1,3-5.33c4.62-4.55,12.94-3.33,17.95-1a20.24,20.24,0,0,1,6.66,5,11.46,11.46,0,0,1,4.31-5.66c4.47-3,9.84-1.36,11-1,10.59,3.17,14.27,19.18,16.35,28.21C352.27,401.64,355,413.32,349.21,418.06Z" transform="translate(-284.88 -291.91)"/><path class="cls-9" d="M318.86,369.93c4.71,7,7.72,11.61,9.34,14.27a47.78,47.78,0,0,0,3.66,5.29c.6.75,1.26,1.53,2,2.35,2.66,2.9,4,4.36,6,5.3,1.54.72,2.8.93,4,2.32a8.85,8.85,0,0,1,1.67,3.65,19.91,19.91,0,0,1,.68,5c.05,1.28,0,1.16,0,3.32.06,3.53.34,4.18.67,4.65a4.38,4.38,0,0,0,2.66,1.66,12.18,12.18,0,0,1-1.33-2.66,12.78,12.78,0,0,1-.67-3.32,26.88,26.88,0,0,1,0-3,31.41,31.41,0,0,0-.34-4,18.85,18.85,0,0,0-2.34-6.64,15.72,15.72,0,0,0-4.67-4.65c-3.29-2.4-5.75-5.58-10.66-11.94a91.49,91.49,0,0,1-9-14.27Z" transform="translate(-284.88 -291.91)"/><path class="cls-10" d="M375.45,418.78a7.07,7.07,0,0,1-2.9.14l.1-.19a25.94,25.94,0,0,1-4.09-.69c-2.1-.49-6.6-1.52-7.3-4.25-.26-1,.11-2,.8-3.87a17.45,17.45,0,0,1,2.21-4.1,41.54,41.54,0,0,0,3.79-7.76,47.76,47.76,0,0,0,2.31-9.9c.29-1.93.43-3.53.54-4.74.16-1.76.31-4.08.37-7,.18-8.26-.74-7.68-.09-11.2a18.57,18.57,0,0,1,3.66-8.42l.23-.28c1.12-1.36,6.33-7.24,12.48-6.56a10,10,0,0,1,5.13,2.22,26.14,26.14,0,0,1,3.48-5.39,22.69,22.69,0,0,0-2.55,3.37,18.67,18.67,0,0,0-3.45-2,17,17,0,0,0-10.31-1.55,15.64,15.64,0,0,0-8.31,4.76c-2.67,2.74-3.52,5.47-4.86,10a62.52,62.52,0,0,0-2.36,16,76.63,76.63,0,0,0,.25,11c.17,1.91.43,2.55.67,5,.49,4.84.71,7.3-.36,9.59-1,2.05-1.78,1.79-3.08,4.41-1,2-1.95,3.92-1.37,5.83.94,3.13,5.37,4.35,8.95,5.34a11.81,11.81,0,0,0,4.84.57,9.56,9.56,0,0,0,3.11-1c-.3.11-.59.2-.89.28A5.89,5.89,0,0,1,375.45,418.78Z" transform="translate(-284.88 -291.91)"/><path class="cls-10" d="M409.73,339.16a12,12,0,0,0-4.24.85A16.17,16.17,0,0,1,409.73,339.16Z" transform="translate(-284.88 -291.91)"/><path class="cls-10" d="M438.35,370.43c-1-3.85-5.63-6.26-8.11-7.27a26.64,26.64,0,0,1,.11,6.37A29.61,29.61,0,0,1,425,383.31a37.19,37.19,0,0,1-12,11.14c-5,2.91-6.91,2.44-15.11,6.59,1.56-.53,4.61-1.58,8.55-3.31.8-.36,3.64-1.59,8.24-4.05,5.08-2.72,7.79-4.17,10.16-5.76C427.63,386.11,440.17,377.7,438.35,370.43Z" transform="translate(-284.88 -291.91)"/><path class="cls-9" d="M405.49,340a18.68,18.68,0,0,0-8.89,6.3l-.43.51a18.45,18.45,0,0,1,1.53-1.54A26.26,26.26,0,0,1,405.49,340Z" transform="translate(-284.88 -291.91)"/><path class="cls-9" d="M420.09,348.08v0h0c-.58-2.71-1.91-6.25-5.44-8a10,10,0,0,0-5-1,9.07,9.07,0,0,1,2.12.24C417.49,340.69,419.69,346.84,420.09,348.08Z" transform="translate(-284.88 -291.91)"/><path class="cls-9" d="M379.78,416.37a11.07,11.07,0,0,1-2.44,1.77c.23-.09.46-.18.69-.29,2.84-1.35,2.77-3.13,6.73-7.56L385,410l-.38.37A67.31,67.31,0,0,0,379.78,416.37Z" transform="translate(-284.88 -291.91)"/><path class="cls-9" d="M392.69,352.21a10,10,0,0,0-5.13-2.22c-6.15-.68-11.36,5.2-12.48,6.56l-.23.28a18.57,18.57,0,0,0-3.66,8.42c-.65,3.52.27,2.94.09,11.2-.06,2.89-.21,5.21-.37,7-.11,1.21-.25,2.81-.54,4.74a47.76,47.76,0,0,1-2.31,9.9,41.54,41.54,0,0,1-3.79,7.76,17.45,17.45,0,0,0-2.21,4.1c-.69,1.84-1.06,2.83-.8,3.87.7,2.73,5.2,3.76,7.3,4.25a25.94,25.94,0,0,0,4.09.69c.72-1.26,1.7-3.05,2.8-5.22,2.62-5.15,3.93-7.73,4.75-10.64a29.48,29.48,0,0,0,.25-14.49c-1-4.23-2.57-6.28-2.64-11.13a18.69,18.69,0,0,1,1.24-7.68c2.4-5.88,8-10.13,12.58-10.72a10.2,10.2,0,0,1,4.23.16,20.13,20.13,0,0,1,3.74,1.6c.28-.53.71-1.29,1.25-2.19a29.61,29.61,0,0,1,4.76-6.45,17.31,17.31,0,0,1,10.05-4.19,16,16,0,0,1,4.44.32v0c-.4-1.24-2.6-7.39-8.24-8.68a9.07,9.07,0,0,0-2.12-.24,16.17,16.17,0,0,0-4.24.85,26.26,26.26,0,0,0-7.79,5.27,18.45,18.45,0,0,0-1.53,1.54A26.14,26.14,0,0,0,392.69,352.21Z" transform="translate(-284.88 -291.91)"/><path class="cls-9" d="M384.61,410.41a70,70,0,0,0-5.09,5.5,8.59,8.59,0,0,1-3.07,2.51c.3-.08.59-.17.89-.28a11.07,11.07,0,0,0,2.44-1.77A67.31,67.31,0,0,1,384.61,410.41Z" transform="translate(-284.88 -291.91)"/><path class="cls-8" d="M390.2,405.22A44.34,44.34,0,0,0,385,410c2-2,3.81-3.5,4.83-4.32,1.68-1.34,3.56-2.31,7.3-4.25L398,401l-.7.24A25.67,25.67,0,0,0,390.2,405.22Z" transform="translate(-284.88 -291.91)"/><path class="cls-8" d="M372.65,418.73l-.1.19a7.07,7.07,0,0,0,2.9-.14,5.89,5.89,0,0,0,1-.36A11.51,11.51,0,0,1,372.65,418.73Z" transform="translate(-284.88 -291.91)"/><path class="cls-8" d="M420.65,353.82a16.43,16.43,0,0,0-.1-3.1c-.07-.56-.16-1.32-.32-2.19A13.38,13.38,0,0,1,420.65,353.82Z" transform="translate(-284.88 -291.91)"/><path class="cls-9" d="M413.08,394.45c-5,2.91-6.91,2.44-15.11,6.59l-.7.24a25.81,25.81,0,0,0-7.07,3.94l1.67-1.36a87,87,0,0,1,11.26-7.79c5.65-3.23,5.77-2.37,9.59-4.8,3.57-2.27,8.19-5.21,10.6-10.57.58-1.28,4-9.39-.67-14.51A11.33,11.33,0,0,0,417,363c.42-.76.78-1.43,1.09-2a28.87,28.87,0,0,1,3.59.09,57.53,57.53,0,0,1,7.12,1.54,14.58,14.58,0,0,1,1.44.52,27.18,27.18,0,0,1,.11,6.37A29.61,29.61,0,0,1,425,383.31,37.19,37.19,0,0,1,413.08,394.45Z" transform="translate(-284.88 -291.91)"/><path class="cls-8" d="M420.23,348.53c0-.14-.08-.28-.13-.43h0C420.18,348.25,420.2,348.39,420.23,348.53Z" transform="translate(-284.88 -291.91)"/><path class="cls-8" d="M384.61,410.41,385,410a44.34,44.34,0,0,1,5.21-4.82A42.74,42.74,0,0,0,384.61,410.41Z" transform="translate(-284.88 -291.91)"/><path class="cls-8" d="M418.09,361h-.16a16.75,16.75,0,0,0,2.72-7.19,13.18,13.18,0,0,1-.65,3.28A36.52,36.52,0,0,1,418.09,361Z" transform="translate(-284.88 -291.91)"/><path class="cls-8" d="M420.65,353.82a16.43,16.43,0,0,0-.1-3.1c-.07-.56-.16-1.32-.32-2.19,0-.14-.08-.28-.13-.43a16,16,0,0,0-4.44-.32A17.31,17.31,0,0,0,405.61,352a29.61,29.61,0,0,0-4.76,6.45c-.54.9-1,1.66-1.25,2.19a20.13,20.13,0,0,0-3.74-1.6,10.2,10.2,0,0,0-4.23-.16c-4.55.59-10.18,4.84-12.58,10.72a18.69,18.69,0,0,0-1.24,7.68c.07,4.85,1.64,6.9,2.64,11.13a29.48,29.48,0,0,1-.25,14.49c-.82,2.91-2.13,5.49-4.75,10.64-1.1,2.17-2.08,4-2.8,5.22a11.51,11.51,0,0,0,3.8-.31,8.59,8.59,0,0,0,3.07-2.51,70,70,0,0,1,5.09-5.5,42.74,42.74,0,0,1,5.59-5.19l1.67-1.36a87,87,0,0,1,11.26-7.79c5.64-3.23,5.77-2.37,9.59-4.8,3.57-2.27,8.19-5.21,10.6-10.57.57-1.28,4-9.39-.67-14.51A11.33,11.33,0,0,0,417,363c.42-.76.78-1.43,1.09-2h-.16A16.75,16.75,0,0,0,420.65,353.82Z" transform="translate(-284.88 -291.91)"/><path class="cls-11" d="M380.34,366.47s.73,4.48,2.27,13.23c1.95,11,3.08,15.82,3.08,15.82a59.83,59.83,0,0,1-5.08-16.85A57.08,57.08,0,0,1,380.34,366.47Z" transform="translate(-284.88 -291.91)"/><path class="cls-11" d="M395.1,382.25h0c-1.4-7.72-.59-13.58.88-23.59a22.77,22.77,0,0,1,3.2-9q-1.26,7-2.26,14.63C396.1,370.5,395.51,376.51,395.1,382.25Z" transform="translate(-284.88 -291.91)"/><path class="cls-11" d="M412.63,350.32c-.38-.11-1.84,4.49-6.13,13.24-.59,1.19-3.27,6.63-7.34,13.61a143.08,143.08,0,0,1-9.06,14.23c-5.09,6.87-9.5,11.28-9.37,11.39s5.8-5.34,11.89-12.65a115.19,115.19,0,0,0,10.09-13.55,82.67,82.67,0,0,0,4.92-9.65C411.28,358.49,413.12,350.46,412.63,350.32Z" transform="translate(-284.88 -291.91)"/><path class="cls-11" d="M392.62,390.14a38.55,38.55,0,0,0,9.77-5.85,54,54,0,0,0,5.15-5.09c3.36-3.58,7.23-8.08,7-8.28s-1.69,1.43-6.81,6c-3.49,3.15-6.21,5.52-7.77,6.88C398,385.58,395.49,387.71,392.62,390.14Z" transform="translate(-284.88 -291.91)"/><path class="cls-11" d="M377.19,406.6a156.64,156.64,0,0,0,19.65-11c10-6.64,17.42-13.2,17.68-12.92s-4.69,4.68-7,6.76a108.52,108.52,0,0,1-13.05,10.12,49.63,49.63,0,0,1-5.64,3.3A44.43,44.43,0,0,1,377.19,406.6Z" transform="translate(-284.88 -291.91)"/><path class="cls-8" d="M374.42,379.85a60.16,60.16,0,0,1,2.14,11.38c.74,8.28-.39,14.92,0,15s.87-2.61,1.13-5.12a31.93,31.93,0,0,0-.47-9.1A91.62,91.62,0,0,0,374.42,379.85Z" transform="translate(-284.88 -291.91)"/><path class="cls-8" d="M369.7,400.17c.18-.06,1.74,2.42,2.23,5.59.68,4.35-.95,8-1.18,8s.93-3.46.21-8.37C370.5,402.28,369.53,400.23,369.7,400.17Z" transform="translate(-284.88 -291.91)"/><path class="cls-8" d="M368.83,417.48a30.19,30.19,0,0,1,4.94-8.45,30.91,30.91,0,0,1,5.75-5.87c.06,0-1.4,1.53-3.79,4.52-.3.39-1.29,1.62-2.38,3.11C370.32,414.9,368.93,417.53,368.83,417.48Z" transform="translate(-284.88 -291.91)"/><path class="cls-10" d="M371.48,415.35a8.65,8.65,0,0,1-3,2.34,2.7,2.7,0,0,0,0-.28,32.6,32.6,0,0,1-4.94,2.28c-2.65,1-8.31,3.26-11.3.69-1.14-1-1.56-2.37-2.34-5a24.44,24.44,0,0,1-1-6.31,59.53,59.53,0,0,0-2.35-11.63,70.88,70.88,0,0,0-5.68-12.95c-1.29-2.4-2.45-4.32-3.33-5.77-1.29-2.12-3-4.86-5.34-8.18-6.62-9.48-7.12-8.14-9.34-12.61a26.47,26.47,0,0,1-3-12.29c0-.1,0-.27,0-.48.08-2.39.81-13,7.93-16.82a12.76,12.76,0,0,1,7.31-1.35,37,37,0,0,1-.73-8.73,32,32,0,0,0,.06,5.74,23.74,23.74,0,0,0-5.32.35c-2.32.41-8,1.39-12.28,6a19.78,19.78,0,0,0-5,11.64c-.59,5.12.75,8.85,3,15,3.22,8.66,7.18,14.63,10.68,19.92a115.2,115.2,0,0,0,9.34,12.28c1.75,2,2.56,2.57,4.82,5.14,4.51,5.11,6.78,7.73,7.51,11.13.66,3.05-.42,3.36.35,7.31.59,3,1.15,5.91,3.34,7.64,3.58,2.83,9.33.88,14-.7,3.79-1.29,5.24-2.62,5.64-3A11.42,11.42,0,0,0,373,413.2a10.46,10.46,0,0,1-.72,1A7.07,7.07,0,0,1,371.48,415.35Z" transform="translate(-284.88 -291.91)"/><path class="cls-10" d="M342.51,299.4a14.33,14.33,0,0,0-3.83,4.16A19.18,19.18,0,0,1,342.51,299.4Z" transform="translate(-284.88 -291.91)"/><path class="cls-10" d="M398.85,313.24c-4.19-3.63-11.17-2.84-14.65-2.12a40.76,40.76,0,0,1,5.35,7.13,42.58,42.58,0,0,1,5.69,19.6,49.23,49.23,0,0,1-3.61,21.62c-2.94,7.06-5.37,8-10.71,18.83,1.23-1.77,3.63-5.25,6.41-10.18.57-1,2.58-4.53,5.47-10.79a153.87,153.87,0,0,0,6.11-14.17C400.31,339.07,406.78,320.11,398.85,313.24Z" transform="translate(-284.88 -291.91)"/><path class="cls-9" d="M338.68,303.56a26,26,0,0,0-2.34,4.17,26.33,26.33,0,0,0-2,9.64c0,.31,0,.61-.05.91.08-.92.2-1.89.37-2.9C335.14,312.84,336.06,307.72,338.68,303.56Z" transform="translate(-284.88 -291.91)"/><path class="cls-9" d="M360.93,301.69l0,0,.06,0c-2.84-2.64-7.19-5.64-12.39-5a12.48,12.48,0,0,0-6.11,2.67,11.55,11.55,0,0,1,2.45-1.33C352.06,295.28,359.48,300.6,360.93,301.69Z" transform="translate(-284.88 -291.91)"/><path class="cls-9" d="M374.12,409.37A13.4,13.4,0,0,1,373,413.2c.17-.27.34-.55.5-.84,1.92-3.67.39-5.64,1-13.63,0-.16,0-.31,0-.46,0,.23-.07.47-.1.71A92.23,92.23,0,0,0,374.12,409.37Z" transform="translate(-284.88 -291.91)"/><path class="cls-9" d="M335.05,327a12.76,12.76,0,0,0-7.31,1.35c-7.12,3.85-7.85,14.43-7.93,16.82,0,.21,0,.38,0,.48a26.47,26.47,0,0,0,3,12.29c2.22,4.47,2.72,3.13,9.34,12.61,2.31,3.32,4,6.06,5.34,8.18.88,1.45,2,3.37,3.33,5.77a70.88,70.88,0,0,1,5.68,12.95,59.53,59.53,0,0,1,2.35,11.63,24.44,24.44,0,0,0,1,6.31c.78,2.61,1.2,4,2.34,5,3,2.57,8.65.35,11.3-.69a32.6,32.6,0,0,0,4.94-2.28c-.27-2-.7-4.74-1.31-8-1.45-7.81-2.17-11.71-3.69-15.61a44,44,0,0,0-11.67-16.6c-4.56-4-7.92-5.17-12-10.61a27.62,27.62,0,0,1-5-9.63c-2.29-8.46.23-17.53,4.6-21.62a12.58,12.58,0,0,1,4.65-3,27.4,27.4,0,0,1,5.32-1c-.14-.8-.31-2-.47-3.41-.4-3.75-.8-7.46-.23-10.88A21.5,21.5,0,0,1,356,304.69a19.63,19.63,0,0,1,5-3l0,0c-1.45-1.09-8.87-6.41-16-3.62a11.55,11.55,0,0,0-2.45,1.33,19.18,19.18,0,0,0-3.83,4.16c-2.62,4.16-3.54,9.28-4,11.82-.17,1-.29,2-.37,2.9A37,37,0,0,0,335.05,327Z" transform="translate(-284.88 -291.91)"/><path class="cls-9" d="M374.37,399a94.48,94.48,0,0,0-.91,10,11.14,11.14,0,0,1-1.21,5.16,10.46,10.46,0,0,0,.72-1,13.4,13.4,0,0,0,1.15-3.83A92.23,92.23,0,0,1,374.37,399Z" transform="translate(-284.88 -291.91)"/><path class="cls-8" d="M376.07,388.88a58,58,0,0,0-1.6,9.39c.55-3.73,1.19-6.83,1.61-8.52.69-2.79,1.89-5.3,4.29-10.32l.55-1.13-.55.8A32.5,32.5,0,0,0,376.07,388.88Z" transform="translate(-284.88 -291.91)"/><path class="cls-8" d="M368.45,417.41a2.7,2.7,0,0,1,0,.28,8.65,8.65,0,0,0,3-2.34,7.07,7.07,0,0,0,.77-1.16A14.08,14.08,0,0,1,368.45,417.41Z" transform="translate(-284.88 -291.91)"/><path class="cls-8" d="M366.25,307.77a24.46,24.46,0,0,0-2.66-3.42c-.53-.59-1.26-1.39-2.15-2.25A20.07,20.07,0,0,1,366.25,307.77Z" transform="translate(-284.88 -291.91)"/><path class="cls-9" d="M391.63,359.47c-2.94,7.06-5.36,8-10.71,18.83l-.55.8a32.38,32.38,0,0,0-4.3,9.78c.2-.86.42-1.78.66-2.79a110.71,110.71,0,0,1,5.62-17.3c3.36-7.9,4.21-7,6.28-12.64,1.95-5.26,4.47-12.08,2.62-19.95-.44-1.89-3.43-13.66-12.67-15.93a14.84,14.84,0,0,0-8.64.68c-.18-1.18-.35-2.21-.51-3.11a38.31,38.31,0,0,1,3.92-2.61,71.55,71.55,0,0,1,8.87-3.61,20.25,20.25,0,0,1,2-.49,40.77,40.77,0,0,1,5.35,7.12,42.55,42.55,0,0,1,5.69,19.6A49.23,49.23,0,0,1,391.63,359.47Z" transform="translate(-284.88 -291.91)"/><path class="cls-8" d="M361.44,302.1c-.16-.13-.32-.26-.49-.38l.06,0Z" transform="translate(-284.88 -291.91)"/><path class="cls-8" d="M374.37,399c0-.24.07-.48.1-.71a58,58,0,0,1,1.6-9.39A56.21,56.21,0,0,0,374.37,399Z" transform="translate(-284.88 -291.91)"/><path class="cls-8" d="M369.43,317.84l-.16.12a23.84,23.84,0,0,0-3-10.19,19.42,19.42,0,0,1,2,4.21A52.18,52.18,0,0,1,369.43,317.84Z" transform="translate(-284.88 -291.91)"/><path class="cls-8" d="M366.25,307.77a24.46,24.46,0,0,0-2.66-3.42c-.53-.59-1.26-1.39-2.15-2.25l-.49-.39a19.63,19.63,0,0,0-5,3A21.5,21.5,0,0,0,348.66,317c-.57,3.42-.17,7.13.23,10.88.16,1.43.33,2.61.47,3.41a27.4,27.4,0,0,0-5.32,1,12.58,12.58,0,0,0-4.65,3c-4.37,4.09-6.89,13.16-4.6,21.62a27.62,27.62,0,0,0,5,9.63c4.07,5.44,7.43,6.58,12,10.61a44,44,0,0,1,11.67,16.6c1.52,3.9,2.24,7.8,3.69,15.61.61,3.29,1,6.06,1.31,8a14.08,14.08,0,0,0,3.8-3.22,11.14,11.14,0,0,0,1.21-5.16,94.48,94.48,0,0,1,.91-10,56.21,56.21,0,0,1,1.7-10.1c.2-.86.42-1.78.66-2.79a111.88,111.88,0,0,1,5.62-17.3c3.36-7.9,4.21-7,6.28-12.64,1.95-5.26,4.47-12.08,2.62-19.95-.44-1.89-3.43-13.67-12.67-15.93a14.84,14.84,0,0,0-8.64.68c-.18-1.18-.35-2.21-.51-3.11l-.16.12A23.84,23.84,0,0,0,366.25,307.77Z" transform="translate(-284.88 -291.91)"/><path class="cls-11" d="M333.61,352.44s4.47,4.53,13.33,13.27c11.17,11,16.32,15.59,16.32,15.59A88.87,88.87,0,0,1,344,366.05,85.08,85.08,0,0,1,333.61,352.44Z" transform="translate(-284.88 -291.91)"/><path class="cls-11" d="M362.38,359.2v0c-7.85-7.68-11.82-14.93-18.5-27.37a34.19,34.19,0,0,1-3-7.3,32.52,32.52,0,0,1-1-5.32q4.42,8.9,9.63,18.26C353.77,345.14,358.09,352.39,362.38,359.2Z" transform="translate(-284.88 -291.91)"/><path class="cls-11" d="M354.79,309.85c-.48.16,1.75,6.47,4.37,19.6.36,1.8,2,10,3.37,20.94a196.82,196.82,0,0,1,2,22.93c.23,11.61-.85,19.93-.62,19.95s1.8-10.41,2.28-23.28c.51-13.67-.13-20.75-.39-22.93a115.09,115.09,0,0,0-2.69-14.62C360.09,320.12,355.43,309.64,354.79,309.85Z" transform="translate(-284.88 -291.91)"/><path class="cls-11" d="M366.23,370a49,49,0,0,0,5.62-14,73.46,73.46,0,0,0,1.31-9.64c.64-6.58,1.06-14.59.63-14.63-.26,0-.63,2.89-2.3,12-1.14,6.18-2.09,10.92-2.63,13.63C368.16,360.81,367.29,365.09,366.23,370Z" transform="translate(-284.88 -291.91)"/><path class="cls-11" d="M363.3,400.25A196.55,196.55,0,0,0,375.21,373c5.26-15.07,7.73-28,8.25-27.94s-1.16,8.84-2,13a142,142,0,0,1-5.6,21.29,62.67,62.67,0,0,1-3.31,8A54.25,54.25,0,0,1,363.3,400.25Z" transform="translate(-284.88 -291.91)"/><path class="cls-8" d="M338.31,372.05A91.52,91.52,0,0,1,350,383.32c7.61,8.81,11.87,17.19,12.33,16.93.29-.17-1.22-3.6-3-6.64a48.93,48.93,0,0,0-8-10A141.13,141.13,0,0,0,338.31,372.05Z" transform="translate(-284.88 -291.91)"/><path class="cls-8" d="M350,398.61c.14-.2,3.85,1.43,7,4.64,4.31,4.42,5.61,9.83,5.34,10s-1.86-4.61-6.67-9.62C352.6,400.39,349.87,398.8,350,398.61Z" transform="translate(-284.88 -291.91)"/><path class="cls-8" d="M363.34,418.86c-.18,0-1.75-5.84-1.69-13.29.05-6.06,1.15-11,1.31-11s-.23,2.79-.32,8c0,.66,0,2.8,0,5.31C362.8,414.82,363.49,418.84,363.34,418.86Z" transform="translate(-284.88 -291.91)"/><path class="cls-11" d="M332.91,409.79c-.84-.47-1.66-.93-2.45-1.42,1-.66,1.1-4.14,1.1-4.56a13.81,13.81,0,0,0-1-5.32,10.16,10.16,0,0,1,.35,4c-.19,1.66-.34,3-1.33,4-.26.27-.61.53-.65.88a19,19,0,0,1-4.34-4.19c-1.4-1.88-1-2.09-3-5.65q-.72-1.29-1.44-2.43c.62-.62,1.67-3.66,2.08-7.21.27-2.28.22-4.29,0-4.32s-.49,3-2,5.66a15.52,15.52,0,0,1-1.66,2.66l-.35.33a46.71,46.71,0,0,0-5-6l-.87-.86c.89-.7,1.69-3.28,1.86-5.46a12.26,12.26,0,0,0-1.45-6.94,11.12,11.12,0,0,1,.78,4.95c-.13,1.36-.4,4.35-2,5.65a2.38,2.38,0,0,0-.54.58c-1.37-1.2-2.42-2-2.78-2.23-5.22-3.79-10.48-5.63-10.65-5.3s4,2.15,9.4,6.36c-1.68.4-2.76.76-3.4.94a18.83,18.83,0,0,1-5,.68,12.62,12.62,0,0,1-6.32-2,18.47,18.47,0,0,0,2.13,1.32A17.78,17.78,0,0,0,299,385.6c3.4.64,7-1,8.76-2.06,1.14.9,2.33,1.91,3.54,3a37.65,37.65,0,0,1,5.66,6.3,27.16,27.16,0,0,1,3.14,5.84c-1,.26-2.35.79-4.12,1.14a23.82,23.82,0,0,1-5.65.35c-3.35-.07-5.5-.63-5.53-.47a15.43,15.43,0,0,0,4.2,1.13l.2,0a37.86,37.86,0,0,0,7.78.28,27.18,27.18,0,0,0,4.06-.49c.08.16.17.32.26.48,3.2,5.7,8.38,8.86,13.34,11.42l-.35.19a24.4,24.4,0,0,1-3.65,1c-1.54.37-2.31.56-3,.67-1.93.33-3,.29-3,.34a19.9,19.9,0,0,0,5.65-.34l.82-.19a18.25,18.25,0,0,0,2.83-.82c.43-.18.87-.39,1.22-.57l1.77.9c6,3,11.23,4.19,11.31,4S342.05,414.89,332.91,409.79Z" transform="translate(-284.88 -291.91)"/></svg>