<svg id="Layer_2" data-name="Layer 2" xmlns="http://www.w3.org/2000/svg" viewBox="0 0 745.69 135.04"><defs><style>.cls-1{fill:#f2f2f2;}.cls-2{fill:#7faf51;}.cls-3,.cls-8{fill:#b3b3b3;}.cls-4{fill:#e6e6e6;}.cls-5{fill:#ccc;}.cls-6,.cls-8{font-size:10.23px;font-family:ArialRoundedMTBold, Arial Rounded MT Bold;}.cls-6{fill:#1a1a1a;}.cls-7{fill:#fff;}.cls-9{fill:#59c15d;}.cls-10{fill:#4eaa45;}.cls-11{fill:#3d8936;}.cls-12{fill:#f8f2a9;}</style></defs><circle class="cls-1" cx="67.52" cy="67.52" r="67.52"/><path class="cls-2" d="M487.2,403.25l-20-81.88v88.72q0,7.37-3.2,11.05a11.5,11.5,0,0,1-16.83,0q-3.24-3.65-3.24-11.09V308.39q0-8.42,4.26-11.35t11.51-2.94h7.84c4.71,0,8.14.44,10.27,1.32a8.7,8.7,0,0,1,4.73,4.73A75.69,75.69,0,0,1,486,311.29l18.16,70.39,18.15-70.39a74.48,74.48,0,0,1,3.49-11.14,8.7,8.7,0,0,1,4.73-4.73q3.19-1.32,10.27-1.32h7.84q7.25,0,11.51,2.94t4.26,11.35v101.7q0,7.37-3.2,11.05a10.77,10.77,0,0,1-8.56,3.68,10.53,10.53,0,0,1-8.27-3.68q-3.24-3.69-3.24-11.05V321.37l-20,81.88q-2,8-3.19,11.71a16.24,16.24,0,0,1-4.56,6.79q-3.33,3.06-9.2,3.07a13.52,13.52,0,0,1-7.5-2,14,14,0,0,1-4.78-5A29.31,29.31,0,0,1,489.2,411C488.54,408.53,487.88,405.94,487.2,403.25Z" transform="translate(-305.17 -291.07)"/><path class="cls-2" d="M591.06,307.69v45.06l49.19-53.3a45.88,45.88,0,0,1,6-5.7,10.85,10.85,0,0,1,6.62-1.84,11.9,11.9,0,0,1,8.73,3.29,10.84,10.84,0,0,1,3.34,8q0,5.7-5.66,11.31l-30.46,30L664,396.76a65.9,65.9,0,0,1,5.57,9.52,19,19,0,0,1,1.86,7.93,10.07,10.07,0,0,1-3.25,7.45c-2.17,2.11-5.1,3.16-8.82,3.16a14.45,14.45,0,0,1-8.52-2.33,19.53,19.53,0,0,1-5.57-6.18q-2.28-3.85-4.05-7L611.56,362l-20.5,20.43V409q0,8.07-3.55,12a11.75,11.75,0,0,1-9.11,3.9,12.46,12.46,0,0,1-10.71-6.49,15.92,15.92,0,0,1-1.44-5.7q-.25-3.24-.25-9.38V307.69q0-7.89,3.33-11.83a11.26,11.26,0,0,1,9.07-3.95,11.7,11.7,0,0,1,9.15,3.9Q591.06,299.71,591.06,307.69Z" transform="translate(-305.17 -291.07)"/><path class="cls-2" d="M666.26,369.5V307.69q0-7.89,3.41-11.83a11.33,11.33,0,0,1,9-3.95,11.61,11.61,0,0,1,9.24,3.95q3.42,3.94,3.42,11.83V370.9a59.73,59.73,0,0,0,2.32,18,20.67,20.67,0,0,0,8.22,11.22q5.91,4,16.54,4,14.69,0,20.75-8.11t6.08-24.59V307.69q0-8,3.37-11.88a11.34,11.34,0,0,1,9-3.9,11.74,11.74,0,0,1,9.16,3.9q3.5,3.9,3.5,11.88V369.5q0,15.08-2.83,25.16a39.09,39.09,0,0,1-10.67,17.71,41.24,41.24,0,0,1-15.69,9.47,66.54,66.54,0,0,1-20.93,3q-14.25,0-24.55-3.2a39,39,0,0,1-16.79-9.91,40.4,40.4,0,0,1-9.54-17.18Q666.26,384,666.26,369.5Z" transform="translate(-305.17 -291.07)"/><path class="cls-2" d="M831.19,341.29H793.8V366h31.25q4.35,0,6.49,2a7,7,0,0,1,2.14,5.36,6.84,6.84,0,0,1-2.17,5.33q-2.18,2-6.46,2H793.8v31.76q0,6-2.66,9a9.4,9.4,0,0,1-13.67,0q-2.65-3-2.66-8.94V338.2a16.64,16.64,0,0,1,1.22-6.87,7.61,7.61,0,0,1,3.8-3.88,15.62,15.62,0,0,1,6.62-1.22h44.74q4.53,0,6.74,2.07a7.85,7.85,0,0,1,0,10.92Q835.73,341.29,831.19,341.29Z" transform="translate(-305.17 -291.07)"/><path class="cls-2" d="M906.84,387.78a43.46,43.46,0,0,1-2.43,14.79,32.74,32.74,0,0,1-7,11.64,31,31,0,0,1-11,7.46,37.94,37.94,0,0,1-14.38,2.6,36.91,36.91,0,0,1-14.26-2.63,31.5,31.5,0,0,1-11-7.53,32.65,32.65,0,0,1-7-11.57,43.36,43.36,0,0,1-2.4-14.76,44,44,0,0,1,2.43-14.93,32.62,32.62,0,0,1,7-11.57,30.61,30.61,0,0,1,11-7.4,40.44,40.44,0,0,1,28.64,0,31.28,31.28,0,0,1,11.06,7.49,32.5,32.5,0,0,1,7,11.57A43.68,43.68,0,0,1,906.84,387.78Zm-17.51,0q0-11-4.7-17.1A15.08,15.08,0,0,0,872,364.57a15.34,15.34,0,0,0-9,2.73,17.12,17.12,0,0,0-6,8.05,37.59,37.59,0,0,0,0,24.72,17.65,17.65,0,0,0,5.95,8.06,16.12,16.12,0,0,0,21.73-3.36Q889.33,398.64,889.33,387.78Z" transform="translate(-305.17 -291.07)"/><path class="cls-2" d="M979.36,387.78a43.46,43.46,0,0,1-2.43,14.79,32.74,32.74,0,0,1-7,11.64,31,31,0,0,1-11,7.46,37.94,37.94,0,0,1-14.38,2.6,36.91,36.91,0,0,1-14.26-2.63,31.5,31.5,0,0,1-11-7.53,32.65,32.65,0,0,1-7-11.57,43.36,43.36,0,0,1-2.4-14.76,44,44,0,0,1,2.43-14.93,32.62,32.62,0,0,1,7-11.57,30.61,30.61,0,0,1,11-7.4,40.44,40.44,0,0,1,28.64,0A31.28,31.28,0,0,1,970,361.41,32.5,32.5,0,0,1,977,373,43.68,43.68,0,0,1,979.36,387.78Zm-17.51,0q0-11-4.7-17.1a15.08,15.08,0,0,0-12.62-6.11,15.34,15.34,0,0,0-9,2.73,17.12,17.12,0,0,0-6,8.05,37.59,37.59,0,0,0,0,24.72,17.65,17.65,0,0,0,5.95,8.06,16.12,16.12,0,0,0,21.73-3.36Q961.85,398.64,961.85,387.78Z" transform="translate(-305.17 -291.07)"/><path class="cls-2" d="M1034.37,414v-1.77a44.73,44.73,0,0,1-6.94,6.74,25.93,25.93,0,0,1-7.41,3.94,27.09,27.09,0,0,1-8.73,1.35,25.12,25.12,0,0,1-11.6-2.73,27.39,27.39,0,0,1-9.23-7.79,35.87,35.87,0,0,1-5.91-11.9,51.91,51.91,0,0,1-2-14.8q0-16.83,8-26.23t21-9.4a27.51,27.51,0,0,1,12.72,2.66,35.43,35.43,0,0,1,10.1,8.19v-26.5c0-3.68.71-6.47,2.14-8.35a7.19,7.19,0,0,1,6.11-2.83,7.47,7.47,0,0,1,6.1,2.6q2.15,2.6,2.14,7.66V414q0,5.13-2.3,7.7a8,8,0,0,1-11.86-.1Q1034.38,418.94,1034.37,414Zm-34.32-26.36a31.39,31.39,0,0,0,2.2,12.42,17.2,17.2,0,0,0,6,7.73,14.65,14.65,0,0,0,8.37,2.6,15.19,15.19,0,0,0,8.41-2.47,16.82,16.82,0,0,0,6.07-7.56,31.37,31.37,0,0,0,2.27-12.72,30.53,30.53,0,0,0-2.27-12.33,18.48,18.48,0,0,0-6.13-7.89,14.4,14.4,0,0,0-8.47-2.73,14.05,14.05,0,0,0-8.57,2.79,18,18,0,0,0-5.85,8A32.84,32.84,0,0,0,1000.05,387.65Z" transform="translate(-305.17 -291.07)"/><path class="cls-3" d="M341.9,330.6a.82.82,0,0,0,.43.94,4.46,4.46,0,0,1,1.21.88,5,5,0,0,1,.91,1.32,4.68,4.68,0,0,1,.35,3,.87.87,0,0,0,.43.94,4.4,4.4,0,0,1,1.17.87,4.79,4.79,0,0,1,.87,1.29,4.69,4.69,0,0,1,.39,2.75.85.85,0,0,0,.39.85,4.31,4.31,0,0,1,1.06.86,4.83,4.83,0,0,1,.8,1.2,4.7,4.7,0,0,1,.36,2.92.84.84,0,0,0,.38.87,5.79,5.79,0,0,1,2.18,2.49l10.25,22c1.25,2.68,1.27,7.67-1.06,8.77l-21,9.94c-2.33,1.1-6.13-2.12-7.37-4.79l-10.25-22a5.88,5.88,0,0,1-.52-3.28.84.84,0,0,0-.41-.86,4.49,4.49,0,0,1-1.14-.87,4.81,4.81,0,0,1-.86-1.27,4.69,4.69,0,0,1-.39-2.75.84.84,0,0,0-.39-.85,4.55,4.55,0,0,1-1.06-.86,5.34,5.34,0,0,1-.8-1.2,4.75,4.75,0,0,1-.35-3,.85.85,0,0,0-.43-.94,4.2,4.2,0,0,1-1.16-.87,4.9,4.9,0,0,1-.88-1.29,4.65,4.65,0,0,1-.33-3,.84.84,0,0,0-.43-.95,4.54,4.54,0,0,1-2.05-2.06.91.91,0,0,1-.07-.14l-3.57-7.66a10.19,10.19,0,0,1-.94-4,8.84,8.84,0,0,1,.16-1.85l2.58-13.74-.31.15a.57.57,0,0,1-.73-.33l-2-4.31a.57.57,0,0,1,.22-.77l12.15-5.75a.57.57,0,0,1,.73.32l2,4.32a.57.57,0,0,1-.22.77l-.31.15L334,315.52a8.79,8.79,0,0,1,1.51,1.07,9.93,9.93,0,0,1,2.48,3.3l3.57,7.66.06.14A4.69,4.69,0,0,1,341.9,330.6Z" transform="translate(-305.17 -291.07)"/><path class="cls-4" d="M338,319.89l3.57,7.66.06.14-29.45,13.92a.91.91,0,0,1-.07-.14l-3.57-7.66a10.19,10.19,0,0,1-.94-4l27.92-13.19A9.93,9.93,0,0,1,338,319.89Z" transform="translate(-305.17 -291.07)"/><path class="cls-5" d="M352,351.6a5.47,5.47,0,0,0-2.08-2.38.81.81,0,0,1-.37-.83,4.5,4.5,0,0,0-2.11-4.75.81.81,0,0,1-.38-.81,3.84,3.84,0,0,0,.05-1,23.48,23.48,0,0,0-7.71-1.7c-6.09-.27-8.58,2.56-13.5,1.27a10.26,10.26,0,0,0-4.27-.56c-1.72.19-2.43.83-4.26,1.13a10.76,10.76,0,0,1-4.19-.14s0,.07.06.12a4.34,4.34,0,0,0,2,2,.81.81,0,0,1,.41.9,4.45,4.45,0,0,0,.32,2.91,4.78,4.78,0,0,0,.83,1.22,4,4,0,0,0,1.11.83.84.84,0,0,1,.41.9,4.46,4.46,0,0,0,.34,2.82,4.54,4.54,0,0,0,.76,1.14,4.28,4.28,0,0,0,1,.82.8.8,0,0,1,.38.81,4.53,4.53,0,0,0,.37,2.63,4.69,4.69,0,0,0,.82,1.21,4.27,4.27,0,0,0,1.08.83.79.79,0,0,1,.4.81,5.6,5.6,0,0,0,.49,3.13l9.77,21c1.19,2.55,4.81,5.61,7,4.57l20.05-9.48c2.22-1.05,2.2-5.81,1-8.36Z" transform="translate(-305.17 -291.07)"/><text class="cls-6" transform="matrix(0.9, -0.43, 0.42, 0.91, 10.22, 46.5)">MKU</text><path class="cls-7" d="M310.87,317.26a7.68,7.68,0,0,1,.41,2.45,11.75,11.75,0,0,1-.86,4.59,7.56,7.56,0,0,1-1.26,2.15l-.12,0,.79-4.6.91-4.59Z" transform="translate(-305.17 -291.07)"/><path class="cls-7" d="M322.91,308.27c-2.15,1.13-4.36,2.14-6.54,3.22s-4.4,2.06-6.64,3h0l13.18-6.23Z" transform="translate(-305.17 -291.07)"/><text class="cls-8" transform="matrix(0.9, -0.43, 0.42, 0.91, 9.46, 45.98)">MKU</text><path class="cls-9" d="M362,405.35c-1.31,1.07-2.26,1-13.08.85-13.44-.21-17-.2-21.6-2.56a16.05,16.05,0,0,1-6.26-5.11c-.4-.59-4.4-6.6-1.7-11.37a7.88,7.88,0,0,1,2.84-2.85,22.21,22.21,0,0,1-6-4.55,15,15,0,0,1-4-6.25,13,13,0,0,1,0-7.39,10.49,10.49,0,0,1,2.56-4.55c4-3.88,11.07-2.83,15.35-.85a17.35,17.35,0,0,1,5.69,4.26,9.83,9.83,0,0,1,3.69-4.83c3.83-2.53,8.42-1.15,9.38-.86,9.05,2.74,12.17,16.44,13.93,24.17S367,401.31,362,405.35Z" transform="translate(-305.17 -291.07)"/><path class="cls-10" d="M336.16,364.13c4,6,6.58,9.94,8,12.22a41.57,41.57,0,0,0,3.12,4.53q.76,1,1.71,2c2.27,2.49,3.4,3.74,5.12,4.55,1.31.62,2.4.8,3.41,2a7.6,7.6,0,0,1,1.42,3.13,16.58,16.58,0,0,1,.57,4.26c0,1.1,0,1,0,2.84,0,3,.28,3.57.57,4a3.75,3.75,0,0,0,2.27,1.43,10.52,10.52,0,0,1-1.13-2.28,10.84,10.84,0,0,1-.57-2.84,21.81,21.81,0,0,1,0-2.56,25.42,25.42,0,0,0-.29-3.41,15.78,15.78,0,0,0-2-5.69,13.51,13.51,0,0,0-4-4c-2.81-2.06-4.9-4.78-9.09-10.23a76.43,76.43,0,0,1-7.68-12.23Z" transform="translate(-305.17 -291.07)"/><path class="cls-11" d="M384.46,406a6,6,0,0,1-2.47.11l.08-.15a22.67,22.67,0,0,1-3.49-.61c-1.8-.42-5.65-1.31-6.24-3.64-.22-.9.1-1.74.69-3.31a14.67,14.67,0,0,1,1.9-3.51,34.78,34.78,0,0,0,3.25-6.62,40.86,40.86,0,0,0,2-8.47c.25-1.65.38-3,.47-4.05.14-1.51.28-3.49.33-6,.17-7.06-.61-6.57-.06-9.58a15.87,15.87,0,0,1,3.15-7.19l.19-.24c1-1.16,5.44-6.18,10.69-5.58a8.42,8.42,0,0,1,4.38,1.91,22.65,22.65,0,0,1,3-4.62,20.12,20.12,0,0,0-2.19,2.89,15.8,15.8,0,0,0-2.94-1.71,14.64,14.64,0,0,0-8.81-1.34,13.36,13.36,0,0,0-7.12,4.05c-2.29,2.35-3,4.68-4.18,8.52A54,54,0,0,0,375,370.62a66.62,66.62,0,0,0,.19,9.41c.15,1.64.37,2.19.57,4.27.41,4.13.59,6.24-.33,8.19-.83,1.76-1.52,1.53-2.64,3.77-.86,1.72-1.67,3.35-1.18,5,.8,2.67,4.59,3.73,7.64,4.58a10.16,10.16,0,0,0,4.15.5,8.34,8.34,0,0,0,2.65-.86c-.25.09-.5.17-.76.24A5.1,5.1,0,0,1,384.46,406Z" transform="translate(-305.17 -291.07)"/><path class="cls-11" d="M413.94,338a10,10,0,0,0-3.64.73A13.65,13.65,0,0,1,413.94,338Z" transform="translate(-305.17 -291.07)"/><path class="cls-11" d="M438.35,364.78c-.81-3.29-4.8-5.36-6.92-6.23a23.35,23.35,0,0,1,.08,5.44A25.5,25.5,0,0,1,427,375.77a31.83,31.83,0,0,1-10.26,9.5c-4.28,2.48-5.91,2.08-12.93,5.61,1.33-.45,3.95-1.34,7.32-2.82.69-.3,3.11-1.34,7.05-3.44,4.36-2.32,6.67-3.55,8.71-4.91C429.15,378.17,439.89,371,438.35,364.78Z" transform="translate(-305.17 -291.07)"/><path class="cls-10" d="M410.3,338.71a17.6,17.6,0,0,0-2.84,1.25,17.15,17.15,0,0,0-4.77,4.11c-.13.14-.25.29-.37.43.39-.43.83-.87,1.31-1.31A22.31,22.31,0,0,1,410.3,338.71Z" transform="translate(-305.17 -291.07)"/><path class="cls-10" d="M422.78,345.63v0h0c-.48-2.32-1.61-5.35-4.63-6.85a8.62,8.62,0,0,0-4.25-.83,8.58,8.58,0,0,1,1.8.21C420.57,339.31,422.44,344.57,422.78,345.63Z" transform="translate(-305.17 -291.07)"/><path class="cls-10" d="M388.18,404a9.45,9.45,0,0,1-2.1,1.51l.59-.25c2.44-1.15,2.38-2.67,5.78-6.45.06-.08.13-.15.19-.22-.1.11-.21.21-.32.32A55.75,55.75,0,0,0,388.18,404Z" transform="translate(-305.17 -291.07)"/><path class="cls-10" d="M399.33,349.12a8.42,8.42,0,0,0-4.38-1.91c-5.25-.6-9.72,4.42-10.69,5.58l-.19.24a15.87,15.87,0,0,0-3.15,7.19c-.55,3,.23,2.52.06,9.58-.05,2.47-.19,4.45-.33,6-.09,1-.22,2.4-.47,4.05a40.86,40.86,0,0,1-2,8.47,34.78,34.78,0,0,1-3.25,6.62,14.67,14.67,0,0,0-1.9,3.51c-.59,1.57-.91,2.41-.69,3.31.59,2.33,4.44,3.22,6.24,3.64a22.67,22.67,0,0,0,3.49.61c.62-1.08,1.46-2.61,2.41-4.46,2.25-4.41,3.37-6.61,4.08-9.09A25.13,25.13,0,0,0,388.8,380c-.85-3.62-2.19-5.38-2.23-9.53a15.76,15.76,0,0,1,1.07-6.57c2.06-5,6.89-8.65,10.78-9.14a8.72,8.72,0,0,1,3.61.14,18.27,18.27,0,0,1,3.2,1.37c.24-.44.61-1.09,1.08-1.86a25.47,25.47,0,0,1,4.07-5.51,14.82,14.82,0,0,1,8.61-3.56,13.36,13.36,0,0,1,3.79.28v0c-.34-1.06-2.21-6.32-7-7.44a8.58,8.58,0,0,0-1.8-.21,13.65,13.65,0,0,0-3.64.73,22.31,22.31,0,0,0-6.67,4.48c-.48.44-.92.88-1.31,1.31A22.65,22.65,0,0,0,399.33,349.12Z" transform="translate(-305.17 -291.07)"/><path class="cls-10" d="M392.32,398.87a62.24,62.24,0,0,0-4.37,4.69,7.25,7.25,0,0,1-2.63,2.15c.26-.07.51-.15.76-.24a9.45,9.45,0,0,0,2.1-1.51A55.75,55.75,0,0,1,392.32,398.87Z" transform="translate(-305.17 -291.07)"/><path class="cls-9" d="M397.11,394.44a38.91,38.91,0,0,0-4.47,4.11c1.73-1.66,3.27-3,4.14-3.68a38,38,0,0,1,6.26-3.62l.72-.37-.6.2A22.15,22.15,0,0,0,397.11,394.44Z" transform="translate(-305.17 -291.07)"/><path class="cls-9" d="M382.07,406l-.08.15a6,6,0,0,0,2.47-.11,5.1,5.1,0,0,0,.86-.3A9.78,9.78,0,0,1,382.07,406Z" transform="translate(-305.17 -291.07)"/><path class="cls-9" d="M423.24,350.54a13,13,0,0,0-.08-2.65c-.05-.48-.13-1.13-.27-1.88A11.36,11.36,0,0,1,423.24,350.54Z" transform="translate(-305.17 -291.07)"/><path class="cls-10" d="M416.69,385.27c-4.28,2.48-5.91,2.08-12.93,5.61l-.6.2a22.15,22.15,0,0,0-6.05,3.36l1.43-1.16a74.32,74.32,0,0,1,9.65-6.64c4.83-2.75,4.93-2,8.2-4.08,3.06-1.94,7-4.45,9.09-9,.49-1.1,3.46-8-.54-12.42a9.76,9.76,0,0,0-4.83-2.71l.93-1.73a26.68,26.68,0,0,1,3.08.09,48.67,48.67,0,0,1,6.08,1.33,12.22,12.22,0,0,1,1.23.45,23.35,23.35,0,0,1,.08,5.44A25.5,25.5,0,0,1,427,375.77,31.83,31.83,0,0,1,416.69,385.27Z" transform="translate(-305.17 -291.07)"/><path class="cls-9" d="M422.89,346c0-.12-.07-.24-.11-.36h0C422.85,345.78,422.87,345.9,422.89,346Z" transform="translate(-305.17 -291.07)"/><path class="cls-9" d="M392.32,398.87c.11-.11.22-.21.32-.32a38.91,38.91,0,0,1,4.47-4.11A36,36,0,0,0,392.32,398.87Z" transform="translate(-305.17 -291.07)"/><path class="cls-9" d="M421,356.68h-.13a14.45,14.45,0,0,0,2.33-6.15,11.43,11.43,0,0,1-.56,2.81A30.6,30.6,0,0,1,421,356.68Z" transform="translate(-305.17 -291.07)"/><path class="cls-9" d="M423.24,350.54a13,13,0,0,0-.08-2.65c-.05-.48-.13-1.13-.27-1.88,0-.12-.07-.24-.11-.36a13.36,13.36,0,0,0-3.79-.28,14.82,14.82,0,0,0-8.61,3.56,25.47,25.47,0,0,0-4.07,5.51c-.47.77-.84,1.42-1.08,1.86a18.27,18.27,0,0,0-3.2-1.37,8.72,8.72,0,0,0-3.61-.14c-3.89.49-8.72,4.12-10.78,9.14a15.76,15.76,0,0,0-1.07,6.57c0,4.15,1.38,5.91,2.23,9.53a25.13,25.13,0,0,1-.24,12.39c-.71,2.48-1.83,4.68-4.08,9.09-1,1.85-1.79,3.38-2.41,4.46a9.78,9.78,0,0,0,3.25-.26,7.25,7.25,0,0,0,2.63-2.15,62.24,62.24,0,0,1,4.37-4.69,36,36,0,0,1,4.79-4.43l1.43-1.16a74.32,74.32,0,0,1,9.65-6.64c4.83-2.75,4.93-2,8.2-4.08,3.06-1.94,7-4.45,9.09-9,.49-1.1,3.46-8-.54-12.42a9.76,9.76,0,0,0-4.83-2.71l.93-1.73h-.13A14.45,14.45,0,0,0,423.24,350.54Z" transform="translate(-305.17 -291.07)"/><path class="cls-12" d="M388.75,361.28s.61,3.84,1.92,11.32c1.64,9.44,2.6,13.54,2.6,13.54A51.14,51.14,0,0,1,389,371.72,49,49,0,0,1,388.75,361.28Z" transform="translate(-305.17 -291.07)"/><path class="cls-12" d="M401.34,374.81h0c-1.18-6.6-.48-11.62.8-20.18a19.48,19.48,0,0,1,2.75-7.71q-1.09,6-2,12.51C402.22,364.76,401.7,369.9,401.34,374.81Z" transform="translate(-305.17 -291.07)"/><path class="cls-12" d="M416.39,347.53c-.32-.09-1.58,3.84-5.26,11.31-.51,1-2.82,5.67-6.31,11.63a121.74,121.74,0,0,1-7.77,12.15c-4.37,5.87-8.15,9.63-8,9.72s5-4.55,10.19-10.79A98.41,98.41,0,0,0,407.86,370a70,70,0,0,0,4.22-8.24C415.22,354.52,416.81,347.65,416.39,347.53Z" transform="translate(-305.17 -291.07)"/><path class="cls-12" d="M399.21,381.55a33.15,33.15,0,0,0,8.36-5,48,48,0,0,0,4.42-4.35c2.88-3.05,6.19-6.89,6-7.07s-1.45,1.22-5.84,5.16c-3,2.68-5.32,4.71-6.65,5.87C403.77,377.66,401.66,379.48,399.21,381.55Z" transform="translate(-305.17 -291.07)"/><path class="cls-12" d="M386,395.6a134.71,134.71,0,0,0,16.82-9.4c8.6-5.65,14.92-11.25,15.15-11s-4,4-6,5.77a94.17,94.17,0,0,1-11.19,8.64,43.28,43.28,0,0,1-4.83,2.81A37.82,37.82,0,0,1,386,395.6Z" transform="translate(-305.17 -291.07)"/><path class="cls-9" d="M383.66,372.71a51.2,51.2,0,0,1,1.81,9.74c.62,7.08-.37,12.76,0,12.79s.75-2.22,1-4.37a27.53,27.53,0,0,0-.39-7.78A78.1,78.1,0,0,0,383.66,372.71Z" transform="translate(-305.17 -291.07)"/><path class="cls-9" d="M379.58,390.09c.16-.06,1.49,2.06,1.9,4.78.58,3.72-.83,6.88-1,6.85a26.27,26.27,0,0,0,.19-7.16C380.27,391.89,379.44,390.13,379.58,390.09Z" transform="translate(-305.17 -291.07)"/><path class="cls-9" d="M378.81,404.89a25.85,25.85,0,0,1,4.24-7.22,26.23,26.23,0,0,1,4.93-5s-1.2,1.31-3.25,3.86c-.26.33-1.1,1.38-2.05,2.66C380.09,402.69,378.9,404.93,378.81,404.89Z" transform="translate(-305.17 -291.07)"/><path class="cls-11" d="M381.08,403.08a7.66,7.66,0,0,1-2.56,2l0-.25a27.8,27.8,0,0,1-4.24,1.95c-2.26.88-7.11,2.77-9.66.57-1-.84-1.33-2-2-4.26a20.67,20.67,0,0,1-.85-5.41,50.83,50.83,0,0,0-2-9.95,60.89,60.89,0,0,0-4.84-11.08c-1.09-2.06-2.09-3.7-2.84-4.94-1.09-1.81-2.58-4.16-4.55-7-5.64-8.12-6.07-7-8-10.81A22.72,22.72,0,0,1,337,343.37c0-.08,0-.23,0-.4.07-2.05.71-11.09,6.82-14.38a11,11,0,0,1,6.25-1.14,31.18,31.18,0,0,1-.61-7.47,27.86,27.86,0,0,0,0,4.92,20.4,20.4,0,0,0-4.55.28c-2,.35-6.81,1.17-10.52,5.12a16.93,16.93,0,0,0-4.26,9.95c-.51,4.38.62,7.57,2.56,12.79a78.67,78.67,0,0,0,9.1,17.06,99.16,99.16,0,0,0,8,10.52c1.49,1.74,2.18,2.2,4.12,4.4,3.84,4.38,5.77,6.62,6.39,9.53.56,2.61-.36,2.87.29,6.25.5,2.6,1,5.06,2.84,6.54,3.06,2.43,8,.77,11.94-.57a12.36,12.36,0,0,0,4.83-2.56,10,10,0,0,0,2.14-3,8.67,8.67,0,0,1-.62.84A6.63,6.63,0,0,1,381.08,403.08Z" transform="translate(-305.17 -291.07)"/><path class="cls-11" d="M356.52,303.85a12.27,12.27,0,0,0-3.29,3.56A16.72,16.72,0,0,1,356.52,303.85Z" transform="translate(-305.17 -291.07)"/><path class="cls-11" d="M404.67,315.8c-3.57-3.11-9.55-2.45-12.52-1.84a34.62,34.62,0,0,1,4.56,6.1,36.59,36.59,0,0,1,4.84,16.78,42.21,42.21,0,0,1-3.13,18.47c-2.53,6-4.61,6.81-9.19,16.09,1-1.51,3.1-4.48,5.49-8.69.49-.86,2.22-3.87,4.7-9.22,2.74-5.9,4.2-9,5.25-12.11C405.87,337.89,411.44,321.69,404.67,315.8Z" transform="translate(-305.17 -291.07)"/><path class="cls-10" d="M353.23,307.41a21.25,21.25,0,0,0-2,3.56,22.55,22.55,0,0,0-1.71,8.24c0,.26,0,.52,0,.77.07-.78.17-1.61.33-2.48C350.19,315.34,351,311,353.23,307.41Z" transform="translate(-305.17 -291.07)"/><path class="cls-10" d="M372.26,305.85l0,0,0,0c-2.43-2.27-6.14-4.84-10.59-4.27a10.7,10.7,0,0,0-5.23,2.27,9.82,9.82,0,0,1,2.1-1.13C364.7,300.35,371,304.91,372.26,305.85Z" transform="translate(-305.17 -291.07)"/><path class="cls-10" d="M383.35,398a11.92,11.92,0,0,1-1,3.28q.22-.35.42-.72c1.66-3.14.35-4.82.86-11.66l0-.39-.09.6A77.93,77.93,0,0,0,383.35,398Z" transform="translate(-305.17 -291.07)"/><path class="cls-10" d="M350.09,327.45a11,11,0,0,0-6.25,1.14c-6.11,3.29-6.75,12.33-6.82,14.38,0,.17,0,.32,0,.4a22.72,22.72,0,0,0,2.56,10.52c1.89,3.83,2.32,2.69,8,10.81,2,2.84,3.46,5.19,4.55,7,.75,1.24,1.75,2.88,2.84,4.94a60.89,60.89,0,0,1,4.84,11.08,50.83,50.83,0,0,1,2,9.95,20.67,20.67,0,0,0,.85,5.41c.66,2.23,1,3.42,2,4.26,2.55,2.2,7.4.31,9.66-.57a27.8,27.8,0,0,0,4.24-1.95c-.24-1.68-.59-4.05-1.11-6.86-1.22-6.68-1.84-10-3.13-13.36a37.75,37.75,0,0,0-9.95-14.22c-3.89-3.45-6.76-4.44-10.23-9.1a23.27,23.27,0,0,1-4.26-8.24c-1.94-7.24.23-15,4-18.48a10.65,10.65,0,0,1,4-2.56,23.18,23.18,0,0,1,4.54-.85c-.11-.69-.26-1.7-.39-2.92a34.69,34.69,0,0,1-.17-9.3A18.34,18.34,0,0,1,368,308.41a16.49,16.49,0,0,1,4.29-2.54l0,0c-1.23-.94-7.56-5.5-13.64-3.13a9.82,9.82,0,0,0-2.1,1.13,16.72,16.72,0,0,0-3.29,3.56c-2.24,3.55-3,7.93-3.42,10.09-.16.87-.26,1.7-.33,2.48A31.18,31.18,0,0,0,350.09,327.45Z" transform="translate(-305.17 -291.07)"/><path class="cls-10" d="M383.58,389.07a84.11,84.11,0,0,0-.8,8.6,9.57,9.57,0,0,1-1,4.41,8.67,8.67,0,0,0,.62-.84,11.92,11.92,0,0,0,1-3.28A77.93,77.93,0,0,1,383.58,389.07Z" transform="translate(-305.17 -291.07)"/><path class="cls-9" d="M385.05,380.45a50.32,50.32,0,0,0-1.38,8c.47-3.19,1-5.84,1.39-7.28.59-2.39,1.63-4.53,3.69-8.82l.48-1-.48.69A27.59,27.59,0,0,0,385.05,380.45Z" transform="translate(-305.17 -291.07)"/><path class="cls-9" d="M378.49,404.82l0,.25a7.66,7.66,0,0,0,2.56-2,6.63,6.63,0,0,0,.66-1A11.84,11.84,0,0,1,378.49,404.82Z" transform="translate(-305.17 -291.07)"/><path class="cls-9" d="M376.8,311.06a21,21,0,0,0-2.26-2.94c-.45-.5-1.07-1.18-1.84-1.92A17,17,0,0,1,376.8,311.06Z" transform="translate(-305.17 -291.07)"/><path class="cls-10" d="M398.42,355.31c-2.53,6-4.61,6.81-9.2,16.09l-.47.69a27.59,27.59,0,0,0-3.7,8.36l.58-2.39a95.1,95.1,0,0,1,4.83-14.79c2.89-6.75,3.61-6,5.4-10.8,1.67-4.49,3.84-10.31,2.27-17.06-.37-1.61-2.91-11.69-10.8-13.64a12.64,12.64,0,0,0-7.39.57c-.16-1-.3-1.9-.43-2.67a31,31,0,0,1,3.36-2.22,59.9,59.9,0,0,1,7.59-3.07,15.1,15.1,0,0,1,1.69-.42,34.62,34.62,0,0,1,4.56,6.1,36.47,36.47,0,0,1,4.84,16.78A42.37,42.37,0,0,1,398.42,355.31Z" transform="translate(-305.17 -291.07)"/><path class="cls-9" d="M372.7,306.2l-.41-.33,0,0C372.46,306,372.59,306.08,372.7,306.2Z" transform="translate(-305.17 -291.07)"/><path class="cls-9" d="M383.58,389.07l.09-.6a50.32,50.32,0,0,1,1.38-8A48.27,48.27,0,0,0,383.58,389.07Z" transform="translate(-305.17 -291.07)"/><path class="cls-9" d="M379.51,319.67l-.14.11a20.36,20.36,0,0,0-2.57-8.72,16.31,16.31,0,0,1,1.72,3.6A43.57,43.57,0,0,1,379.51,319.67Z" transform="translate(-305.17 -291.07)"/><path class="cls-9" d="M376.8,311.06a21,21,0,0,0-2.26-2.94c-.46-.5-1.07-1.18-1.84-1.92l-.41-.33a16.49,16.49,0,0,0-4.29,2.54,18.34,18.34,0,0,0-6.25,10.52,34.69,34.69,0,0,0,.17,9.3c.13,1.22.28,2.23.39,2.92a23.18,23.18,0,0,0-4.54.85,10.65,10.65,0,0,0-4,2.56c-3.75,3.49-5.92,11.24-4,18.48a23.27,23.27,0,0,0,4.26,8.24c3.47,4.66,6.34,5.65,10.23,9.1a37.75,37.75,0,0,1,9.95,14.22c1.29,3.34,1.91,6.68,3.13,13.36.52,2.81.87,5.18,1.11,6.86a11.84,11.84,0,0,0,3.25-2.74,9.57,9.57,0,0,0,1-4.41,84.11,84.11,0,0,1,.8-8.6,48.27,48.27,0,0,1,1.47-8.62l.58-2.39a95.1,95.1,0,0,1,4.83-14.79c2.89-6.75,3.61-6,5.4-10.8,1.67-4.49,3.84-10.32,2.27-17.06-.37-1.61-2.91-11.69-10.8-13.64a12.64,12.64,0,0,0-7.39.57c-.16-1-.3-1.9-.43-2.67l-.14.11A20.36,20.36,0,0,0,376.8,311.06Z" transform="translate(-305.17 -291.07)"/><path class="cls-12" d="M348.81,349.2s3.81,3.88,11.37,11.37c9.53,9.46,13.93,13.37,13.93,13.37a76,76,0,0,1-16.49-13.08A73.32,73.32,0,0,1,348.81,349.2Z" transform="translate(-305.17 -291.07)"/><path class="cls-12" d="M373.4,355h0c-6.7-6.58-10.08-12.79-15.77-23.44a29.47,29.47,0,0,1-2.56-6.26,28.24,28.24,0,0,1-.85-4.55q3.78,7.62,8.2,15.64C366.06,343,369.74,349.2,373.4,355Z" transform="translate(-305.17 -291.07)"/><path class="cls-12" d="M367,312.81c-.41.14,1.49,5.54,3.7,16.78.3,1.53,1.67,8.53,2.84,17.91a167.69,167.69,0,0,1,1.71,19.61c.17,9.94-.76,17-.57,17.06s1.56-8.9,2-19.9c.46-11.69-.07-17.75-.28-19.62a101.82,101.82,0,0,0-2.28-12.5C371.51,321.61,367.55,312.63,367,312.81Z" transform="translate(-305.17 -291.07)"/><path class="cls-12" d="M376.67,364.27a41.72,41.72,0,0,0,4.83-11.94,60.92,60.92,0,0,0,1.14-8.24c.56-5.63.94-12.47.57-12.51-.22,0-.55,2.46-2,10.23-1,5.29-1.8,9.34-2.28,11.66C378.34,356.42,377.59,360.08,376.67,364.27Z" transform="translate(-305.17 -291.07)"/><path class="cls-12" d="M374.11,390.14a168.63,168.63,0,0,0,10.24-23.31c4.52-12.88,6.66-24,7.1-23.88s-1,7.55-1.7,11.09a120.93,120.93,0,0,1-4.84,18.19,53.31,53.31,0,0,1-2.84,6.82A46.22,46.22,0,0,1,374.11,390.14Z" transform="translate(-305.17 -291.07)"/><path class="cls-9" d="M352.79,366a77.3,77.3,0,0,1,9.95,9.66c6.5,7.55,10.12,14.73,10.52,14.5s-1-3.08-2.56-5.69a41.66,41.66,0,0,0-6.82-8.52A119,119,0,0,0,352.79,366Z" transform="translate(-305.17 -291.07)"/><path class="cls-9" d="M362.74,388.72c.12-.18,3.29,1.22,6,4,3.68,3.78,4.78,8.41,4.55,8.53s-1.58-4-5.69-8.25C365,390.24,362.63,388.88,362.74,388.72Z" transform="translate(-305.17 -291.07)"/><path class="cls-9" d="M374.11,406.06c-.15,0-1.48-5-1.42-11.37a35.25,35.25,0,0,1,1.14-9.38c.09,0-.2,2.38-.29,6.82,0,.56,0,2.4,0,4.55C373.66,402.6,374.24,406,374.11,406.06Z" transform="translate(-305.17 -291.07)"/><path class="cls-12" d="M348.1,398.24c-.72-.4-1.41-.8-2.09-1.21.88-.57.95-3.55.95-3.9a11.69,11.69,0,0,0-.85-4.55,8.86,8.86,0,0,1,.28,3.41c-.16,1.41-.29,2.56-1.13,3.41-.23.23-.53.45-.57.75a16.24,16.24,0,0,1-3.7-3.59c-1.19-1.61-.87-1.79-2.56-4.84-.4-.73-.81-1.43-1.22-2.08.53-.53,1.43-3.13,1.79-6.16.23-2,.19-3.67,0-3.7s-.43,2.59-1.7,4.84a13.83,13.83,0,0,1-1.42,2.27l-.3.28a41.76,41.76,0,0,0-4.25-5.11l-.75-.73c.77-.61,1.45-2.81,1.6-4.67a10.37,10.37,0,0,0-1.23-5.94,9.41,9.41,0,0,1,.66,4.23c-.11,1.17-.35,3.72-1.7,4.83a1.92,1.92,0,0,0-.47.5c-1.17-1-2.07-1.69-2.38-1.92-4.45-3.25-8.95-4.83-9.09-4.55s3.39,1.84,8,5.46c-1.44.34-2.37.64-2.92.8a16.37,16.37,0,0,1-4.26.57,10.83,10.83,0,0,1-5.4-1.71,14.34,14.34,0,0,0,1.81,1.14,14.93,14.93,0,0,0,3.87,1.42c2.91.56,6-.8,7.5-1.75,1,.78,2,1.64,3,2.6a33,33,0,0,1,4.83,5.4,23.79,23.79,0,0,1,2.68,5c-.86.23-2,.68-3.53,1a21.06,21.06,0,0,1-4.83.29c-2.87-.06-4.71-.55-4.73-.42a13.14,13.14,0,0,0,3.59,1l.17,0a32.57,32.57,0,0,0,6.65.26,22.78,22.78,0,0,0,3.48-.41l.22.41c2.73,4.88,7.15,7.59,11.39,9.8l-.3.15a20.44,20.44,0,0,1-3.13.85c-1.32.32-2,.48-2.56.57-1.65.28-2.56.24-2.56.29a17.43,17.43,0,0,0,4.84-.29l.7-.16a14.69,14.69,0,0,0,2.42-.69,11.32,11.32,0,0,0,1-.49l1.52.77c5.09,2.57,9.59,3.61,9.67,3.42S355.91,402.62,348.1,398.24Z" transform="translate(-305.17 -291.07)"/></svg>